G04 (created by PCBNEW-RS274X (2010-00-09 BZR 23xx)-stable) date Sun 16 Oct 2011 03:02:59 PM EDT*
G01*
G70*
G90*
%MOIN*%
G04 Gerber Fmt 3.4, Leading zero omitted, Abs format*
%FSLAX34Y34*%
G04 APERTURE LIST*
%ADD10C,0.006000*%
%ADD11C,0.015000*%
%ADD12C,0.075000*%
%ADD13R,0.075000X0.075000*%
%ADD14R,0.080000X0.080000*%
%ADD15C,0.080000*%
%ADD16R,0.055000X0.075000*%
%ADD17C,0.055000*%
G04 APERTURE END LIST*
G54D10*
G54D11*
X25260Y-21640D02*
X25270Y-21640D01*
X25260Y-36610D02*
X25260Y-21640D01*
X43910Y-36610D02*
X25260Y-36610D01*
X43910Y-21630D02*
X43910Y-36610D01*
X25280Y-21630D02*
X43910Y-21630D01*
G54D12*
X29600Y-32300D03*
X30600Y-32300D03*
X31600Y-32300D03*
X32600Y-32300D03*
X33600Y-32300D03*
X34600Y-32300D03*
X35600Y-32300D03*
X36600Y-32300D03*
X37600Y-32300D03*
X38600Y-32300D03*
X39600Y-32300D03*
X40600Y-32300D03*
X41600Y-32300D03*
G54D13*
X28600Y-32300D03*
G54D12*
X41600Y-29300D03*
X40600Y-29300D03*
X39600Y-29300D03*
X38600Y-29300D03*
X37600Y-29300D03*
X36600Y-29300D03*
X35600Y-29300D03*
X34600Y-29300D03*
X33600Y-29300D03*
X32600Y-29300D03*
X31600Y-29300D03*
X30600Y-29300D03*
X29600Y-29300D03*
X28600Y-29300D03*
G54D14*
X36190Y-26250D03*
G54D15*
X36190Y-25250D03*
X37190Y-26250D03*
X37190Y-25250D03*
X38190Y-26250D03*
X38190Y-25250D03*
G54D16*
X34975Y-25180D03*
X34225Y-25180D03*
X37175Y-23370D03*
X36425Y-23370D03*
X33265Y-25170D03*
X32515Y-25170D03*
X35155Y-23380D03*
X34405Y-23380D03*
G54D17*
X32880Y-23730D03*
X37210Y-24180D03*
X34800Y-26430D03*
M02*
