G04 (created by PCBNEW-RS274X (2010-00-09 BZR 23xx)-stable) date Sun 16 Oct 2011 03:03:08 PM EDT*
G01*
G70*
G90*
%MOIN*%
G04 Gerber Fmt 3.4, Leading zero omitted, Abs format*
%FSLAX34Y34*%
G04 APERTURE LIST*
%ADD10C,0.006000*%
%ADD11C,0.015000*%
%ADD12C,0.055000*%
%ADD13R,0.055000X0.055000*%
%ADD14R,0.060000X0.060000*%
%ADD15C,0.060000*%
%ADD16R,0.035000X0.055000*%
%ADD17C,0.035000*%
%ADD18C,0.008000*%
%ADD19C,0.010000*%
G04 APERTURE END LIST*
G54D10*
G54D11*
X25260Y-21640D02*
X25270Y-21640D01*
X25260Y-36610D02*
X25260Y-21640D01*
X43910Y-36610D02*
X25260Y-36610D01*
X43910Y-21630D02*
X43910Y-36610D01*
X25280Y-21630D02*
X43910Y-21630D01*
G54D12*
X29600Y-32300D03*
X30600Y-32300D03*
X31600Y-32300D03*
X32600Y-32300D03*
X33600Y-32300D03*
X34600Y-32300D03*
X35600Y-32300D03*
X36600Y-32300D03*
X37600Y-32300D03*
X38600Y-32300D03*
X39600Y-32300D03*
X40600Y-32300D03*
X41600Y-32300D03*
G54D13*
X28600Y-32300D03*
G54D12*
X41600Y-29300D03*
X40600Y-29300D03*
X39600Y-29300D03*
X38600Y-29300D03*
X37600Y-29300D03*
X36600Y-29300D03*
X35600Y-29300D03*
X34600Y-29300D03*
X33600Y-29300D03*
X32600Y-29300D03*
X31600Y-29300D03*
X30600Y-29300D03*
X29600Y-29300D03*
X28600Y-29300D03*
G54D14*
X36190Y-26250D03*
G54D15*
X36190Y-25250D03*
X37190Y-26250D03*
X37190Y-25250D03*
X38190Y-26250D03*
X38190Y-25250D03*
G54D16*
X34975Y-25180D03*
X34225Y-25180D03*
X37175Y-23370D03*
X36425Y-23370D03*
X33265Y-25170D03*
X32515Y-25170D03*
X35155Y-23380D03*
X34405Y-23380D03*
G54D17*
X32880Y-23730D03*
X37210Y-24180D03*
X34800Y-26430D03*
G54D18*
X32515Y-25170D02*
X32515Y-24095D01*
X32515Y-24095D02*
X32880Y-23730D01*
X33230Y-23380D02*
X34405Y-23380D01*
X32880Y-23730D02*
X33230Y-23380D01*
X34225Y-25180D02*
X33275Y-25180D01*
X33275Y-25180D02*
X33265Y-25170D01*
X37175Y-23370D02*
X37175Y-24145D01*
X37175Y-24145D02*
X37210Y-24180D01*
X35155Y-23380D02*
X36415Y-23380D01*
X36415Y-23380D02*
X36425Y-23370D01*
X34975Y-26255D02*
X34975Y-25180D01*
X34800Y-26430D02*
X34975Y-26255D01*
G54D19*
X25730Y-21960D02*
X43635Y-21960D01*
X25730Y-22040D02*
X43635Y-22040D01*
X25730Y-22120D02*
X43635Y-22120D01*
X25730Y-22200D02*
X43635Y-22200D01*
X25730Y-22280D02*
X43635Y-22280D01*
X25730Y-22360D02*
X43635Y-22360D01*
X25730Y-22440D02*
X43635Y-22440D01*
X25730Y-22520D02*
X43635Y-22520D01*
X25730Y-22600D02*
X43635Y-22600D01*
X25730Y-22680D02*
X43635Y-22680D01*
X25730Y-22760D02*
X43635Y-22760D01*
X25730Y-22840D02*
X43635Y-22840D01*
X25730Y-22920D02*
X34063Y-22920D01*
X34355Y-22920D02*
X34455Y-22920D01*
X34747Y-22920D02*
X34813Y-22920D01*
X35497Y-22920D02*
X36073Y-22920D01*
X36777Y-22920D02*
X36822Y-22920D01*
X37527Y-22920D02*
X43635Y-22920D01*
X25730Y-23000D02*
X34004Y-23000D01*
X34355Y-23000D02*
X34455Y-23000D01*
X35556Y-23000D02*
X36020Y-23000D01*
X37580Y-23000D02*
X43635Y-23000D01*
X25730Y-23080D02*
X33981Y-23080D01*
X34355Y-23080D02*
X34455Y-23080D01*
X35579Y-23080D02*
X36001Y-23080D01*
X37599Y-23080D02*
X43635Y-23080D01*
X25730Y-23160D02*
X33981Y-23160D01*
X34355Y-23160D02*
X34455Y-23160D01*
X37599Y-23160D02*
X43635Y-23160D01*
X25730Y-23240D02*
X33981Y-23240D01*
X34355Y-23240D02*
X34455Y-23240D01*
X37599Y-23240D02*
X43635Y-23240D01*
X25730Y-23320D02*
X34032Y-23320D01*
X34355Y-23320D02*
X34455Y-23320D01*
X37599Y-23320D02*
X43635Y-23320D01*
X25730Y-23400D02*
X34455Y-23400D01*
X37599Y-23400D02*
X43635Y-23400D01*
X25730Y-23480D02*
X33992Y-23480D01*
X34355Y-23480D02*
X34455Y-23480D01*
X37599Y-23480D02*
X43635Y-23480D01*
X25730Y-23560D02*
X33980Y-23560D01*
X34355Y-23560D02*
X34455Y-23560D01*
X37599Y-23560D02*
X43635Y-23560D01*
X25730Y-23640D02*
X33981Y-23640D01*
X34355Y-23640D02*
X34455Y-23640D01*
X37599Y-23640D02*
X43635Y-23640D01*
X25730Y-23720D02*
X33987Y-23720D01*
X34355Y-23720D02*
X34455Y-23720D01*
X35572Y-23720D02*
X36011Y-23720D01*
X37588Y-23720D02*
X43635Y-23720D01*
X25730Y-23800D02*
X34023Y-23800D01*
X34355Y-23800D02*
X34455Y-23800D01*
X35537Y-23800D02*
X36053Y-23800D01*
X36795Y-23800D02*
X36803Y-23800D01*
X37547Y-23800D02*
X43635Y-23800D01*
X25730Y-23880D02*
X34122Y-23880D01*
X34318Y-23880D02*
X34492Y-23880D01*
X34687Y-23880D02*
X34872Y-23880D01*
X35437Y-23880D02*
X36166Y-23880D01*
X36682Y-23880D02*
X36885Y-23880D01*
X37511Y-23880D02*
X43635Y-23880D01*
X25730Y-23960D02*
X36842Y-23960D01*
X37580Y-23960D02*
X43635Y-23960D01*
X25730Y-24040D02*
X36808Y-24040D01*
X37613Y-24040D02*
X43635Y-24040D01*
X25730Y-24120D02*
X36785Y-24120D01*
X37635Y-24120D02*
X43635Y-24120D01*
X25730Y-24200D02*
X36785Y-24200D01*
X37635Y-24200D02*
X43635Y-24200D01*
X25730Y-24280D02*
X36791Y-24280D01*
X37628Y-24280D02*
X43635Y-24280D01*
X25730Y-24360D02*
X36824Y-24360D01*
X37595Y-24360D02*
X43635Y-24360D01*
X25730Y-24440D02*
X36869Y-24440D01*
X37551Y-24440D02*
X43635Y-24440D01*
X25730Y-24520D02*
X36949Y-24520D01*
X37471Y-24520D02*
X43635Y-24520D01*
X25730Y-24600D02*
X37113Y-24600D01*
X37306Y-24600D02*
X43635Y-24600D01*
X25730Y-24680D02*
X32209Y-24680D01*
X32438Y-24680D02*
X32592Y-24680D01*
X32822Y-24680D02*
X32959Y-24680D01*
X33572Y-24680D02*
X33943Y-24680D01*
X34508Y-24680D02*
X34693Y-24680D01*
X35258Y-24680D02*
X43635Y-24680D01*
X25730Y-24760D02*
X32127Y-24760D01*
X32465Y-24760D02*
X32565Y-24760D01*
X33654Y-24760D02*
X33843Y-24760D01*
X35357Y-24760D02*
X35940Y-24760D01*
X36441Y-24760D02*
X36940Y-24760D01*
X37441Y-24760D02*
X37954Y-24760D01*
X38420Y-24760D02*
X43635Y-24760D01*
X25730Y-24840D02*
X32094Y-24840D01*
X32465Y-24840D02*
X32565Y-24840D01*
X33687Y-24840D02*
X33808Y-24840D01*
X35393Y-24840D02*
X35824Y-24840D01*
X36556Y-24840D02*
X36824Y-24840D01*
X37556Y-24840D02*
X37892Y-24840D01*
X38489Y-24840D02*
X43635Y-24840D01*
X25730Y-24920D02*
X32091Y-24920D01*
X32465Y-24920D02*
X32565Y-24920D01*
X35399Y-24920D02*
X35744Y-24920D01*
X36636Y-24920D02*
X36744Y-24920D01*
X37636Y-24920D02*
X37930Y-24920D01*
X38449Y-24920D02*
X43635Y-24920D01*
X25730Y-25000D02*
X32091Y-25000D01*
X32465Y-25000D02*
X32565Y-25000D01*
X35399Y-25000D02*
X35700Y-25000D01*
X36681Y-25000D02*
X36700Y-25000D01*
X37681Y-25000D02*
X37707Y-25000D01*
X37870Y-25000D02*
X38010Y-25000D01*
X38369Y-25000D02*
X38511Y-25000D01*
X38675Y-25000D02*
X43635Y-25000D01*
X25730Y-25080D02*
X32112Y-25080D01*
X32465Y-25080D02*
X32565Y-25080D01*
X35399Y-25080D02*
X35667Y-25080D01*
X37950Y-25080D02*
X38090Y-25080D01*
X38289Y-25080D02*
X38431Y-25080D01*
X38708Y-25080D02*
X43635Y-25080D01*
X25730Y-25160D02*
X32565Y-25160D01*
X35399Y-25160D02*
X35641Y-25160D01*
X38030Y-25160D02*
X38170Y-25160D01*
X38209Y-25160D02*
X38351Y-25160D01*
X38725Y-25160D02*
X43635Y-25160D01*
X25730Y-25240D02*
X32132Y-25240D01*
X32465Y-25240D02*
X32565Y-25240D01*
X35399Y-25240D02*
X35641Y-25240D01*
X38110Y-25240D02*
X38271Y-25240D01*
X38729Y-25240D02*
X43635Y-25240D01*
X25730Y-25320D02*
X32090Y-25320D01*
X32465Y-25320D02*
X32565Y-25320D01*
X35399Y-25320D02*
X35641Y-25320D01*
X38049Y-25320D02*
X38330Y-25320D01*
X38733Y-25320D02*
X43635Y-25320D01*
X25730Y-25400D02*
X32091Y-25400D01*
X32465Y-25400D02*
X32565Y-25400D01*
X35399Y-25400D02*
X35658Y-25400D01*
X37969Y-25400D02*
X38111Y-25400D01*
X38270Y-25400D02*
X38410Y-25400D01*
X38708Y-25400D02*
X43635Y-25400D01*
X25730Y-25480D02*
X32091Y-25480D01*
X32465Y-25480D02*
X32565Y-25480D01*
X33689Y-25480D02*
X33801Y-25480D01*
X35399Y-25480D02*
X35691Y-25480D01*
X37687Y-25480D02*
X37696Y-25480D01*
X37889Y-25480D02*
X38031Y-25480D01*
X38350Y-25480D02*
X38490Y-25480D01*
X38679Y-25480D02*
X43635Y-25480D01*
X25730Y-25560D02*
X32118Y-25560D01*
X32465Y-25560D02*
X32565Y-25560D01*
X33661Y-25560D02*
X33824Y-25560D01*
X35376Y-25560D02*
X35724Y-25560D01*
X37655Y-25560D02*
X37951Y-25560D01*
X38430Y-25560D02*
X43635Y-25560D01*
X25730Y-25640D02*
X32183Y-25640D01*
X32458Y-25640D02*
X32572Y-25640D01*
X32846Y-25640D02*
X32933Y-25640D01*
X33597Y-25640D02*
X33883Y-25640D01*
X34566Y-25640D02*
X34633Y-25640D01*
X35317Y-25640D02*
X35803Y-25640D01*
X37576Y-25640D02*
X37885Y-25640D01*
X38494Y-25640D02*
X43635Y-25640D01*
X25730Y-25720D02*
X34685Y-25720D01*
X35265Y-25720D02*
X35795Y-25720D01*
X37488Y-25720D02*
X37908Y-25720D01*
X38471Y-25720D02*
X43635Y-25720D01*
X25730Y-25800D02*
X34685Y-25800D01*
X35265Y-25800D02*
X35688Y-25800D01*
X37516Y-25800D02*
X37864Y-25800D01*
X38516Y-25800D02*
X43635Y-25800D01*
X25730Y-25880D02*
X34685Y-25880D01*
X35265Y-25880D02*
X35650Y-25880D01*
X37596Y-25880D02*
X37784Y-25880D01*
X38596Y-25880D02*
X43635Y-25880D01*
X25730Y-25960D02*
X34685Y-25960D01*
X35265Y-25960D02*
X35641Y-25960D01*
X37664Y-25960D02*
X37717Y-25960D01*
X38664Y-25960D02*
X43635Y-25960D01*
X25730Y-26040D02*
X34630Y-26040D01*
X35265Y-26040D02*
X35641Y-26040D01*
X38697Y-26040D02*
X43635Y-26040D01*
X25730Y-26120D02*
X34509Y-26120D01*
X35265Y-26120D02*
X35641Y-26120D01*
X38731Y-26120D02*
X43635Y-26120D01*
X25730Y-26200D02*
X34436Y-26200D01*
X35265Y-26200D02*
X35641Y-26200D01*
X38739Y-26200D02*
X43635Y-26200D01*
X25730Y-26280D02*
X34403Y-26280D01*
X35260Y-26280D02*
X35641Y-26280D01*
X38739Y-26280D02*
X43635Y-26280D01*
X25730Y-26360D02*
X34375Y-26360D01*
X35244Y-26360D02*
X35641Y-26360D01*
X38738Y-26360D02*
X43635Y-26360D01*
X25730Y-26440D02*
X34375Y-26440D01*
X35225Y-26440D02*
X35641Y-26440D01*
X38705Y-26440D02*
X43635Y-26440D01*
X25730Y-26520D02*
X34377Y-26520D01*
X35222Y-26520D02*
X35641Y-26520D01*
X37671Y-26520D02*
X37708Y-26520D01*
X38672Y-26520D02*
X43635Y-26520D01*
X25730Y-26600D02*
X34410Y-26600D01*
X35189Y-26600D02*
X35641Y-26600D01*
X36739Y-26600D02*
X36764Y-26600D01*
X37616Y-26600D02*
X37764Y-26600D01*
X38616Y-26600D02*
X43635Y-26600D01*
X25730Y-26680D02*
X34449Y-26680D01*
X35151Y-26680D02*
X35674Y-26680D01*
X36705Y-26680D02*
X36844Y-26680D01*
X37536Y-26680D02*
X37844Y-26680D01*
X38536Y-26680D02*
X43635Y-26680D01*
X25730Y-26760D02*
X34529Y-26760D01*
X35071Y-26760D02*
X35748Y-26760D01*
X36632Y-26760D02*
X36987Y-26760D01*
X37392Y-26760D02*
X37987Y-26760D01*
X38392Y-26760D02*
X43635Y-26760D01*
X25730Y-26840D02*
X34679Y-26840D01*
X34920Y-26840D02*
X43635Y-26840D01*
X25730Y-26920D02*
X43635Y-26920D01*
X25730Y-27000D02*
X43635Y-27000D01*
X25730Y-27080D02*
X43635Y-27080D01*
X25730Y-27160D02*
X43635Y-27160D01*
X25730Y-27240D02*
X43635Y-27240D01*
X25730Y-27320D02*
X43635Y-27320D01*
X25730Y-27400D02*
X43635Y-27400D01*
X25730Y-27480D02*
X43635Y-27480D01*
X25730Y-27560D02*
X43635Y-27560D01*
X25730Y-27640D02*
X43635Y-27640D01*
X25730Y-27720D02*
X43635Y-27720D01*
X25730Y-27800D02*
X43635Y-27800D01*
X25730Y-27880D02*
X43635Y-27880D01*
X25730Y-27960D02*
X43635Y-27960D01*
X25730Y-28040D02*
X43635Y-28040D01*
X25730Y-28120D02*
X43635Y-28120D01*
X25730Y-28200D02*
X43635Y-28200D01*
X25730Y-28280D02*
X43635Y-28280D01*
X25730Y-28360D02*
X43635Y-28360D01*
X25730Y-28440D02*
X43635Y-28440D01*
X25730Y-28520D02*
X43635Y-28520D01*
X25730Y-28600D02*
X43635Y-28600D01*
X25730Y-28680D02*
X43635Y-28680D01*
X25730Y-28760D02*
X43635Y-28760D01*
X25730Y-28840D02*
X28340Y-28840D01*
X28862Y-28840D02*
X29340Y-28840D01*
X29862Y-28840D02*
X30340Y-28840D01*
X30862Y-28840D02*
X31340Y-28840D01*
X31862Y-28840D02*
X32339Y-28840D01*
X32862Y-28840D02*
X33340Y-28840D01*
X33862Y-28840D02*
X34353Y-28840D01*
X34845Y-28840D02*
X35340Y-28840D01*
X35862Y-28840D02*
X36340Y-28840D01*
X36862Y-28840D02*
X37340Y-28840D01*
X37862Y-28840D02*
X38340Y-28840D01*
X38862Y-28840D02*
X39340Y-28840D01*
X39862Y-28840D02*
X40340Y-28840D01*
X40862Y-28840D02*
X41340Y-28840D01*
X41862Y-28840D02*
X43635Y-28840D01*
X25730Y-28920D02*
X28238Y-28920D01*
X28963Y-28920D02*
X29238Y-28920D01*
X29963Y-28920D02*
X30238Y-28920D01*
X30963Y-28920D02*
X31238Y-28920D01*
X31963Y-28920D02*
X32238Y-28920D01*
X32963Y-28920D02*
X33238Y-28920D01*
X33963Y-28920D02*
X34315Y-28920D01*
X34886Y-28920D02*
X35238Y-28920D01*
X35963Y-28920D02*
X36238Y-28920D01*
X36963Y-28920D02*
X37238Y-28920D01*
X37963Y-28920D02*
X38238Y-28920D01*
X38963Y-28920D02*
X39238Y-28920D01*
X39963Y-28920D02*
X40238Y-28920D01*
X40963Y-28920D02*
X41238Y-28920D01*
X41963Y-28920D02*
X43635Y-28920D01*
X25730Y-29000D02*
X28158Y-29000D01*
X29043Y-29000D02*
X29158Y-29000D01*
X30043Y-29000D02*
X30158Y-29000D01*
X31043Y-29000D02*
X31158Y-29000D01*
X32043Y-29000D02*
X32158Y-29000D01*
X33043Y-29000D02*
X33158Y-29000D01*
X34043Y-29000D02*
X34371Y-29000D01*
X34829Y-29000D02*
X35158Y-29000D01*
X36043Y-29000D02*
X36158Y-29000D01*
X37043Y-29000D02*
X37158Y-29000D01*
X38043Y-29000D02*
X38158Y-29000D01*
X39043Y-29000D02*
X39158Y-29000D01*
X40043Y-29000D02*
X40158Y-29000D01*
X41043Y-29000D02*
X41158Y-29000D01*
X42043Y-29000D02*
X43635Y-29000D01*
X25730Y-29080D02*
X28123Y-29080D01*
X29077Y-29080D02*
X29123Y-29080D01*
X30077Y-29080D02*
X30123Y-29080D01*
X31077Y-29080D02*
X31123Y-29080D01*
X32077Y-29080D02*
X32123Y-29080D01*
X33077Y-29080D02*
X33123Y-29080D01*
X34077Y-29080D02*
X34132Y-29080D01*
X34309Y-29080D02*
X34451Y-29080D01*
X34749Y-29080D02*
X34891Y-29080D01*
X35071Y-29080D02*
X35123Y-29080D01*
X36077Y-29080D02*
X36123Y-29080D01*
X37077Y-29080D02*
X37123Y-29080D01*
X38078Y-29080D02*
X38123Y-29080D01*
X39077Y-29080D02*
X39123Y-29080D01*
X40077Y-29080D02*
X40123Y-29080D01*
X41077Y-29080D02*
X41123Y-29080D01*
X42077Y-29080D02*
X43635Y-29080D01*
X25730Y-29160D02*
X28090Y-29160D01*
X34389Y-29160D02*
X34531Y-29160D01*
X34669Y-29160D02*
X34811Y-29160D01*
X42111Y-29160D02*
X43635Y-29160D01*
X25730Y-29240D02*
X28075Y-29240D01*
X34469Y-29240D02*
X34731Y-29240D01*
X42125Y-29240D02*
X43635Y-29240D01*
X25730Y-29320D02*
X28075Y-29320D01*
X34509Y-29320D02*
X34691Y-29320D01*
X42125Y-29320D02*
X43635Y-29320D01*
X25730Y-29400D02*
X28075Y-29400D01*
X34429Y-29400D02*
X34571Y-29400D01*
X34629Y-29400D02*
X34771Y-29400D01*
X42125Y-29400D02*
X43635Y-29400D01*
X25730Y-29480D02*
X28106Y-29480D01*
X29093Y-29480D02*
X29106Y-29480D01*
X30093Y-29480D02*
X30106Y-29480D01*
X31093Y-29480D02*
X31106Y-29480D01*
X32093Y-29480D02*
X32106Y-29480D01*
X33093Y-29480D02*
X33106Y-29480D01*
X34093Y-29480D02*
X34112Y-29480D01*
X34349Y-29480D02*
X34491Y-29480D01*
X34709Y-29480D02*
X34851Y-29480D01*
X35081Y-29480D02*
X35106Y-29480D01*
X36093Y-29480D02*
X36106Y-29480D01*
X37093Y-29480D02*
X37106Y-29480D01*
X38093Y-29480D02*
X38106Y-29480D01*
X39093Y-29480D02*
X39106Y-29480D01*
X40093Y-29480D02*
X40106Y-29480D01*
X41093Y-29480D02*
X41106Y-29480D01*
X42093Y-29480D02*
X43635Y-29480D01*
X25730Y-29560D02*
X28139Y-29560D01*
X29060Y-29560D02*
X29139Y-29560D01*
X30060Y-29560D02*
X30139Y-29560D01*
X31060Y-29560D02*
X31139Y-29560D01*
X32060Y-29560D02*
X32139Y-29560D01*
X33060Y-29560D02*
X33139Y-29560D01*
X34060Y-29560D02*
X34145Y-29560D01*
X34269Y-29560D02*
X34411Y-29560D01*
X34789Y-29560D02*
X34931Y-29560D01*
X35054Y-29560D02*
X35139Y-29560D01*
X36060Y-29560D02*
X36139Y-29560D01*
X37060Y-29560D02*
X37139Y-29560D01*
X38060Y-29560D02*
X38139Y-29560D01*
X39060Y-29560D02*
X39139Y-29560D01*
X40060Y-29560D02*
X40139Y-29560D01*
X41060Y-29560D02*
X41139Y-29560D01*
X42060Y-29560D02*
X43635Y-29560D01*
X25730Y-29640D02*
X28197Y-29640D01*
X29002Y-29640D02*
X29197Y-29640D01*
X30002Y-29640D02*
X30197Y-29640D01*
X31002Y-29640D02*
X31197Y-29640D01*
X32002Y-29640D02*
X32197Y-29640D01*
X33002Y-29640D02*
X33197Y-29640D01*
X34002Y-29640D02*
X34331Y-29640D01*
X34869Y-29640D02*
X35197Y-29640D01*
X36002Y-29640D02*
X36197Y-29640D01*
X37002Y-29640D02*
X37197Y-29640D01*
X38002Y-29640D02*
X38197Y-29640D01*
X39002Y-29640D02*
X39197Y-29640D01*
X40002Y-29640D02*
X40197Y-29640D01*
X41002Y-29640D02*
X41197Y-29640D01*
X42002Y-29640D02*
X43635Y-29640D01*
X25730Y-29720D02*
X28277Y-29720D01*
X28922Y-29720D02*
X29277Y-29720D01*
X29922Y-29720D02*
X30277Y-29720D01*
X30922Y-29720D02*
X31277Y-29720D01*
X31922Y-29720D02*
X32277Y-29720D01*
X32922Y-29720D02*
X33277Y-29720D01*
X33922Y-29720D02*
X34324Y-29720D01*
X34875Y-29720D02*
X35277Y-29720D01*
X35922Y-29720D02*
X36277Y-29720D01*
X36922Y-29720D02*
X37277Y-29720D01*
X37922Y-29720D02*
X38277Y-29720D01*
X38922Y-29720D02*
X39277Y-29720D01*
X39922Y-29720D02*
X40277Y-29720D01*
X40922Y-29720D02*
X41277Y-29720D01*
X41922Y-29720D02*
X43635Y-29720D01*
X25730Y-29800D02*
X28434Y-29800D01*
X28764Y-29800D02*
X29434Y-29800D01*
X29764Y-29800D02*
X30434Y-29800D01*
X30764Y-29800D02*
X31434Y-29800D01*
X31764Y-29800D02*
X32434Y-29800D01*
X32764Y-29800D02*
X33434Y-29800D01*
X33764Y-29800D02*
X34471Y-29800D01*
X34749Y-29800D02*
X35434Y-29800D01*
X35764Y-29800D02*
X36434Y-29800D01*
X36764Y-29800D02*
X37434Y-29800D01*
X37764Y-29800D02*
X38434Y-29800D01*
X38764Y-29800D02*
X39434Y-29800D01*
X39764Y-29800D02*
X40434Y-29800D01*
X40764Y-29800D02*
X41434Y-29800D01*
X41764Y-29800D02*
X43635Y-29800D01*
X25730Y-29880D02*
X43635Y-29880D01*
X25730Y-29960D02*
X43635Y-29960D01*
X25730Y-30040D02*
X43635Y-30040D01*
X25730Y-30120D02*
X43635Y-30120D01*
X25730Y-30200D02*
X43635Y-30200D01*
X25730Y-30280D02*
X43635Y-30280D01*
X25730Y-30360D02*
X43635Y-30360D01*
X25730Y-30440D02*
X43635Y-30440D01*
X25730Y-30520D02*
X43635Y-30520D01*
X25730Y-30600D02*
X43635Y-30600D01*
X25730Y-30680D02*
X43635Y-30680D01*
X25730Y-30760D02*
X43635Y-30760D01*
X25730Y-30840D02*
X43635Y-30840D01*
X25730Y-30920D02*
X43635Y-30920D01*
X25730Y-31000D02*
X43635Y-31000D01*
X25730Y-31080D02*
X43635Y-31080D01*
X25730Y-31160D02*
X43635Y-31160D01*
X25730Y-31240D02*
X43635Y-31240D01*
X25730Y-31320D02*
X43635Y-31320D01*
X25730Y-31400D02*
X43635Y-31400D01*
X25730Y-31480D02*
X43635Y-31480D01*
X25730Y-31560D02*
X43635Y-31560D01*
X25730Y-31640D02*
X43635Y-31640D01*
X25730Y-31720D02*
X43635Y-31720D01*
X25730Y-31800D02*
X28218Y-31800D01*
X28983Y-31800D02*
X29436Y-31800D01*
X29766Y-31800D02*
X30436Y-31800D01*
X30766Y-31800D02*
X31436Y-31800D01*
X31766Y-31800D02*
X32436Y-31800D01*
X32766Y-31800D02*
X33435Y-31800D01*
X33766Y-31800D02*
X34436Y-31800D01*
X34766Y-31800D02*
X35451Y-31800D01*
X35729Y-31800D02*
X36436Y-31800D01*
X36766Y-31800D02*
X37436Y-31800D01*
X37766Y-31800D02*
X38436Y-31800D01*
X38766Y-31800D02*
X39451Y-31800D01*
X39729Y-31800D02*
X40436Y-31800D01*
X40766Y-31800D02*
X41435Y-31800D01*
X41766Y-31800D02*
X43635Y-31800D01*
X25730Y-31880D02*
X28118Y-31880D01*
X29082Y-31880D02*
X29278Y-31880D01*
X29923Y-31880D02*
X30278Y-31880D01*
X30923Y-31880D02*
X31278Y-31880D01*
X31923Y-31880D02*
X32278Y-31880D01*
X32923Y-31880D02*
X33278Y-31880D01*
X33923Y-31880D02*
X34278Y-31880D01*
X34923Y-31880D02*
X35325Y-31880D01*
X35876Y-31880D02*
X36278Y-31880D01*
X36923Y-31880D02*
X37278Y-31880D01*
X37923Y-31880D02*
X38278Y-31880D01*
X38923Y-31880D02*
X39325Y-31880D01*
X39876Y-31880D02*
X40278Y-31880D01*
X40923Y-31880D02*
X41278Y-31880D01*
X41923Y-31880D02*
X43635Y-31880D01*
X25730Y-31960D02*
X28083Y-31960D01*
X29118Y-31960D02*
X29198Y-31960D01*
X30003Y-31960D02*
X30198Y-31960D01*
X31003Y-31960D02*
X31198Y-31960D01*
X32003Y-31960D02*
X32198Y-31960D01*
X33003Y-31960D02*
X33198Y-31960D01*
X34003Y-31960D02*
X34198Y-31960D01*
X35003Y-31960D02*
X35331Y-31960D01*
X35869Y-31960D02*
X36198Y-31960D01*
X37003Y-31960D02*
X37198Y-31960D01*
X38003Y-31960D02*
X38198Y-31960D01*
X39003Y-31960D02*
X39331Y-31960D01*
X39869Y-31960D02*
X40198Y-31960D01*
X41003Y-31960D02*
X41198Y-31960D01*
X42003Y-31960D02*
X43635Y-31960D01*
X25730Y-32040D02*
X28076Y-32040D01*
X29124Y-32040D02*
X29140Y-32040D01*
X30061Y-32040D02*
X30139Y-32040D01*
X31061Y-32040D02*
X31139Y-32040D01*
X32061Y-32040D02*
X32139Y-32040D01*
X33061Y-32040D02*
X33139Y-32040D01*
X34061Y-32040D02*
X34139Y-32040D01*
X35061Y-32040D02*
X35146Y-32040D01*
X35269Y-32040D02*
X35411Y-32040D01*
X35789Y-32040D02*
X35931Y-32040D01*
X36055Y-32040D02*
X36139Y-32040D01*
X37061Y-32040D02*
X37139Y-32040D01*
X38061Y-32040D02*
X38139Y-32040D01*
X39061Y-32040D02*
X39146Y-32040D01*
X39269Y-32040D02*
X39411Y-32040D01*
X39789Y-32040D02*
X39931Y-32040D01*
X40055Y-32040D02*
X40139Y-32040D01*
X41061Y-32040D02*
X41139Y-32040D01*
X42061Y-32040D02*
X43635Y-32040D01*
X25730Y-32120D02*
X28076Y-32120D01*
X30093Y-32120D02*
X30106Y-32120D01*
X31093Y-32120D02*
X31106Y-32120D01*
X32093Y-32120D02*
X32106Y-32120D01*
X33093Y-32120D02*
X33106Y-32120D01*
X34093Y-32120D02*
X34106Y-32120D01*
X35094Y-32120D02*
X35118Y-32120D01*
X35349Y-32120D02*
X35491Y-32120D01*
X35709Y-32120D02*
X35851Y-32120D01*
X36088Y-32120D02*
X36106Y-32120D01*
X37093Y-32120D02*
X37106Y-32120D01*
X38093Y-32120D02*
X38106Y-32120D01*
X39094Y-32120D02*
X39118Y-32120D01*
X39349Y-32120D02*
X39491Y-32120D01*
X39709Y-32120D02*
X39851Y-32120D01*
X40088Y-32120D02*
X40106Y-32120D01*
X41093Y-32120D02*
X41106Y-32120D01*
X42094Y-32120D02*
X43635Y-32120D01*
X25730Y-32200D02*
X28076Y-32200D01*
X35429Y-32200D02*
X35571Y-32200D01*
X35629Y-32200D02*
X35771Y-32200D01*
X39429Y-32200D02*
X39571Y-32200D01*
X39629Y-32200D02*
X39771Y-32200D01*
X42125Y-32200D02*
X43635Y-32200D01*
X25730Y-32280D02*
X28076Y-32280D01*
X35509Y-32280D02*
X35691Y-32280D01*
X39509Y-32280D02*
X39691Y-32280D01*
X42125Y-32280D02*
X43635Y-32280D01*
X25730Y-32360D02*
X28076Y-32360D01*
X35469Y-32360D02*
X35731Y-32360D01*
X39469Y-32360D02*
X39731Y-32360D01*
X42125Y-32360D02*
X43635Y-32360D01*
X25730Y-32440D02*
X28076Y-32440D01*
X35389Y-32440D02*
X35531Y-32440D01*
X35669Y-32440D02*
X35811Y-32440D01*
X39389Y-32440D02*
X39531Y-32440D01*
X39669Y-32440D02*
X39811Y-32440D01*
X42110Y-32440D02*
X43635Y-32440D01*
X25730Y-32520D02*
X28076Y-32520D01*
X30077Y-32520D02*
X30123Y-32520D01*
X31077Y-32520D02*
X31123Y-32520D01*
X32077Y-32520D02*
X32123Y-32520D01*
X33077Y-32520D02*
X33123Y-32520D01*
X34077Y-32520D02*
X34123Y-32520D01*
X35077Y-32520D02*
X35128Y-32520D01*
X35309Y-32520D02*
X35451Y-32520D01*
X35749Y-32520D02*
X35891Y-32520D01*
X36068Y-32520D02*
X36122Y-32520D01*
X37077Y-32520D02*
X37123Y-32520D01*
X38077Y-32520D02*
X38123Y-32520D01*
X39077Y-32520D02*
X39128Y-32520D01*
X39309Y-32520D02*
X39451Y-32520D01*
X39749Y-32520D02*
X39891Y-32520D01*
X40068Y-32520D02*
X40122Y-32520D01*
X41077Y-32520D02*
X41123Y-32520D01*
X42077Y-32520D02*
X43635Y-32520D01*
X25730Y-32600D02*
X28076Y-32600D01*
X29124Y-32600D02*
X29157Y-32600D01*
X30042Y-32600D02*
X30157Y-32600D01*
X31042Y-32600D02*
X31157Y-32600D01*
X32042Y-32600D02*
X32157Y-32600D01*
X33042Y-32600D02*
X33157Y-32600D01*
X34042Y-32600D02*
X34157Y-32600D01*
X35042Y-32600D02*
X35371Y-32600D01*
X35829Y-32600D02*
X36157Y-32600D01*
X37042Y-32600D02*
X37157Y-32600D01*
X38042Y-32600D02*
X38157Y-32600D01*
X39042Y-32600D02*
X39371Y-32600D01*
X39829Y-32600D02*
X40157Y-32600D01*
X41042Y-32600D02*
X41157Y-32600D01*
X42042Y-32600D02*
X43635Y-32600D01*
X25730Y-32680D02*
X28099Y-32680D01*
X29101Y-32680D02*
X29237Y-32680D01*
X29962Y-32680D02*
X30237Y-32680D01*
X30962Y-32680D02*
X31237Y-32680D01*
X31962Y-32680D02*
X32237Y-32680D01*
X32962Y-32680D02*
X33237Y-32680D01*
X33962Y-32680D02*
X34237Y-32680D01*
X34962Y-32680D02*
X35314Y-32680D01*
X35885Y-32680D02*
X36237Y-32680D01*
X36962Y-32680D02*
X37237Y-32680D01*
X37962Y-32680D02*
X38237Y-32680D01*
X38962Y-32680D02*
X39314Y-32680D01*
X39885Y-32680D02*
X40237Y-32680D01*
X40962Y-32680D02*
X41237Y-32680D01*
X41962Y-32680D02*
X43635Y-32680D01*
X25730Y-32760D02*
X28158Y-32760D01*
X29042Y-32760D02*
X29338Y-32760D01*
X29860Y-32760D02*
X30338Y-32760D01*
X30860Y-32760D02*
X31338Y-32760D01*
X31860Y-32760D02*
X32338Y-32760D01*
X32860Y-32760D02*
X33338Y-32760D01*
X33860Y-32760D02*
X34338Y-32760D01*
X34860Y-32760D02*
X35356Y-32760D01*
X35847Y-32760D02*
X36338Y-32760D01*
X36860Y-32760D02*
X37338Y-32760D01*
X37860Y-32760D02*
X38338Y-32760D01*
X38860Y-32760D02*
X39356Y-32760D01*
X39847Y-32760D02*
X40338Y-32760D01*
X40860Y-32760D02*
X41338Y-32760D01*
X41860Y-32760D02*
X43635Y-32760D01*
X25730Y-32840D02*
X43635Y-32840D01*
X25730Y-32920D02*
X43635Y-32920D01*
X25730Y-33000D02*
X43635Y-33000D01*
X25730Y-33080D02*
X43635Y-33080D01*
X25730Y-33160D02*
X43635Y-33160D01*
X25730Y-33240D02*
X43635Y-33240D01*
X25730Y-33320D02*
X43635Y-33320D01*
X25730Y-33400D02*
X43635Y-33400D01*
X25730Y-33480D02*
X43635Y-33480D01*
X25730Y-33560D02*
X43635Y-33560D01*
X25730Y-33640D02*
X43635Y-33640D01*
X25730Y-33720D02*
X43635Y-33720D01*
X25730Y-33800D02*
X43635Y-33800D01*
X25730Y-33880D02*
X43635Y-33880D01*
X25730Y-33960D02*
X43635Y-33960D01*
X25730Y-34040D02*
X43635Y-34040D01*
X25730Y-34120D02*
X43635Y-34120D01*
X25730Y-34200D02*
X43635Y-34200D01*
X25730Y-34280D02*
X43635Y-34280D01*
X25730Y-34360D02*
X43635Y-34360D01*
X25730Y-34440D02*
X43635Y-34440D01*
X25730Y-34520D02*
X43635Y-34520D01*
X25730Y-34600D02*
X43635Y-34600D01*
X25730Y-34680D02*
X43635Y-34680D01*
X25730Y-34760D02*
X43635Y-34760D01*
X25730Y-34840D02*
X43635Y-34840D01*
X25730Y-34920D02*
X43635Y-34920D01*
X25730Y-35000D02*
X43635Y-35000D01*
X25730Y-35080D02*
X43635Y-35080D01*
X25730Y-35160D02*
X43635Y-35160D01*
X25730Y-35240D02*
X43635Y-35240D01*
X25730Y-35320D02*
X43635Y-35320D01*
X25730Y-35400D02*
X43635Y-35400D01*
X25730Y-35480D02*
X43635Y-35480D01*
X25730Y-35560D02*
X43635Y-35560D01*
X25730Y-35640D02*
X43635Y-35640D01*
X25730Y-35720D02*
X43635Y-35720D01*
X25730Y-35800D02*
X43635Y-35800D01*
X25730Y-35880D02*
X43635Y-35880D01*
X25730Y-35960D02*
X43635Y-35960D01*
X25730Y-36040D02*
X43635Y-36040D01*
X25730Y-36120D02*
X43635Y-36120D01*
X43635Y-36180D02*
X43635Y-21960D01*
X25730Y-21960D01*
X25730Y-36180D01*
X34495Y-36180D01*
X34495Y-32825D01*
X34302Y-32745D01*
X34155Y-32597D01*
X34100Y-32464D01*
X34045Y-32598D01*
X33897Y-32745D01*
X33704Y-32825D01*
X33495Y-32825D01*
X33302Y-32745D01*
X33155Y-32597D01*
X33100Y-32464D01*
X33045Y-32598D01*
X32897Y-32745D01*
X32704Y-32825D01*
X32495Y-32825D01*
X32302Y-32745D01*
X32155Y-32597D01*
X32100Y-32464D01*
X32045Y-32598D01*
X31897Y-32745D01*
X31704Y-32825D01*
X31495Y-32825D01*
X31302Y-32745D01*
X31155Y-32597D01*
X31100Y-32464D01*
X31045Y-32598D01*
X30897Y-32745D01*
X30704Y-32825D01*
X30495Y-32825D01*
X30302Y-32745D01*
X30155Y-32597D01*
X30100Y-32464D01*
X30045Y-32598D01*
X29897Y-32745D01*
X29704Y-32825D01*
X29495Y-32825D01*
X29302Y-32745D01*
X29155Y-32597D01*
X29124Y-32522D01*
X29124Y-32625D01*
X29086Y-32716D01*
X29016Y-32786D01*
X28924Y-32824D01*
X28275Y-32824D01*
X28184Y-32786D01*
X28114Y-32716D01*
X28076Y-32624D01*
X28076Y-31975D01*
X28114Y-31884D01*
X28184Y-31814D01*
X28276Y-31776D01*
X28925Y-31776D01*
X29016Y-31814D01*
X29086Y-31884D01*
X29124Y-31976D01*
X29124Y-32076D01*
X29155Y-32002D01*
X29303Y-31855D01*
X29496Y-31775D01*
X29705Y-31775D01*
X29898Y-31855D01*
X30045Y-32003D01*
X30099Y-32135D01*
X30155Y-32002D01*
X30303Y-31855D01*
X30496Y-31775D01*
X30705Y-31775D01*
X30898Y-31855D01*
X31045Y-32003D01*
X31099Y-32135D01*
X31155Y-32002D01*
X31303Y-31855D01*
X31496Y-31775D01*
X31705Y-31775D01*
X31898Y-31855D01*
X32045Y-32003D01*
X32099Y-32135D01*
X32155Y-32002D01*
X32303Y-31855D01*
X32496Y-31775D01*
X32705Y-31775D01*
X32898Y-31855D01*
X33045Y-32003D01*
X33099Y-32135D01*
X33155Y-32002D01*
X33303Y-31855D01*
X33495Y-31775D01*
X33495Y-29825D01*
X33302Y-29745D01*
X33155Y-29597D01*
X33100Y-29464D01*
X33045Y-29598D01*
X32897Y-29745D01*
X32704Y-29825D01*
X32495Y-29825D01*
X32302Y-29745D01*
X32155Y-29597D01*
X32100Y-29464D01*
X32045Y-29598D01*
X31897Y-29745D01*
X31704Y-29825D01*
X31495Y-29825D01*
X31302Y-29745D01*
X31155Y-29597D01*
X31100Y-29464D01*
X31045Y-29598D01*
X30897Y-29745D01*
X30704Y-29825D01*
X30495Y-29825D01*
X30302Y-29745D01*
X30155Y-29597D01*
X30100Y-29464D01*
X30045Y-29598D01*
X29897Y-29745D01*
X29704Y-29825D01*
X29495Y-29825D01*
X29302Y-29745D01*
X29155Y-29597D01*
X29100Y-29464D01*
X29045Y-29598D01*
X28897Y-29745D01*
X28704Y-29825D01*
X28495Y-29825D01*
X28302Y-29745D01*
X28155Y-29597D01*
X28075Y-29404D01*
X28075Y-29195D01*
X28155Y-29002D01*
X28303Y-28855D01*
X28496Y-28775D01*
X28705Y-28775D01*
X28898Y-28855D01*
X29045Y-29003D01*
X29099Y-29135D01*
X29155Y-29002D01*
X29303Y-28855D01*
X29496Y-28775D01*
X29705Y-28775D01*
X29898Y-28855D01*
X30045Y-29003D01*
X30099Y-29135D01*
X30155Y-29002D01*
X30303Y-28855D01*
X30496Y-28775D01*
X30705Y-28775D01*
X30898Y-28855D01*
X31045Y-29003D01*
X31099Y-29135D01*
X31155Y-29002D01*
X31303Y-28855D01*
X31496Y-28775D01*
X31705Y-28775D01*
X31898Y-28855D01*
X32045Y-29003D01*
X32099Y-29135D01*
X32155Y-29002D01*
X32303Y-28855D01*
X32403Y-28813D01*
X32403Y-25695D01*
X32291Y-25694D01*
X32199Y-25656D01*
X32129Y-25586D01*
X32091Y-25495D01*
X32091Y-25396D01*
X32090Y-25282D01*
X32152Y-25220D01*
X32152Y-25120D01*
X32090Y-25058D01*
X32091Y-24944D01*
X32091Y-24845D01*
X32129Y-24754D01*
X32199Y-24684D01*
X32291Y-24646D01*
X32403Y-24645D01*
X32465Y-24707D01*
X32465Y-25120D01*
X32152Y-25120D01*
X32152Y-25220D01*
X32465Y-25220D01*
X32465Y-25633D01*
X32403Y-25695D01*
X32403Y-28813D01*
X32496Y-28775D01*
X32705Y-28775D01*
X32898Y-28855D01*
X33045Y-29003D01*
X33099Y-29135D01*
X33155Y-29002D01*
X33303Y-28855D01*
X33496Y-28775D01*
X33705Y-28775D01*
X33898Y-28855D01*
X34045Y-29003D01*
X34106Y-29151D01*
X34148Y-29033D01*
X34239Y-29010D01*
X34529Y-29300D01*
X34239Y-29590D01*
X34148Y-29567D01*
X34103Y-29457D01*
X34045Y-29598D01*
X33897Y-29745D01*
X33704Y-29825D01*
X33495Y-29825D01*
X33495Y-31775D01*
X33705Y-31775D01*
X33898Y-31855D01*
X34045Y-32003D01*
X34099Y-32135D01*
X34155Y-32002D01*
X34303Y-31855D01*
X34496Y-31775D01*
X34526Y-31775D01*
X34526Y-29819D01*
X34333Y-29752D01*
X34310Y-29661D01*
X34600Y-29371D01*
X34600Y-29229D01*
X34310Y-28939D01*
X34333Y-28848D01*
X34470Y-28792D01*
X34674Y-28781D01*
X34715Y-28795D01*
X34715Y-26855D01*
X34559Y-26790D01*
X34439Y-26670D01*
X34375Y-26514D01*
X34375Y-26345D01*
X34440Y-26189D01*
X34560Y-26069D01*
X34685Y-26017D01*
X34685Y-25676D01*
X34659Y-25666D01*
X34599Y-25606D01*
X34541Y-25666D01*
X34449Y-25704D01*
X34000Y-25704D01*
X33909Y-25666D01*
X33839Y-25596D01*
X33801Y-25504D01*
X33801Y-25470D01*
X33689Y-25470D01*
X33689Y-25495D01*
X33651Y-25586D01*
X33581Y-25656D01*
X33489Y-25694D01*
X33040Y-25694D01*
X32949Y-25656D01*
X32889Y-25596D01*
X32831Y-25656D01*
X32739Y-25694D01*
X32627Y-25695D01*
X32565Y-25633D01*
X32565Y-25220D01*
X32565Y-25120D01*
X32565Y-24707D01*
X32627Y-24645D01*
X32739Y-24646D01*
X32831Y-24684D01*
X32889Y-24742D01*
X32949Y-24684D01*
X33041Y-24646D01*
X33490Y-24646D01*
X33581Y-24684D01*
X33651Y-24754D01*
X33689Y-24846D01*
X33689Y-24890D01*
X33801Y-24890D01*
X33801Y-24855D01*
X33839Y-24764D01*
X33909Y-24694D01*
X34001Y-24656D01*
X34293Y-24656D01*
X34293Y-23905D01*
X34181Y-23904D01*
X34089Y-23866D01*
X34019Y-23796D01*
X33981Y-23705D01*
X33981Y-23606D01*
X33980Y-23492D01*
X34042Y-23430D01*
X34042Y-23330D01*
X33980Y-23268D01*
X33981Y-23154D01*
X33981Y-23055D01*
X34019Y-22964D01*
X34089Y-22894D01*
X34181Y-22856D01*
X34293Y-22855D01*
X34355Y-22917D01*
X34355Y-23330D01*
X34042Y-23330D01*
X34042Y-23430D01*
X34355Y-23430D01*
X34355Y-23843D01*
X34293Y-23905D01*
X34293Y-24656D01*
X34450Y-24656D01*
X34541Y-24694D01*
X34599Y-24752D01*
X34659Y-24694D01*
X34751Y-24656D01*
X35200Y-24656D01*
X35291Y-24694D01*
X35361Y-24764D01*
X35399Y-24856D01*
X35399Y-25505D01*
X35361Y-25596D01*
X35291Y-25666D01*
X35265Y-25676D01*
X35265Y-26255D01*
X35243Y-26366D01*
X35225Y-26392D01*
X35225Y-26515D01*
X35160Y-26671D01*
X35040Y-26791D01*
X34884Y-26855D01*
X34715Y-26855D01*
X34715Y-28795D01*
X34867Y-28848D01*
X34890Y-28939D01*
X34600Y-29229D01*
X34600Y-29371D01*
X34890Y-29661D01*
X34867Y-29752D01*
X34730Y-29808D01*
X34715Y-29808D01*
X34526Y-29819D01*
X34526Y-31775D01*
X34705Y-31775D01*
X34715Y-31779D01*
X34898Y-31855D01*
X35045Y-32003D01*
X35106Y-32151D01*
X35148Y-32033D01*
X35239Y-32010D01*
X35529Y-32300D01*
X35239Y-32590D01*
X35148Y-32567D01*
X35103Y-32457D01*
X35045Y-32598D01*
X34897Y-32745D01*
X34704Y-32825D01*
X34495Y-32825D01*
X34495Y-36180D01*
X35526Y-36180D01*
X35526Y-32819D01*
X35333Y-32752D01*
X35310Y-32661D01*
X35600Y-32371D01*
X35600Y-32229D01*
X35310Y-31939D01*
X35333Y-31848D01*
X35470Y-31792D01*
X35674Y-31781D01*
X35867Y-31848D01*
X35890Y-31939D01*
X35600Y-32229D01*
X35600Y-32371D01*
X35890Y-32661D01*
X35867Y-32752D01*
X35730Y-32808D01*
X35526Y-32819D01*
X35526Y-36180D01*
X38495Y-36180D01*
X38495Y-32825D01*
X38302Y-32745D01*
X38155Y-32597D01*
X38100Y-32464D01*
X38045Y-32598D01*
X37897Y-32745D01*
X37704Y-32825D01*
X37495Y-32825D01*
X37302Y-32745D01*
X37155Y-32597D01*
X37100Y-32464D01*
X37045Y-32598D01*
X36897Y-32745D01*
X36704Y-32825D01*
X36495Y-32825D01*
X36302Y-32745D01*
X36155Y-32597D01*
X36093Y-32448D01*
X36052Y-32567D01*
X35961Y-32590D01*
X35671Y-32300D01*
X35961Y-32010D01*
X36052Y-32033D01*
X36096Y-32142D01*
X36155Y-32002D01*
X36303Y-31855D01*
X36496Y-31775D01*
X36705Y-31775D01*
X36898Y-31855D01*
X37045Y-32003D01*
X37099Y-32135D01*
X37155Y-32002D01*
X37303Y-31855D01*
X37496Y-31775D01*
X37705Y-31775D01*
X37898Y-31855D01*
X38045Y-32003D01*
X38099Y-32135D01*
X38155Y-32002D01*
X38303Y-31855D01*
X38496Y-31775D01*
X38705Y-31775D01*
X38898Y-31855D01*
X39045Y-32003D01*
X39106Y-32151D01*
X39148Y-32033D01*
X39239Y-32010D01*
X39529Y-32300D01*
X39239Y-32590D01*
X39148Y-32567D01*
X39103Y-32457D01*
X39045Y-32598D01*
X38897Y-32745D01*
X38704Y-32825D01*
X38495Y-32825D01*
X38495Y-36180D01*
X39526Y-36180D01*
X39526Y-32819D01*
X39333Y-32752D01*
X39310Y-32661D01*
X39600Y-32371D01*
X39600Y-32229D01*
X39310Y-31939D01*
X39333Y-31848D01*
X39470Y-31792D01*
X39674Y-31781D01*
X39867Y-31848D01*
X39890Y-31939D01*
X39600Y-32229D01*
X39600Y-32371D01*
X39890Y-32661D01*
X39867Y-32752D01*
X39730Y-32808D01*
X39526Y-32819D01*
X39526Y-36180D01*
X41495Y-36180D01*
X41495Y-32825D01*
X41302Y-32745D01*
X41155Y-32597D01*
X41100Y-32464D01*
X41045Y-32598D01*
X40897Y-32745D01*
X40704Y-32825D01*
X40495Y-32825D01*
X40302Y-32745D01*
X40155Y-32597D01*
X40093Y-32448D01*
X40052Y-32567D01*
X39961Y-32590D01*
X39671Y-32300D01*
X39961Y-32010D01*
X40052Y-32033D01*
X40096Y-32142D01*
X40155Y-32002D01*
X40303Y-31855D01*
X40496Y-31775D01*
X40705Y-31775D01*
X40898Y-31855D01*
X41045Y-32003D01*
X41099Y-32135D01*
X41155Y-32002D01*
X41303Y-31855D01*
X41495Y-31775D01*
X41495Y-29825D01*
X41302Y-29745D01*
X41155Y-29597D01*
X41100Y-29464D01*
X41045Y-29598D01*
X40897Y-29745D01*
X40704Y-29825D01*
X40495Y-29825D01*
X40302Y-29745D01*
X40155Y-29597D01*
X40100Y-29464D01*
X40045Y-29598D01*
X39897Y-29745D01*
X39704Y-29825D01*
X39495Y-29825D01*
X39302Y-29745D01*
X39155Y-29597D01*
X39100Y-29464D01*
X39045Y-29598D01*
X38897Y-29745D01*
X38704Y-29825D01*
X38495Y-29825D01*
X38302Y-29745D01*
X38155Y-29597D01*
X38100Y-29464D01*
X38045Y-29598D01*
X37897Y-29745D01*
X37704Y-29825D01*
X37495Y-29825D01*
X37302Y-29745D01*
X37155Y-29597D01*
X37100Y-29464D01*
X37045Y-29598D01*
X36897Y-29745D01*
X36704Y-29825D01*
X36495Y-29825D01*
X36302Y-29745D01*
X36155Y-29597D01*
X36100Y-29464D01*
X36045Y-29598D01*
X35897Y-29745D01*
X35704Y-29825D01*
X35495Y-29825D01*
X35302Y-29745D01*
X35155Y-29597D01*
X35093Y-29448D01*
X35052Y-29567D01*
X34961Y-29590D01*
X34671Y-29300D01*
X34961Y-29010D01*
X35052Y-29033D01*
X35096Y-29142D01*
X35155Y-29002D01*
X35303Y-28855D01*
X35496Y-28775D01*
X35705Y-28775D01*
X35898Y-28855D01*
X36045Y-29003D01*
X36099Y-29135D01*
X36155Y-29002D01*
X36303Y-28855D01*
X36496Y-28775D01*
X36705Y-28775D01*
X36898Y-28855D01*
X37045Y-29003D01*
X37099Y-29135D01*
X37155Y-29002D01*
X37303Y-28855D01*
X37496Y-28775D01*
X37705Y-28775D01*
X37898Y-28855D01*
X38045Y-29003D01*
X38081Y-29089D01*
X38081Y-26799D01*
X37879Y-26715D01*
X37725Y-26561D01*
X37690Y-26476D01*
X37655Y-26561D01*
X37501Y-26715D01*
X37299Y-26799D01*
X37081Y-26799D01*
X36879Y-26715D01*
X36739Y-26575D01*
X36739Y-26600D01*
X36701Y-26691D01*
X36631Y-26761D01*
X36539Y-26799D01*
X35840Y-26799D01*
X35749Y-26761D01*
X35679Y-26691D01*
X35641Y-26599D01*
X35641Y-25900D01*
X35679Y-25809D01*
X35749Y-25739D01*
X35841Y-25701D01*
X35864Y-25701D01*
X35725Y-25561D01*
X35641Y-25359D01*
X35641Y-25141D01*
X35725Y-24939D01*
X35879Y-24785D01*
X36081Y-24701D01*
X36299Y-24701D01*
X36501Y-24785D01*
X36655Y-24939D01*
X36690Y-25023D01*
X36725Y-24939D01*
X36879Y-24785D01*
X37081Y-24701D01*
X37125Y-24701D01*
X37125Y-24605D01*
X36969Y-24540D01*
X36849Y-24420D01*
X36785Y-24264D01*
X36785Y-24095D01*
X36850Y-23939D01*
X36885Y-23904D01*
X36885Y-23866D01*
X36859Y-23856D01*
X36799Y-23796D01*
X36741Y-23856D01*
X36649Y-23894D01*
X36200Y-23894D01*
X36109Y-23856D01*
X36039Y-23786D01*
X36001Y-23694D01*
X36001Y-23670D01*
X35579Y-23670D01*
X35579Y-23705D01*
X35541Y-23796D01*
X35471Y-23866D01*
X35379Y-23904D01*
X34930Y-23904D01*
X34839Y-23866D01*
X34779Y-23806D01*
X34721Y-23866D01*
X34629Y-23904D01*
X34517Y-23905D01*
X34455Y-23843D01*
X34455Y-23430D01*
X34455Y-23330D01*
X34455Y-22917D01*
X34517Y-22855D01*
X34629Y-22856D01*
X34721Y-22894D01*
X34779Y-22952D01*
X34839Y-22894D01*
X34931Y-22856D01*
X35380Y-22856D01*
X35471Y-22894D01*
X35541Y-22964D01*
X35579Y-23056D01*
X35579Y-23090D01*
X36001Y-23090D01*
X36001Y-23045D01*
X36039Y-22954D01*
X36109Y-22884D01*
X36201Y-22846D01*
X36650Y-22846D01*
X36741Y-22884D01*
X36799Y-22942D01*
X36859Y-22884D01*
X36951Y-22846D01*
X37400Y-22846D01*
X37491Y-22884D01*
X37561Y-22954D01*
X37599Y-23046D01*
X37599Y-23695D01*
X37561Y-23786D01*
X37491Y-23856D01*
X37488Y-23857D01*
X37571Y-23940D01*
X37635Y-24096D01*
X37635Y-24265D01*
X37570Y-24421D01*
X37450Y-24541D01*
X37294Y-24605D01*
X37125Y-24605D01*
X37125Y-24701D01*
X37299Y-24701D01*
X37501Y-24785D01*
X37655Y-24939D01*
X37694Y-25034D01*
X37718Y-24969D01*
X37812Y-24942D01*
X38119Y-25250D01*
X37812Y-25558D01*
X37718Y-25531D01*
X37692Y-25469D01*
X37655Y-25561D01*
X37501Y-25715D01*
X37416Y-25750D01*
X37501Y-25785D01*
X37655Y-25939D01*
X37690Y-26023D01*
X37725Y-25939D01*
X37879Y-25785D01*
X37974Y-25745D01*
X37909Y-25722D01*
X37882Y-25628D01*
X38190Y-25321D01*
X38190Y-25179D01*
X37882Y-24872D01*
X37909Y-24778D01*
X38056Y-24718D01*
X38269Y-24707D01*
X38471Y-24778D01*
X38498Y-24872D01*
X38190Y-25179D01*
X38190Y-25321D01*
X38498Y-25628D01*
X38471Y-25722D01*
X38409Y-25747D01*
X38501Y-25785D01*
X38568Y-25852D01*
X38568Y-25558D01*
X38261Y-25250D01*
X38568Y-24942D01*
X38662Y-24969D01*
X38722Y-25116D01*
X38733Y-25329D01*
X38662Y-25531D01*
X38568Y-25558D01*
X38568Y-25852D01*
X38655Y-25939D01*
X38739Y-26141D01*
X38739Y-26359D01*
X38655Y-26561D01*
X38501Y-26715D01*
X38299Y-26799D01*
X38081Y-26799D01*
X38081Y-29089D01*
X38099Y-29135D01*
X38155Y-29002D01*
X38303Y-28855D01*
X38496Y-28775D01*
X38705Y-28775D01*
X38898Y-28855D01*
X39045Y-29003D01*
X39099Y-29135D01*
X39155Y-29002D01*
X39303Y-28855D01*
X39496Y-28775D01*
X39705Y-28775D01*
X39898Y-28855D01*
X40045Y-29003D01*
X40099Y-29135D01*
X40155Y-29002D01*
X40303Y-28855D01*
X40496Y-28775D01*
X40705Y-28775D01*
X40898Y-28855D01*
X41045Y-29003D01*
X41099Y-29135D01*
X41155Y-29002D01*
X41303Y-28855D01*
X41496Y-28775D01*
X41705Y-28775D01*
X41898Y-28855D01*
X42045Y-29003D01*
X42125Y-29196D01*
X42125Y-29405D01*
X42045Y-29598D01*
X41897Y-29745D01*
X41704Y-29825D01*
X41495Y-29825D01*
X41495Y-31775D01*
X41705Y-31775D01*
X41898Y-31855D01*
X42045Y-32003D01*
X42125Y-32196D01*
X42125Y-32405D01*
X42045Y-32598D01*
X41897Y-32745D01*
X41704Y-32825D01*
X41495Y-32825D01*
X41495Y-36180D01*
X43635Y-36180D01*
M02*
