M48
;DRILL file {PCBnew (2010-00-09 BZR 23xx)-stable} date Sun 16 Oct 2011 03:03:18 PM EDT
;FORMAT={-.-/ absolute / inch / decimal}
R,T
VER,1
FMAT,2
INCH,TZ
TCST,OFF
ICI,OFF
ATC,ON
T1C0.025
T2C0.032
T3C0.040
%
M47
G05
M72
T1
X3.288Y-2.373
X3.480Y-2.643
X3.721Y-2.418
T2
X2.860Y-2.930
X2.860Y-3.230
X2.960Y-2.930
X2.960Y-3.230
X3.060Y-2.930
X3.060Y-3.230
X3.160Y-2.930
X3.160Y-3.230
X3.260Y-2.930
X3.260Y-3.230
X3.360Y-2.930
X3.360Y-3.230
X3.460Y-2.930
X3.460Y-3.230
X3.560Y-2.930
X3.560Y-3.230
X3.660Y-2.930
X3.660Y-3.230
X3.760Y-2.930
X3.760Y-3.230
X3.860Y-2.930
X3.860Y-3.230
X3.960Y-2.930
X3.960Y-3.230
X4.060Y-2.930
X4.060Y-3.230
X4.160Y-2.930
X4.160Y-3.230
T3
X3.619Y-2.525
X3.619Y-2.625
X3.719Y-2.525
X3.719Y-2.625
X3.819Y-2.525
X3.819Y-2.625
T0
M30
