G04 (created by PCBNEW-RS274X (2010-00-09 BZR 23xx)-stable) date Sun 16 Oct 2011 03:02:59 PM EDT*
G01*
G70*
G90*
%MOIN*%
G04 Gerber Fmt 3.4, Leading zero omitted, Abs format*
%FSLAX34Y34*%
G04 APERTURE LIST*
%ADD10C,0.006000*%
%ADD11C,0.015000*%
%ADD12C,0.005000*%
%ADD13C,0.010000*%
%ADD14C,0.012000*%
%ADD15C,0.008000*%
%ADD16C,0.011300*%
G04 APERTURE END LIST*
G54D10*
G54D11*
X26060Y-28050D02*
X26060Y-26130D01*
X33490Y-28050D02*
X26060Y-28050D01*
X33490Y-26110D02*
X33490Y-28050D01*
X26090Y-26110D02*
X33490Y-26110D01*
G54D12*
X27636Y-27571D02*
X27636Y-27371D01*
X27712Y-27371D01*
X27731Y-27380D01*
X27740Y-27390D01*
X27750Y-27409D01*
X27750Y-27438D01*
X27740Y-27457D01*
X27731Y-27466D01*
X27712Y-27476D01*
X27636Y-27476D01*
X27836Y-27571D02*
X27836Y-27371D01*
X27883Y-27371D01*
X27912Y-27380D01*
X27931Y-27400D01*
X27940Y-27419D01*
X27950Y-27457D01*
X27950Y-27485D01*
X27940Y-27523D01*
X27931Y-27542D01*
X27912Y-27561D01*
X27883Y-27571D01*
X27836Y-27571D01*
X28036Y-27571D02*
X28036Y-27371D01*
X28131Y-27571D02*
X28131Y-27371D01*
X28207Y-27371D01*
X28226Y-27380D01*
X28235Y-27390D01*
X28245Y-27409D01*
X28245Y-27438D01*
X28235Y-27457D01*
X28226Y-27466D01*
X28207Y-27476D01*
X28131Y-27476D01*
X28331Y-27495D02*
X28483Y-27495D01*
X28607Y-27457D02*
X28588Y-27447D01*
X28579Y-27438D01*
X28569Y-27419D01*
X28569Y-27409D01*
X28579Y-27390D01*
X28588Y-27380D01*
X28607Y-27371D01*
X28645Y-27371D01*
X28664Y-27380D01*
X28674Y-27390D01*
X28683Y-27409D01*
X28683Y-27419D01*
X28674Y-27438D01*
X28664Y-27447D01*
X28645Y-27457D01*
X28607Y-27457D01*
X28588Y-27466D01*
X28579Y-27476D01*
X28569Y-27495D01*
X28569Y-27533D01*
X28579Y-27552D01*
X28588Y-27561D01*
X28607Y-27571D01*
X28645Y-27571D01*
X28664Y-27561D01*
X28674Y-27552D01*
X28683Y-27533D01*
X28683Y-27495D01*
X28674Y-27476D01*
X28664Y-27466D01*
X28645Y-27457D01*
X28978Y-27638D02*
X28930Y-27638D01*
X28930Y-27352D01*
X28978Y-27352D01*
X29054Y-27571D02*
X29054Y-27371D01*
X29130Y-27371D01*
X29149Y-27380D01*
X29158Y-27390D01*
X29168Y-27409D01*
X29168Y-27438D01*
X29158Y-27457D01*
X29149Y-27466D01*
X29130Y-27476D01*
X29054Y-27476D01*
X29358Y-27571D02*
X29244Y-27571D01*
X29301Y-27571D02*
X29301Y-27371D01*
X29282Y-27400D01*
X29263Y-27419D01*
X29244Y-27428D01*
X29425Y-27638D02*
X29472Y-27638D01*
X29472Y-27352D01*
X29425Y-27352D01*
X29729Y-27495D02*
X29881Y-27495D01*
X29977Y-27495D02*
X30129Y-27495D01*
X30358Y-27371D02*
X30491Y-27371D01*
X30358Y-27571D01*
X30491Y-27571D01*
X30567Y-27571D02*
X30567Y-27371D01*
X30728Y-27466D02*
X30662Y-27466D01*
X30662Y-27571D02*
X30662Y-27371D01*
X30757Y-27371D01*
X31042Y-27638D02*
X30994Y-27638D01*
X30994Y-27352D01*
X31042Y-27352D01*
X31118Y-27571D02*
X31118Y-27371D01*
X31194Y-27371D01*
X31213Y-27380D01*
X31222Y-27390D01*
X31232Y-27409D01*
X31232Y-27438D01*
X31222Y-27457D01*
X31213Y-27466D01*
X31194Y-27476D01*
X31118Y-27476D01*
X31327Y-27571D02*
X31365Y-27571D01*
X31384Y-27561D01*
X31394Y-27552D01*
X31413Y-27523D01*
X31422Y-27485D01*
X31422Y-27409D01*
X31413Y-27390D01*
X31403Y-27380D01*
X31384Y-27371D01*
X31346Y-27371D01*
X31327Y-27380D01*
X31318Y-27390D01*
X31308Y-27409D01*
X31308Y-27457D01*
X31318Y-27476D01*
X31327Y-27485D01*
X31346Y-27495D01*
X31384Y-27495D01*
X31403Y-27485D01*
X31413Y-27476D01*
X31422Y-27457D01*
X31489Y-27638D02*
X31536Y-27638D01*
X31536Y-27352D01*
X31489Y-27352D01*
G54D13*
X26392Y-26881D02*
X26630Y-26881D01*
X26345Y-27053D02*
X26511Y-26453D01*
X26678Y-27053D01*
X26774Y-26453D02*
X26940Y-27053D01*
X27107Y-26453D01*
X27560Y-27053D02*
X27393Y-26767D01*
X27274Y-27053D02*
X27274Y-26453D01*
X27465Y-26453D01*
X27512Y-26481D01*
X27536Y-26510D01*
X27560Y-26567D01*
X27560Y-26653D01*
X27536Y-26710D01*
X27512Y-26739D01*
X27465Y-26767D01*
X27274Y-26767D01*
X28155Y-27053D02*
X28155Y-26453D01*
X28346Y-26453D01*
X28393Y-26481D01*
X28417Y-26510D01*
X28441Y-26567D01*
X28441Y-26653D01*
X28417Y-26710D01*
X28393Y-26739D01*
X28346Y-26767D01*
X28155Y-26767D01*
X28941Y-27053D02*
X28774Y-26767D01*
X28655Y-27053D02*
X28655Y-26453D01*
X28846Y-26453D01*
X28893Y-26481D01*
X28917Y-26510D01*
X28941Y-26567D01*
X28941Y-26653D01*
X28917Y-26710D01*
X28893Y-26739D01*
X28846Y-26767D01*
X28655Y-26767D01*
X29250Y-26453D02*
X29346Y-26453D01*
X29393Y-26481D01*
X29441Y-26539D01*
X29465Y-26653D01*
X29465Y-26853D01*
X29441Y-26967D01*
X29393Y-27024D01*
X29346Y-27053D01*
X29250Y-27053D01*
X29203Y-27024D01*
X29155Y-26967D01*
X29131Y-26853D01*
X29131Y-26653D01*
X29155Y-26539D01*
X29203Y-26481D01*
X29250Y-26453D01*
X29941Y-26481D02*
X29893Y-26453D01*
X29822Y-26453D01*
X29750Y-26481D01*
X29703Y-26539D01*
X29679Y-26596D01*
X29655Y-26710D01*
X29655Y-26796D01*
X29679Y-26910D01*
X29703Y-26967D01*
X29750Y-27024D01*
X29822Y-27053D01*
X29870Y-27053D01*
X29941Y-27024D01*
X29965Y-26996D01*
X29965Y-26796D01*
X29870Y-26796D01*
X30465Y-27053D02*
X30298Y-26767D01*
X30179Y-27053D02*
X30179Y-26453D01*
X30370Y-26453D01*
X30417Y-26481D01*
X30441Y-26510D01*
X30465Y-26567D01*
X30465Y-26653D01*
X30441Y-26710D01*
X30417Y-26739D01*
X30370Y-26767D01*
X30179Y-26767D01*
X30655Y-26881D02*
X30893Y-26881D01*
X30608Y-27053D02*
X30774Y-26453D01*
X30941Y-27053D01*
X31108Y-27053D02*
X31108Y-26453D01*
X31275Y-26881D01*
X31441Y-26453D01*
X31441Y-27053D01*
X31679Y-27053D02*
X31679Y-26453D01*
X31846Y-26881D01*
X32012Y-26453D01*
X32012Y-27053D01*
X32250Y-26739D02*
X32417Y-26739D01*
X32488Y-27053D02*
X32250Y-27053D01*
X32250Y-26453D01*
X32488Y-26453D01*
X32988Y-27053D02*
X32821Y-26767D01*
X32702Y-27053D02*
X32702Y-26453D01*
X32893Y-26453D01*
X32940Y-26481D01*
X32964Y-26510D01*
X32988Y-26567D01*
X32988Y-26653D01*
X32964Y-26710D01*
X32940Y-26739D01*
X32893Y-26767D01*
X32702Y-26767D01*
G54D14*
X35232Y-27794D02*
X34889Y-27794D01*
X35061Y-27794D02*
X35061Y-26994D01*
X35004Y-27108D01*
X34946Y-27184D01*
X34889Y-27222D01*
G54D11*
X25260Y-21640D02*
X25270Y-21640D01*
X25260Y-36610D02*
X25260Y-21640D01*
X43910Y-36610D02*
X25260Y-36610D01*
X43910Y-21630D02*
X43910Y-36610D01*
X25280Y-21630D02*
X43910Y-21630D01*
X27600Y-29800D02*
X42600Y-29800D01*
X42600Y-29800D02*
X42600Y-31800D01*
X42600Y-31800D02*
X27600Y-31800D01*
X27600Y-31800D02*
X27600Y-29800D01*
X27600Y-30300D02*
X28100Y-30300D01*
X28100Y-30300D02*
X28100Y-31300D01*
X28100Y-31300D02*
X27600Y-31300D01*
G54D15*
X38690Y-26750D02*
X35690Y-26750D01*
X35690Y-24750D02*
X38690Y-24750D01*
X38690Y-24750D02*
X38690Y-26750D01*
X35690Y-26750D02*
X35690Y-24750D01*
G54D12*
X35300Y-24880D02*
X35299Y-24889D01*
X35296Y-24899D01*
X35291Y-24907D01*
X35285Y-24915D01*
X35277Y-24921D01*
X35269Y-24926D01*
X35260Y-24928D01*
X35250Y-24929D01*
X35241Y-24929D01*
X35232Y-24926D01*
X35223Y-24921D01*
X35216Y-24915D01*
X35209Y-24908D01*
X35205Y-24899D01*
X35202Y-24890D01*
X35201Y-24880D01*
X35201Y-24871D01*
X35204Y-24862D01*
X35208Y-24853D01*
X35215Y-24846D01*
X35222Y-24839D01*
X35230Y-24835D01*
X35240Y-24832D01*
X35249Y-24831D01*
X35258Y-24831D01*
X35268Y-24834D01*
X35276Y-24838D01*
X35284Y-24844D01*
X35290Y-24852D01*
X35295Y-24860D01*
X35298Y-24869D01*
X35299Y-24879D01*
X35300Y-24880D01*
X34800Y-24880D02*
X35200Y-24880D01*
X35200Y-24880D02*
X35200Y-25480D01*
X35200Y-25480D02*
X34800Y-25480D01*
X34400Y-25480D02*
X34000Y-25480D01*
X34000Y-25480D02*
X34000Y-24880D01*
X34000Y-24880D02*
X34400Y-24880D01*
X37500Y-23070D02*
X37499Y-23079D01*
X37496Y-23089D01*
X37491Y-23097D01*
X37485Y-23105D01*
X37477Y-23111D01*
X37469Y-23116D01*
X37460Y-23118D01*
X37450Y-23119D01*
X37441Y-23119D01*
X37432Y-23116D01*
X37423Y-23111D01*
X37416Y-23105D01*
X37409Y-23098D01*
X37405Y-23089D01*
X37402Y-23080D01*
X37401Y-23070D01*
X37401Y-23061D01*
X37404Y-23052D01*
X37408Y-23043D01*
X37415Y-23036D01*
X37422Y-23029D01*
X37430Y-23025D01*
X37440Y-23022D01*
X37449Y-23021D01*
X37458Y-23021D01*
X37468Y-23024D01*
X37476Y-23028D01*
X37484Y-23034D01*
X37490Y-23042D01*
X37495Y-23050D01*
X37498Y-23059D01*
X37499Y-23069D01*
X37500Y-23070D01*
X37000Y-23070D02*
X37400Y-23070D01*
X37400Y-23070D02*
X37400Y-23670D01*
X37400Y-23670D02*
X37000Y-23670D01*
X36600Y-23670D02*
X36200Y-23670D01*
X36200Y-23670D02*
X36200Y-23070D01*
X36200Y-23070D02*
X36600Y-23070D01*
X33590Y-24870D02*
X33589Y-24879D01*
X33586Y-24889D01*
X33581Y-24897D01*
X33575Y-24905D01*
X33567Y-24911D01*
X33559Y-24916D01*
X33550Y-24918D01*
X33540Y-24919D01*
X33531Y-24919D01*
X33522Y-24916D01*
X33513Y-24911D01*
X33506Y-24905D01*
X33499Y-24898D01*
X33495Y-24889D01*
X33492Y-24880D01*
X33491Y-24870D01*
X33491Y-24861D01*
X33494Y-24852D01*
X33498Y-24843D01*
X33505Y-24836D01*
X33512Y-24829D01*
X33520Y-24825D01*
X33530Y-24822D01*
X33539Y-24821D01*
X33548Y-24821D01*
X33558Y-24824D01*
X33566Y-24828D01*
X33574Y-24834D01*
X33580Y-24842D01*
X33585Y-24850D01*
X33588Y-24859D01*
X33589Y-24869D01*
X33590Y-24870D01*
X33090Y-24870D02*
X33490Y-24870D01*
X33490Y-24870D02*
X33490Y-25470D01*
X33490Y-25470D02*
X33090Y-25470D01*
X32690Y-25470D02*
X32290Y-25470D01*
X32290Y-25470D02*
X32290Y-24870D01*
X32290Y-24870D02*
X32690Y-24870D01*
X35480Y-23080D02*
X35479Y-23089D01*
X35476Y-23099D01*
X35471Y-23107D01*
X35465Y-23115D01*
X35457Y-23121D01*
X35449Y-23126D01*
X35440Y-23128D01*
X35430Y-23129D01*
X35421Y-23129D01*
X35412Y-23126D01*
X35403Y-23121D01*
X35396Y-23115D01*
X35389Y-23108D01*
X35385Y-23099D01*
X35382Y-23090D01*
X35381Y-23080D01*
X35381Y-23071D01*
X35384Y-23062D01*
X35388Y-23053D01*
X35395Y-23046D01*
X35402Y-23039D01*
X35410Y-23035D01*
X35420Y-23032D01*
X35429Y-23031D01*
X35438Y-23031D01*
X35448Y-23034D01*
X35456Y-23038D01*
X35464Y-23044D01*
X35470Y-23052D01*
X35475Y-23060D01*
X35478Y-23069D01*
X35479Y-23079D01*
X35480Y-23080D01*
X34980Y-23080D02*
X35380Y-23080D01*
X35380Y-23080D02*
X35380Y-23680D01*
X35380Y-23680D02*
X34980Y-23680D01*
X34580Y-23680D02*
X34180Y-23680D01*
X34180Y-23680D02*
X34180Y-23080D01*
X34180Y-23080D02*
X34580Y-23080D01*
G54D16*
X30161Y-31043D02*
X30161Y-30443D01*
X30632Y-30986D02*
X30611Y-31014D01*
X30547Y-31043D01*
X30504Y-31043D01*
X30439Y-31014D01*
X30397Y-30957D01*
X30375Y-30900D01*
X30354Y-30786D01*
X30354Y-30700D01*
X30375Y-30586D01*
X30397Y-30529D01*
X30439Y-30471D01*
X30504Y-30443D01*
X30547Y-30443D01*
X30611Y-30471D01*
X30632Y-30500D01*
X31061Y-31043D02*
X30804Y-31043D01*
X30932Y-31043D02*
X30932Y-30443D01*
X30889Y-30529D01*
X30847Y-30586D01*
X30804Y-30614D01*
X37225Y-30871D02*
X37439Y-30871D01*
X37182Y-31043D02*
X37332Y-30443D01*
X37482Y-31043D01*
X37568Y-30443D02*
X37825Y-30443D01*
X37696Y-31043D02*
X37696Y-30443D01*
X37975Y-31043D02*
X37975Y-30443D01*
X38125Y-30871D01*
X38275Y-30443D01*
X38275Y-31043D01*
X38489Y-30729D02*
X38639Y-30729D01*
X38703Y-31043D02*
X38489Y-31043D01*
X38489Y-30443D01*
X38703Y-30443D01*
X39132Y-30471D02*
X39089Y-30443D01*
X39025Y-30443D01*
X38960Y-30471D01*
X38918Y-30529D01*
X38896Y-30586D01*
X38875Y-30700D01*
X38875Y-30786D01*
X38896Y-30900D01*
X38918Y-30957D01*
X38960Y-31014D01*
X39025Y-31043D01*
X39068Y-31043D01*
X39132Y-31014D01*
X39153Y-30986D01*
X39153Y-30786D01*
X39068Y-30786D01*
X39325Y-30871D02*
X39539Y-30871D01*
X39282Y-31043D02*
X39432Y-30443D01*
X39582Y-31043D01*
X39796Y-30700D02*
X39754Y-30671D01*
X39732Y-30643D01*
X39711Y-30586D01*
X39711Y-30557D01*
X39732Y-30500D01*
X39754Y-30471D01*
X39796Y-30443D01*
X39882Y-30443D01*
X39925Y-30471D01*
X39946Y-30500D01*
X39968Y-30557D01*
X39968Y-30586D01*
X39946Y-30643D01*
X39925Y-30671D01*
X39882Y-30700D01*
X39796Y-30700D01*
X39754Y-30729D01*
X39732Y-30757D01*
X39711Y-30814D01*
X39711Y-30929D01*
X39732Y-30986D01*
X39754Y-31014D01*
X39796Y-31043D01*
X39882Y-31043D01*
X39925Y-31014D01*
X39946Y-30986D01*
X39968Y-30929D01*
X39968Y-30814D01*
X39946Y-30757D01*
X39925Y-30729D01*
X39882Y-30700D01*
X40161Y-30814D02*
X40504Y-30814D01*
X40718Y-31043D02*
X40718Y-30443D01*
X40890Y-30443D01*
X40932Y-30471D01*
X40954Y-30500D01*
X40975Y-30557D01*
X40975Y-30643D01*
X40954Y-30700D01*
X40932Y-30729D01*
X40890Y-30757D01*
X40718Y-30757D01*
G54D15*
X37057Y-24012D02*
X37057Y-24298D01*
X37037Y-24355D01*
X36999Y-24393D01*
X36942Y-24412D01*
X36904Y-24412D01*
X37457Y-24412D02*
X37228Y-24412D01*
X37342Y-24412D02*
X37342Y-24012D01*
X37304Y-24069D01*
X37266Y-24107D01*
X37228Y-24126D01*
G54D12*
X34168Y-24741D02*
X34085Y-24622D01*
X34026Y-24741D02*
X34026Y-24491D01*
X34121Y-24491D01*
X34145Y-24503D01*
X34156Y-24515D01*
X34168Y-24539D01*
X34168Y-24575D01*
X34156Y-24598D01*
X34145Y-24610D01*
X34121Y-24622D01*
X34026Y-24622D01*
X34264Y-24515D02*
X34276Y-24503D01*
X34299Y-24491D01*
X34359Y-24491D01*
X34383Y-24503D01*
X34395Y-24515D01*
X34406Y-24539D01*
X34406Y-24563D01*
X34395Y-24598D01*
X34252Y-24741D01*
X34406Y-24741D01*
X36788Y-22801D02*
X36705Y-22682D01*
X36646Y-22801D02*
X36646Y-22551D01*
X36741Y-22551D01*
X36765Y-22563D01*
X36776Y-22575D01*
X36788Y-22599D01*
X36788Y-22635D01*
X36776Y-22658D01*
X36765Y-22670D01*
X36741Y-22682D01*
X36646Y-22682D01*
X37026Y-22801D02*
X36884Y-22801D01*
X36955Y-22801D02*
X36955Y-22551D01*
X36931Y-22587D01*
X36907Y-22611D01*
X36884Y-22623D01*
X32266Y-24531D02*
X32266Y-24281D01*
X32325Y-24281D01*
X32361Y-24293D01*
X32385Y-24317D01*
X32396Y-24341D01*
X32408Y-24388D01*
X32408Y-24424D01*
X32396Y-24472D01*
X32385Y-24495D01*
X32361Y-24519D01*
X32325Y-24531D01*
X32266Y-24531D01*
X32504Y-24305D02*
X32516Y-24293D01*
X32539Y-24281D01*
X32599Y-24281D01*
X32623Y-24293D01*
X32635Y-24305D01*
X32646Y-24329D01*
X32646Y-24353D01*
X32635Y-24388D01*
X32492Y-24531D01*
X32646Y-24531D01*
X34326Y-22781D02*
X34326Y-22531D01*
X34385Y-22531D01*
X34421Y-22543D01*
X34445Y-22567D01*
X34456Y-22591D01*
X34468Y-22638D01*
X34468Y-22674D01*
X34456Y-22722D01*
X34445Y-22745D01*
X34421Y-22769D01*
X34385Y-22781D01*
X34326Y-22781D01*
X34706Y-22781D02*
X34564Y-22781D01*
X34635Y-22781D02*
X34635Y-22531D01*
X34611Y-22567D01*
X34587Y-22591D01*
X34564Y-22603D01*
M02*
