G04 (created by PCBNEW-RS274X (2012-01-18 BZR 3371)-testing) date Sat 16 Jun 2012 05:28:33 AM EDT*
G01*
G70*
G90*
%MOIN*%
G04 Gerber Fmt 3.4, Leading zero omitted, Abs format*
%FSLAX34Y34*%
G04 APERTURE LIST*
%ADD10C,0.006000*%
%ADD11R,0.035000X0.055000*%
%ADD12R,0.055000X0.035000*%
%ADD13R,0.060000X0.060000*%
%ADD14C,0.060000*%
%ADD15R,0.216500X0.059100*%
%ADD16C,0.157500*%
%ADD17R,0.047200X0.047200*%
%ADD18R,0.072000X0.072000*%
%ADD19C,0.072000*%
%ADD20C,0.008000*%
%ADD21C,0.010000*%
G04 APERTURE END LIST*
G54D10*
G54D11*
X39785Y-29310D03*
X40535Y-29310D03*
G54D12*
X51560Y-34705D03*
X51560Y-33955D03*
X39310Y-34165D03*
X39310Y-33415D03*
X34980Y-35532D03*
X34980Y-34782D03*
G54D13*
X61130Y-27732D03*
G54D14*
X60130Y-27732D03*
X61130Y-26732D03*
X60130Y-26732D03*
X61130Y-25732D03*
X60130Y-25732D03*
G54D13*
X48477Y-34722D03*
G54D14*
X49477Y-34722D03*
G54D15*
X42088Y-34690D03*
X45632Y-34690D03*
G54D12*
X56281Y-35524D03*
X56281Y-34774D03*
G54D16*
X28150Y-32874D03*
X28150Y-34724D03*
G54D17*
X56281Y-33652D03*
X56281Y-32826D03*
G54D18*
X36350Y-26450D03*
G54D19*
X37350Y-20450D03*
X36350Y-20450D03*
X38350Y-20450D03*
X55350Y-20450D03*
X54350Y-20450D03*
X53350Y-20450D03*
X52350Y-20450D03*
X51350Y-20450D03*
X50350Y-20450D03*
X49350Y-20450D03*
X48350Y-20450D03*
X47350Y-20450D03*
X46350Y-20450D03*
X45350Y-20450D03*
X44350Y-20450D03*
X43350Y-20450D03*
X41350Y-20450D03*
X42350Y-20450D03*
X40350Y-20450D03*
X39350Y-20450D03*
X55350Y-26450D03*
X37350Y-26450D03*
X38350Y-26450D03*
X39350Y-26450D03*
X40350Y-26450D03*
X41350Y-26450D03*
X42350Y-26450D03*
X43350Y-26450D03*
X44350Y-26450D03*
X45350Y-26450D03*
X46350Y-26450D03*
X47350Y-26450D03*
X48350Y-26450D03*
X49350Y-26450D03*
X50350Y-26450D03*
X51350Y-26450D03*
X52350Y-26450D03*
X53350Y-26450D03*
X54350Y-26450D03*
G54D17*
X27826Y-25310D03*
X27826Y-24484D03*
G54D12*
X27826Y-27012D03*
X27826Y-26262D03*
G54D17*
X35020Y-33681D03*
X35020Y-32855D03*
G54D20*
X51560Y-34705D02*
X51560Y-34387D01*
X46890Y-34722D02*
X48477Y-34722D01*
X46858Y-34690D02*
X46890Y-34722D01*
X51452Y-34279D02*
X51560Y-34387D01*
X48942Y-34279D02*
X51452Y-34279D01*
X48920Y-34301D02*
X48942Y-34279D01*
X48920Y-34722D02*
X48920Y-34301D01*
X48477Y-34722D02*
X48920Y-34722D01*
X45632Y-34690D02*
X46858Y-34690D01*
X39310Y-34165D02*
X39310Y-34006D01*
X40179Y-34006D02*
X40863Y-34690D01*
X39310Y-34006D02*
X40179Y-34006D01*
X45350Y-26450D02*
X45350Y-28835D01*
X45350Y-28835D02*
X40179Y-34006D01*
X42088Y-34690D02*
X40863Y-34690D01*
X52726Y-32826D02*
X56281Y-32826D01*
X46350Y-26450D02*
X52726Y-32826D01*
X61573Y-24655D02*
X61573Y-27267D01*
X48694Y-22794D02*
X59712Y-22794D01*
X46350Y-20450D02*
X48694Y-22794D01*
X61130Y-27732D02*
X61130Y-27289D01*
X59712Y-22794D02*
X61573Y-24655D01*
X61551Y-27289D02*
X61130Y-27289D01*
X61573Y-27267D02*
X61551Y-27289D01*
X51928Y-35532D02*
X34980Y-35532D01*
X54221Y-33239D02*
X51928Y-35532D01*
X56574Y-33239D02*
X54221Y-33239D01*
X59206Y-30607D02*
X56574Y-33239D01*
X59206Y-27656D02*
X59206Y-30607D01*
X60130Y-26732D02*
X59206Y-27656D01*
X60630Y-26232D02*
X61130Y-26732D01*
X55910Y-26232D02*
X60630Y-26232D01*
X53772Y-24094D02*
X55910Y-26232D01*
X48994Y-24094D02*
X53772Y-24094D01*
X45350Y-20450D02*
X48994Y-24094D01*
X40535Y-29310D02*
X40853Y-29310D01*
X39553Y-35129D02*
X43315Y-35129D01*
X38886Y-34462D02*
X39553Y-35129D01*
X38886Y-33839D02*
X38886Y-34462D01*
X40535Y-31872D02*
X39310Y-33097D01*
X40535Y-29310D02*
X40535Y-31872D01*
X39310Y-33415D02*
X39310Y-33097D01*
X43350Y-26813D02*
X40853Y-29310D01*
X43350Y-26450D02*
X43350Y-26813D01*
X44489Y-33955D02*
X51560Y-33955D01*
X43315Y-35129D02*
X44489Y-33955D01*
X27826Y-24484D02*
X28205Y-24484D01*
X35020Y-31299D02*
X28205Y-24484D01*
X35020Y-32855D02*
X35020Y-31299D01*
X39310Y-33415D02*
X39310Y-33733D01*
X37902Y-32855D02*
X35020Y-32855D01*
X38886Y-33839D02*
X37902Y-32855D01*
X38992Y-33733D02*
X38886Y-33839D01*
X39310Y-33733D02*
X38992Y-33733D01*
X27826Y-25310D02*
X27826Y-26262D01*
X34980Y-34100D02*
X34980Y-34782D01*
X35020Y-34060D02*
X34980Y-34100D01*
X35020Y-33681D02*
X35020Y-34060D01*
X56281Y-33652D02*
X56281Y-34774D01*
G54D10*
G36*
X62548Y-36958D02*
X61863Y-36958D01*
X61863Y-27267D01*
X61863Y-24655D01*
X61862Y-24654D01*
X61841Y-24544D01*
X61840Y-24543D01*
X61778Y-24450D01*
X61777Y-24449D01*
X59917Y-22589D01*
X59823Y-22526D01*
X59712Y-22504D01*
X48814Y-22504D01*
X47369Y-21059D01*
X47471Y-21059D01*
X47695Y-20966D01*
X47850Y-20811D01*
X48005Y-20966D01*
X48229Y-21059D01*
X48471Y-21059D01*
X48695Y-20966D01*
X48850Y-20811D01*
X49005Y-20966D01*
X49229Y-21059D01*
X49471Y-21059D01*
X49695Y-20966D01*
X49850Y-20811D01*
X50005Y-20966D01*
X50229Y-21059D01*
X50471Y-21059D01*
X50695Y-20966D01*
X50850Y-20811D01*
X51005Y-20966D01*
X51229Y-21059D01*
X51471Y-21059D01*
X51695Y-20966D01*
X51850Y-20811D01*
X52005Y-20966D01*
X52229Y-21059D01*
X52471Y-21059D01*
X52695Y-20966D01*
X52850Y-20811D01*
X53005Y-20966D01*
X53229Y-21059D01*
X53471Y-21059D01*
X53695Y-20966D01*
X53850Y-20811D01*
X54005Y-20966D01*
X54229Y-21059D01*
X54471Y-21059D01*
X54695Y-20966D01*
X54850Y-20811D01*
X55005Y-20966D01*
X55229Y-21059D01*
X55471Y-21059D01*
X55695Y-20966D01*
X55866Y-20795D01*
X55959Y-20571D01*
X55959Y-20329D01*
X55866Y-20105D01*
X55695Y-19934D01*
X55471Y-19841D01*
X55229Y-19841D01*
X55005Y-19934D01*
X54850Y-20089D01*
X54695Y-19934D01*
X54471Y-19841D01*
X54229Y-19841D01*
X54005Y-19934D01*
X53850Y-20089D01*
X53695Y-19934D01*
X53471Y-19841D01*
X53229Y-19841D01*
X53005Y-19934D01*
X52850Y-20089D01*
X52695Y-19934D01*
X52471Y-19841D01*
X52229Y-19841D01*
X52005Y-19934D01*
X51850Y-20089D01*
X51695Y-19934D01*
X51471Y-19841D01*
X51229Y-19841D01*
X51005Y-19934D01*
X50850Y-20089D01*
X50695Y-19934D01*
X50471Y-19841D01*
X50229Y-19841D01*
X50005Y-19934D01*
X49850Y-20089D01*
X49695Y-19934D01*
X49471Y-19841D01*
X49229Y-19841D01*
X49005Y-19934D01*
X48850Y-20089D01*
X48695Y-19934D01*
X48471Y-19841D01*
X48229Y-19841D01*
X48005Y-19934D01*
X47850Y-20089D01*
X47695Y-19934D01*
X47471Y-19841D01*
X47229Y-19841D01*
X47005Y-19934D01*
X46850Y-20089D01*
X46695Y-19934D01*
X46471Y-19841D01*
X46229Y-19841D01*
X46005Y-19934D01*
X45850Y-20089D01*
X45695Y-19934D01*
X45471Y-19841D01*
X45229Y-19841D01*
X45005Y-19934D01*
X44834Y-20105D01*
X44831Y-20110D01*
X44779Y-20092D01*
X44708Y-20163D01*
X44708Y-20021D01*
X44673Y-19920D01*
X44445Y-19837D01*
X44204Y-19847D01*
X44027Y-19920D01*
X43992Y-20021D01*
X44350Y-20379D01*
X44708Y-20021D01*
X44708Y-20163D01*
X44421Y-20450D01*
X44779Y-20808D01*
X44831Y-20789D01*
X44834Y-20795D01*
X45005Y-20966D01*
X45229Y-21059D01*
X45471Y-21059D01*
X45526Y-21036D01*
X48789Y-24299D01*
X48883Y-24362D01*
X48994Y-24384D01*
X53652Y-24384D01*
X55144Y-25876D01*
X55005Y-25934D01*
X54850Y-26089D01*
X54695Y-25934D01*
X54471Y-25841D01*
X54229Y-25841D01*
X54005Y-25934D01*
X53850Y-26089D01*
X53695Y-25934D01*
X53471Y-25841D01*
X53229Y-25841D01*
X53005Y-25934D01*
X52850Y-26089D01*
X52695Y-25934D01*
X52471Y-25841D01*
X52229Y-25841D01*
X52005Y-25934D01*
X51850Y-26089D01*
X51695Y-25934D01*
X51471Y-25841D01*
X51229Y-25841D01*
X51005Y-25934D01*
X50850Y-26089D01*
X50695Y-25934D01*
X50471Y-25841D01*
X50229Y-25841D01*
X50005Y-25934D01*
X49850Y-26089D01*
X49695Y-25934D01*
X49471Y-25841D01*
X49229Y-25841D01*
X49005Y-25934D01*
X48850Y-26089D01*
X48695Y-25934D01*
X48471Y-25841D01*
X48229Y-25841D01*
X48005Y-25934D01*
X47850Y-26089D01*
X47695Y-25934D01*
X47471Y-25841D01*
X47229Y-25841D01*
X47005Y-25934D01*
X46850Y-26089D01*
X46695Y-25934D01*
X46471Y-25841D01*
X46229Y-25841D01*
X46005Y-25934D01*
X45850Y-26089D01*
X45695Y-25934D01*
X45471Y-25841D01*
X45229Y-25841D01*
X45005Y-25934D01*
X44850Y-26089D01*
X44708Y-25947D01*
X44708Y-20879D01*
X44350Y-20521D01*
X44279Y-20592D01*
X44279Y-20450D01*
X43921Y-20092D01*
X43850Y-20116D01*
X43779Y-20092D01*
X43708Y-20163D01*
X43708Y-20021D01*
X43673Y-19920D01*
X43445Y-19837D01*
X43204Y-19847D01*
X43027Y-19920D01*
X42992Y-20021D01*
X43350Y-20379D01*
X43708Y-20021D01*
X43708Y-20163D01*
X43421Y-20450D01*
X43779Y-20808D01*
X43850Y-20783D01*
X43921Y-20808D01*
X44279Y-20450D01*
X44279Y-20592D01*
X43992Y-20879D01*
X44027Y-20980D01*
X44255Y-21063D01*
X44496Y-21053D01*
X44673Y-20980D01*
X44708Y-20879D01*
X44708Y-25947D01*
X44695Y-25934D01*
X44471Y-25841D01*
X44229Y-25841D01*
X44005Y-25934D01*
X43850Y-26089D01*
X43708Y-25947D01*
X43708Y-20879D01*
X43350Y-20521D01*
X43279Y-20592D01*
X43279Y-20450D01*
X42921Y-20092D01*
X42868Y-20110D01*
X42866Y-20105D01*
X42695Y-19934D01*
X42471Y-19841D01*
X42229Y-19841D01*
X42005Y-19934D01*
X41850Y-20089D01*
X41695Y-19934D01*
X41471Y-19841D01*
X41229Y-19841D01*
X41005Y-19934D01*
X40850Y-20089D01*
X40695Y-19934D01*
X40471Y-19841D01*
X40229Y-19841D01*
X40005Y-19934D01*
X39850Y-20089D01*
X39695Y-19934D01*
X39471Y-19841D01*
X39229Y-19841D01*
X39005Y-19934D01*
X38850Y-20089D01*
X38695Y-19934D01*
X38471Y-19841D01*
X38229Y-19841D01*
X38005Y-19934D01*
X37850Y-20089D01*
X37695Y-19934D01*
X37471Y-19841D01*
X37229Y-19841D01*
X37005Y-19934D01*
X36850Y-20089D01*
X36695Y-19934D01*
X36471Y-19841D01*
X36229Y-19841D01*
X36005Y-19934D01*
X35834Y-20105D01*
X35741Y-20329D01*
X35741Y-20571D01*
X35834Y-20795D01*
X36005Y-20966D01*
X36229Y-21059D01*
X36471Y-21059D01*
X36695Y-20966D01*
X36850Y-20811D01*
X37005Y-20966D01*
X37229Y-21059D01*
X37471Y-21059D01*
X37695Y-20966D01*
X37850Y-20811D01*
X38005Y-20966D01*
X38229Y-21059D01*
X38471Y-21059D01*
X38695Y-20966D01*
X38850Y-20811D01*
X39005Y-20966D01*
X39229Y-21059D01*
X39471Y-21059D01*
X39695Y-20966D01*
X39850Y-20811D01*
X40005Y-20966D01*
X40229Y-21059D01*
X40471Y-21059D01*
X40695Y-20966D01*
X40850Y-20811D01*
X41005Y-20966D01*
X41229Y-21059D01*
X41471Y-21059D01*
X41695Y-20966D01*
X41850Y-20811D01*
X42005Y-20966D01*
X42229Y-21059D01*
X42471Y-21059D01*
X42695Y-20966D01*
X42866Y-20795D01*
X42868Y-20789D01*
X42921Y-20808D01*
X43279Y-20450D01*
X43279Y-20592D01*
X42992Y-20879D01*
X43027Y-20980D01*
X43255Y-21063D01*
X43496Y-21053D01*
X43673Y-20980D01*
X43708Y-20879D01*
X43708Y-25947D01*
X43695Y-25934D01*
X43471Y-25841D01*
X43229Y-25841D01*
X43005Y-25934D01*
X42834Y-26105D01*
X42831Y-26110D01*
X42779Y-26092D01*
X42708Y-26163D01*
X42708Y-26021D01*
X42673Y-25920D01*
X42445Y-25837D01*
X42204Y-25847D01*
X42027Y-25920D01*
X41992Y-26021D01*
X42350Y-26379D01*
X42708Y-26021D01*
X42708Y-26163D01*
X42421Y-26450D01*
X42779Y-26808D01*
X42831Y-26789D01*
X42834Y-26795D01*
X42896Y-26857D01*
X42708Y-27045D01*
X42708Y-26879D01*
X42350Y-26521D01*
X42279Y-26592D01*
X42279Y-26450D01*
X41921Y-26092D01*
X41868Y-26110D01*
X41866Y-26105D01*
X41695Y-25934D01*
X41471Y-25841D01*
X41229Y-25841D01*
X41005Y-25934D01*
X40850Y-26089D01*
X40695Y-25934D01*
X40471Y-25841D01*
X40229Y-25841D01*
X40005Y-25934D01*
X39850Y-26089D01*
X39695Y-25934D01*
X39471Y-25841D01*
X39229Y-25841D01*
X39005Y-25934D01*
X38850Y-26089D01*
X38695Y-25934D01*
X38471Y-25841D01*
X38229Y-25841D01*
X38005Y-25934D01*
X37850Y-26089D01*
X37695Y-25934D01*
X37471Y-25841D01*
X37229Y-25841D01*
X37005Y-25934D01*
X36941Y-25997D01*
X36921Y-25949D01*
X36851Y-25879D01*
X36760Y-25841D01*
X36661Y-25841D01*
X35941Y-25841D01*
X35849Y-25879D01*
X35779Y-25949D01*
X35741Y-26040D01*
X35741Y-26139D01*
X35741Y-26859D01*
X35779Y-26951D01*
X35849Y-27021D01*
X35940Y-27059D01*
X36039Y-27059D01*
X36759Y-27059D01*
X36851Y-27021D01*
X36921Y-26951D01*
X36941Y-26902D01*
X37005Y-26966D01*
X37229Y-27059D01*
X37471Y-27059D01*
X37695Y-26966D01*
X37850Y-26811D01*
X38005Y-26966D01*
X38229Y-27059D01*
X38471Y-27059D01*
X38695Y-26966D01*
X38850Y-26811D01*
X39005Y-26966D01*
X39229Y-27059D01*
X39471Y-27059D01*
X39695Y-26966D01*
X39850Y-26811D01*
X40005Y-26966D01*
X40229Y-27059D01*
X40471Y-27059D01*
X40695Y-26966D01*
X40850Y-26811D01*
X41005Y-26966D01*
X41229Y-27059D01*
X41471Y-27059D01*
X41695Y-26966D01*
X41866Y-26795D01*
X41868Y-26789D01*
X41921Y-26808D01*
X42279Y-26450D01*
X42279Y-26592D01*
X41992Y-26879D01*
X42027Y-26980D01*
X42255Y-27063D01*
X42496Y-27053D01*
X42673Y-26980D01*
X42708Y-26879D01*
X42708Y-27045D01*
X40890Y-28863D01*
X40851Y-28824D01*
X40760Y-28786D01*
X40661Y-28786D01*
X40311Y-28786D01*
X40219Y-28824D01*
X40160Y-28883D01*
X40101Y-28824D01*
X40009Y-28786D01*
X39897Y-28785D01*
X39835Y-28847D01*
X39835Y-29210D01*
X39835Y-29260D01*
X39835Y-29360D01*
X39835Y-29410D01*
X39835Y-29773D01*
X39897Y-29835D01*
X40009Y-29834D01*
X40101Y-29796D01*
X40160Y-29737D01*
X40219Y-29796D01*
X40245Y-29806D01*
X40245Y-31752D01*
X39735Y-32262D01*
X39735Y-29773D01*
X39735Y-29360D01*
X39735Y-29260D01*
X39735Y-28847D01*
X39673Y-28785D01*
X39561Y-28786D01*
X39469Y-28824D01*
X39399Y-28894D01*
X39361Y-28985D01*
X39361Y-29084D01*
X39360Y-29198D01*
X39422Y-29260D01*
X39735Y-29260D01*
X39735Y-29360D01*
X39422Y-29360D01*
X39360Y-29422D01*
X39361Y-29536D01*
X39361Y-29635D01*
X39399Y-29726D01*
X39469Y-29796D01*
X39561Y-29834D01*
X39673Y-29835D01*
X39735Y-29773D01*
X39735Y-32262D01*
X39105Y-32892D01*
X39042Y-32986D01*
X39041Y-32991D01*
X38986Y-32991D01*
X38894Y-33029D01*
X38824Y-33099D01*
X38786Y-33190D01*
X38786Y-33289D01*
X38786Y-33329D01*
X38107Y-32650D01*
X38013Y-32587D01*
X37902Y-32565D01*
X35502Y-32565D01*
X35467Y-32478D01*
X35397Y-32408D01*
X35310Y-32371D01*
X35310Y-31299D01*
X35309Y-31298D01*
X35288Y-31188D01*
X35287Y-31187D01*
X35225Y-31094D01*
X35224Y-31093D01*
X28410Y-24279D01*
X28316Y-24216D01*
X28311Y-24215D01*
X28311Y-24199D01*
X28273Y-24107D01*
X28203Y-24037D01*
X28112Y-23999D01*
X28013Y-23999D01*
X27541Y-23999D01*
X27449Y-24037D01*
X27379Y-24107D01*
X27341Y-24198D01*
X27341Y-24297D01*
X27341Y-24769D01*
X27379Y-24861D01*
X27415Y-24897D01*
X27379Y-24933D01*
X27341Y-25024D01*
X27341Y-25123D01*
X27341Y-25595D01*
X27379Y-25687D01*
X27449Y-25757D01*
X27536Y-25793D01*
X27536Y-25838D01*
X27502Y-25838D01*
X27410Y-25876D01*
X27340Y-25946D01*
X27302Y-26037D01*
X27302Y-26136D01*
X27302Y-26486D01*
X27340Y-26578D01*
X27399Y-26637D01*
X27340Y-26696D01*
X27302Y-26788D01*
X27301Y-26900D01*
X27363Y-26962D01*
X27726Y-26962D01*
X27776Y-26962D01*
X27876Y-26962D01*
X27926Y-26962D01*
X28289Y-26962D01*
X28351Y-26900D01*
X28350Y-26788D01*
X28312Y-26696D01*
X28253Y-26637D01*
X28312Y-26578D01*
X28350Y-26487D01*
X28350Y-26388D01*
X28350Y-26038D01*
X28312Y-25946D01*
X28242Y-25876D01*
X28151Y-25838D01*
X28116Y-25838D01*
X28116Y-25792D01*
X28203Y-25757D01*
X28273Y-25687D01*
X28311Y-25596D01*
X28311Y-25497D01*
X28311Y-25025D01*
X28293Y-24982D01*
X34730Y-31419D01*
X34730Y-32372D01*
X34643Y-32408D01*
X34573Y-32478D01*
X34535Y-32569D01*
X34535Y-32668D01*
X34535Y-33140D01*
X34573Y-33232D01*
X34609Y-33268D01*
X34573Y-33304D01*
X34535Y-33395D01*
X34535Y-33494D01*
X34535Y-33966D01*
X34573Y-34058D01*
X34643Y-34128D01*
X34690Y-34147D01*
X34690Y-34358D01*
X34656Y-34358D01*
X34564Y-34396D01*
X34494Y-34466D01*
X34456Y-34557D01*
X34456Y-34656D01*
X34456Y-35006D01*
X34494Y-35098D01*
X34553Y-35157D01*
X34494Y-35216D01*
X34456Y-35307D01*
X34456Y-35406D01*
X34456Y-35756D01*
X34494Y-35848D01*
X34564Y-35918D01*
X34655Y-35956D01*
X34754Y-35956D01*
X35304Y-35956D01*
X35396Y-35918D01*
X35466Y-35848D01*
X35476Y-35822D01*
X51928Y-35822D01*
X52039Y-35800D01*
X52133Y-35737D01*
X54341Y-33529D01*
X55796Y-33529D01*
X55796Y-33937D01*
X55834Y-34029D01*
X55904Y-34099D01*
X55991Y-34135D01*
X55991Y-34350D01*
X55957Y-34350D01*
X55865Y-34388D01*
X55795Y-34458D01*
X55757Y-34549D01*
X55757Y-34648D01*
X55757Y-34998D01*
X55795Y-35090D01*
X55854Y-35149D01*
X55795Y-35208D01*
X55757Y-35300D01*
X55756Y-35412D01*
X55818Y-35474D01*
X56181Y-35474D01*
X56231Y-35474D01*
X56331Y-35474D01*
X56381Y-35474D01*
X56744Y-35474D01*
X56806Y-35412D01*
X56805Y-35300D01*
X56767Y-35208D01*
X56708Y-35149D01*
X56767Y-35090D01*
X56805Y-34999D01*
X56805Y-34900D01*
X56805Y-34550D01*
X56767Y-34458D01*
X56697Y-34388D01*
X56606Y-34350D01*
X56571Y-34350D01*
X56571Y-34134D01*
X56658Y-34099D01*
X56728Y-34029D01*
X56766Y-33938D01*
X56766Y-33839D01*
X56766Y-33452D01*
X56779Y-33444D01*
X59411Y-30812D01*
X59474Y-30718D01*
X59496Y-30607D01*
X59496Y-27776D01*
X59581Y-27691D01*
X59581Y-27841D01*
X59665Y-28043D01*
X59819Y-28197D01*
X60021Y-28281D01*
X60239Y-28281D01*
X60441Y-28197D01*
X60581Y-28057D01*
X60581Y-28081D01*
X60619Y-28173D01*
X60689Y-28243D01*
X60780Y-28281D01*
X60879Y-28281D01*
X61479Y-28281D01*
X61571Y-28243D01*
X61641Y-28173D01*
X61679Y-28082D01*
X61679Y-27983D01*
X61679Y-27545D01*
X61756Y-27494D01*
X61778Y-27472D01*
X61841Y-27378D01*
X61863Y-27267D01*
X61863Y-36958D01*
X56806Y-36958D01*
X56806Y-35636D01*
X56744Y-35574D01*
X56331Y-35574D01*
X56331Y-35887D01*
X56393Y-35949D01*
X56507Y-35948D01*
X56606Y-35948D01*
X56697Y-35910D01*
X56767Y-35840D01*
X56805Y-35748D01*
X56806Y-35636D01*
X56806Y-36958D01*
X56231Y-36958D01*
X56231Y-35887D01*
X56231Y-35574D01*
X55818Y-35574D01*
X55756Y-35636D01*
X55757Y-35748D01*
X55795Y-35840D01*
X55865Y-35910D01*
X55956Y-35948D01*
X56055Y-35948D01*
X56169Y-35949D01*
X56231Y-35887D01*
X56231Y-36958D01*
X29187Y-36958D01*
X29187Y-34922D01*
X29187Y-33081D01*
X29187Y-32669D01*
X29030Y-32288D01*
X28738Y-31996D01*
X28357Y-31837D01*
X28351Y-31837D01*
X28351Y-27124D01*
X28289Y-27062D01*
X27876Y-27062D01*
X27876Y-27375D01*
X27938Y-27437D01*
X28052Y-27436D01*
X28151Y-27436D01*
X28242Y-27398D01*
X28312Y-27328D01*
X28350Y-27236D01*
X28351Y-27124D01*
X28351Y-31837D01*
X27945Y-31837D01*
X27776Y-31906D01*
X27776Y-27375D01*
X27776Y-27062D01*
X27363Y-27062D01*
X27301Y-27124D01*
X27302Y-27236D01*
X27340Y-27328D01*
X27410Y-27398D01*
X27501Y-27436D01*
X27600Y-27436D01*
X27714Y-27437D01*
X27776Y-27375D01*
X27776Y-31906D01*
X27564Y-31994D01*
X27272Y-32286D01*
X27113Y-32667D01*
X27113Y-33079D01*
X27270Y-33460D01*
X27562Y-33752D01*
X27674Y-33798D01*
X27570Y-33842D01*
X27483Y-33986D01*
X28150Y-34653D01*
X28817Y-33986D01*
X28730Y-33842D01*
X28625Y-33799D01*
X28736Y-33754D01*
X29028Y-33462D01*
X29187Y-33081D01*
X29187Y-34922D01*
X29184Y-34510D01*
X29032Y-34144D01*
X28888Y-34057D01*
X28221Y-34724D01*
X28888Y-35391D01*
X29032Y-35304D01*
X29187Y-34922D01*
X29187Y-36958D01*
X28817Y-36958D01*
X28817Y-35462D01*
X28150Y-34795D01*
X28079Y-34866D01*
X28079Y-34724D01*
X27412Y-34057D01*
X27268Y-34144D01*
X27113Y-34526D01*
X27116Y-34938D01*
X27268Y-35304D01*
X27412Y-35391D01*
X28079Y-34724D01*
X28079Y-34866D01*
X27483Y-35462D01*
X27570Y-35606D01*
X27952Y-35761D01*
X28364Y-35758D01*
X28730Y-35606D01*
X28817Y-35462D01*
X28817Y-36958D01*
X24066Y-36958D01*
X24066Y-18160D01*
X62548Y-18160D01*
X62548Y-36958D01*
X62548Y-36958D01*
G37*
G54D21*
X62548Y-36958D02*
X61863Y-36958D01*
X61863Y-27267D01*
X61863Y-24655D01*
X61862Y-24654D01*
X61841Y-24544D01*
X61840Y-24543D01*
X61778Y-24450D01*
X61777Y-24449D01*
X59917Y-22589D01*
X59823Y-22526D01*
X59712Y-22504D01*
X48814Y-22504D01*
X47369Y-21059D01*
X47471Y-21059D01*
X47695Y-20966D01*
X47850Y-20811D01*
X48005Y-20966D01*
X48229Y-21059D01*
X48471Y-21059D01*
X48695Y-20966D01*
X48850Y-20811D01*
X49005Y-20966D01*
X49229Y-21059D01*
X49471Y-21059D01*
X49695Y-20966D01*
X49850Y-20811D01*
X50005Y-20966D01*
X50229Y-21059D01*
X50471Y-21059D01*
X50695Y-20966D01*
X50850Y-20811D01*
X51005Y-20966D01*
X51229Y-21059D01*
X51471Y-21059D01*
X51695Y-20966D01*
X51850Y-20811D01*
X52005Y-20966D01*
X52229Y-21059D01*
X52471Y-21059D01*
X52695Y-20966D01*
X52850Y-20811D01*
X53005Y-20966D01*
X53229Y-21059D01*
X53471Y-21059D01*
X53695Y-20966D01*
X53850Y-20811D01*
X54005Y-20966D01*
X54229Y-21059D01*
X54471Y-21059D01*
X54695Y-20966D01*
X54850Y-20811D01*
X55005Y-20966D01*
X55229Y-21059D01*
X55471Y-21059D01*
X55695Y-20966D01*
X55866Y-20795D01*
X55959Y-20571D01*
X55959Y-20329D01*
X55866Y-20105D01*
X55695Y-19934D01*
X55471Y-19841D01*
X55229Y-19841D01*
X55005Y-19934D01*
X54850Y-20089D01*
X54695Y-19934D01*
X54471Y-19841D01*
X54229Y-19841D01*
X54005Y-19934D01*
X53850Y-20089D01*
X53695Y-19934D01*
X53471Y-19841D01*
X53229Y-19841D01*
X53005Y-19934D01*
X52850Y-20089D01*
X52695Y-19934D01*
X52471Y-19841D01*
X52229Y-19841D01*
X52005Y-19934D01*
X51850Y-20089D01*
X51695Y-19934D01*
X51471Y-19841D01*
X51229Y-19841D01*
X51005Y-19934D01*
X50850Y-20089D01*
X50695Y-19934D01*
X50471Y-19841D01*
X50229Y-19841D01*
X50005Y-19934D01*
X49850Y-20089D01*
X49695Y-19934D01*
X49471Y-19841D01*
X49229Y-19841D01*
X49005Y-19934D01*
X48850Y-20089D01*
X48695Y-19934D01*
X48471Y-19841D01*
X48229Y-19841D01*
X48005Y-19934D01*
X47850Y-20089D01*
X47695Y-19934D01*
X47471Y-19841D01*
X47229Y-19841D01*
X47005Y-19934D01*
X46850Y-20089D01*
X46695Y-19934D01*
X46471Y-19841D01*
X46229Y-19841D01*
X46005Y-19934D01*
X45850Y-20089D01*
X45695Y-19934D01*
X45471Y-19841D01*
X45229Y-19841D01*
X45005Y-19934D01*
X44834Y-20105D01*
X44831Y-20110D01*
X44779Y-20092D01*
X44708Y-20163D01*
X44708Y-20021D01*
X44673Y-19920D01*
X44445Y-19837D01*
X44204Y-19847D01*
X44027Y-19920D01*
X43992Y-20021D01*
X44350Y-20379D01*
X44708Y-20021D01*
X44708Y-20163D01*
X44421Y-20450D01*
X44779Y-20808D01*
X44831Y-20789D01*
X44834Y-20795D01*
X45005Y-20966D01*
X45229Y-21059D01*
X45471Y-21059D01*
X45526Y-21036D01*
X48789Y-24299D01*
X48883Y-24362D01*
X48994Y-24384D01*
X53652Y-24384D01*
X55144Y-25876D01*
X55005Y-25934D01*
X54850Y-26089D01*
X54695Y-25934D01*
X54471Y-25841D01*
X54229Y-25841D01*
X54005Y-25934D01*
X53850Y-26089D01*
X53695Y-25934D01*
X53471Y-25841D01*
X53229Y-25841D01*
X53005Y-25934D01*
X52850Y-26089D01*
X52695Y-25934D01*
X52471Y-25841D01*
X52229Y-25841D01*
X52005Y-25934D01*
X51850Y-26089D01*
X51695Y-25934D01*
X51471Y-25841D01*
X51229Y-25841D01*
X51005Y-25934D01*
X50850Y-26089D01*
X50695Y-25934D01*
X50471Y-25841D01*
X50229Y-25841D01*
X50005Y-25934D01*
X49850Y-26089D01*
X49695Y-25934D01*
X49471Y-25841D01*
X49229Y-25841D01*
X49005Y-25934D01*
X48850Y-26089D01*
X48695Y-25934D01*
X48471Y-25841D01*
X48229Y-25841D01*
X48005Y-25934D01*
X47850Y-26089D01*
X47695Y-25934D01*
X47471Y-25841D01*
X47229Y-25841D01*
X47005Y-25934D01*
X46850Y-26089D01*
X46695Y-25934D01*
X46471Y-25841D01*
X46229Y-25841D01*
X46005Y-25934D01*
X45850Y-26089D01*
X45695Y-25934D01*
X45471Y-25841D01*
X45229Y-25841D01*
X45005Y-25934D01*
X44850Y-26089D01*
X44708Y-25947D01*
X44708Y-20879D01*
X44350Y-20521D01*
X44279Y-20592D01*
X44279Y-20450D01*
X43921Y-20092D01*
X43850Y-20116D01*
X43779Y-20092D01*
X43708Y-20163D01*
X43708Y-20021D01*
X43673Y-19920D01*
X43445Y-19837D01*
X43204Y-19847D01*
X43027Y-19920D01*
X42992Y-20021D01*
X43350Y-20379D01*
X43708Y-20021D01*
X43708Y-20163D01*
X43421Y-20450D01*
X43779Y-20808D01*
X43850Y-20783D01*
X43921Y-20808D01*
X44279Y-20450D01*
X44279Y-20592D01*
X43992Y-20879D01*
X44027Y-20980D01*
X44255Y-21063D01*
X44496Y-21053D01*
X44673Y-20980D01*
X44708Y-20879D01*
X44708Y-25947D01*
X44695Y-25934D01*
X44471Y-25841D01*
X44229Y-25841D01*
X44005Y-25934D01*
X43850Y-26089D01*
X43708Y-25947D01*
X43708Y-20879D01*
X43350Y-20521D01*
X43279Y-20592D01*
X43279Y-20450D01*
X42921Y-20092D01*
X42868Y-20110D01*
X42866Y-20105D01*
X42695Y-19934D01*
X42471Y-19841D01*
X42229Y-19841D01*
X42005Y-19934D01*
X41850Y-20089D01*
X41695Y-19934D01*
X41471Y-19841D01*
X41229Y-19841D01*
X41005Y-19934D01*
X40850Y-20089D01*
X40695Y-19934D01*
X40471Y-19841D01*
X40229Y-19841D01*
X40005Y-19934D01*
X39850Y-20089D01*
X39695Y-19934D01*
X39471Y-19841D01*
X39229Y-19841D01*
X39005Y-19934D01*
X38850Y-20089D01*
X38695Y-19934D01*
X38471Y-19841D01*
X38229Y-19841D01*
X38005Y-19934D01*
X37850Y-20089D01*
X37695Y-19934D01*
X37471Y-19841D01*
X37229Y-19841D01*
X37005Y-19934D01*
X36850Y-20089D01*
X36695Y-19934D01*
X36471Y-19841D01*
X36229Y-19841D01*
X36005Y-19934D01*
X35834Y-20105D01*
X35741Y-20329D01*
X35741Y-20571D01*
X35834Y-20795D01*
X36005Y-20966D01*
X36229Y-21059D01*
X36471Y-21059D01*
X36695Y-20966D01*
X36850Y-20811D01*
X37005Y-20966D01*
X37229Y-21059D01*
X37471Y-21059D01*
X37695Y-20966D01*
X37850Y-20811D01*
X38005Y-20966D01*
X38229Y-21059D01*
X38471Y-21059D01*
X38695Y-20966D01*
X38850Y-20811D01*
X39005Y-20966D01*
X39229Y-21059D01*
X39471Y-21059D01*
X39695Y-20966D01*
X39850Y-20811D01*
X40005Y-20966D01*
X40229Y-21059D01*
X40471Y-21059D01*
X40695Y-20966D01*
X40850Y-20811D01*
X41005Y-20966D01*
X41229Y-21059D01*
X41471Y-21059D01*
X41695Y-20966D01*
X41850Y-20811D01*
X42005Y-20966D01*
X42229Y-21059D01*
X42471Y-21059D01*
X42695Y-20966D01*
X42866Y-20795D01*
X42868Y-20789D01*
X42921Y-20808D01*
X43279Y-20450D01*
X43279Y-20592D01*
X42992Y-20879D01*
X43027Y-20980D01*
X43255Y-21063D01*
X43496Y-21053D01*
X43673Y-20980D01*
X43708Y-20879D01*
X43708Y-25947D01*
X43695Y-25934D01*
X43471Y-25841D01*
X43229Y-25841D01*
X43005Y-25934D01*
X42834Y-26105D01*
X42831Y-26110D01*
X42779Y-26092D01*
X42708Y-26163D01*
X42708Y-26021D01*
X42673Y-25920D01*
X42445Y-25837D01*
X42204Y-25847D01*
X42027Y-25920D01*
X41992Y-26021D01*
X42350Y-26379D01*
X42708Y-26021D01*
X42708Y-26163D01*
X42421Y-26450D01*
X42779Y-26808D01*
X42831Y-26789D01*
X42834Y-26795D01*
X42896Y-26857D01*
X42708Y-27045D01*
X42708Y-26879D01*
X42350Y-26521D01*
X42279Y-26592D01*
X42279Y-26450D01*
X41921Y-26092D01*
X41868Y-26110D01*
X41866Y-26105D01*
X41695Y-25934D01*
X41471Y-25841D01*
X41229Y-25841D01*
X41005Y-25934D01*
X40850Y-26089D01*
X40695Y-25934D01*
X40471Y-25841D01*
X40229Y-25841D01*
X40005Y-25934D01*
X39850Y-26089D01*
X39695Y-25934D01*
X39471Y-25841D01*
X39229Y-25841D01*
X39005Y-25934D01*
X38850Y-26089D01*
X38695Y-25934D01*
X38471Y-25841D01*
X38229Y-25841D01*
X38005Y-25934D01*
X37850Y-26089D01*
X37695Y-25934D01*
X37471Y-25841D01*
X37229Y-25841D01*
X37005Y-25934D01*
X36941Y-25997D01*
X36921Y-25949D01*
X36851Y-25879D01*
X36760Y-25841D01*
X36661Y-25841D01*
X35941Y-25841D01*
X35849Y-25879D01*
X35779Y-25949D01*
X35741Y-26040D01*
X35741Y-26139D01*
X35741Y-26859D01*
X35779Y-26951D01*
X35849Y-27021D01*
X35940Y-27059D01*
X36039Y-27059D01*
X36759Y-27059D01*
X36851Y-27021D01*
X36921Y-26951D01*
X36941Y-26902D01*
X37005Y-26966D01*
X37229Y-27059D01*
X37471Y-27059D01*
X37695Y-26966D01*
X37850Y-26811D01*
X38005Y-26966D01*
X38229Y-27059D01*
X38471Y-27059D01*
X38695Y-26966D01*
X38850Y-26811D01*
X39005Y-26966D01*
X39229Y-27059D01*
X39471Y-27059D01*
X39695Y-26966D01*
X39850Y-26811D01*
X40005Y-26966D01*
X40229Y-27059D01*
X40471Y-27059D01*
X40695Y-26966D01*
X40850Y-26811D01*
X41005Y-26966D01*
X41229Y-27059D01*
X41471Y-27059D01*
X41695Y-26966D01*
X41866Y-26795D01*
X41868Y-26789D01*
X41921Y-26808D01*
X42279Y-26450D01*
X42279Y-26592D01*
X41992Y-26879D01*
X42027Y-26980D01*
X42255Y-27063D01*
X42496Y-27053D01*
X42673Y-26980D01*
X42708Y-26879D01*
X42708Y-27045D01*
X40890Y-28863D01*
X40851Y-28824D01*
X40760Y-28786D01*
X40661Y-28786D01*
X40311Y-28786D01*
X40219Y-28824D01*
X40160Y-28883D01*
X40101Y-28824D01*
X40009Y-28786D01*
X39897Y-28785D01*
X39835Y-28847D01*
X39835Y-29210D01*
X39835Y-29260D01*
X39835Y-29360D01*
X39835Y-29410D01*
X39835Y-29773D01*
X39897Y-29835D01*
X40009Y-29834D01*
X40101Y-29796D01*
X40160Y-29737D01*
X40219Y-29796D01*
X40245Y-29806D01*
X40245Y-31752D01*
X39735Y-32262D01*
X39735Y-29773D01*
X39735Y-29360D01*
X39735Y-29260D01*
X39735Y-28847D01*
X39673Y-28785D01*
X39561Y-28786D01*
X39469Y-28824D01*
X39399Y-28894D01*
X39361Y-28985D01*
X39361Y-29084D01*
X39360Y-29198D01*
X39422Y-29260D01*
X39735Y-29260D01*
X39735Y-29360D01*
X39422Y-29360D01*
X39360Y-29422D01*
X39361Y-29536D01*
X39361Y-29635D01*
X39399Y-29726D01*
X39469Y-29796D01*
X39561Y-29834D01*
X39673Y-29835D01*
X39735Y-29773D01*
X39735Y-32262D01*
X39105Y-32892D01*
X39042Y-32986D01*
X39041Y-32991D01*
X38986Y-32991D01*
X38894Y-33029D01*
X38824Y-33099D01*
X38786Y-33190D01*
X38786Y-33289D01*
X38786Y-33329D01*
X38107Y-32650D01*
X38013Y-32587D01*
X37902Y-32565D01*
X35502Y-32565D01*
X35467Y-32478D01*
X35397Y-32408D01*
X35310Y-32371D01*
X35310Y-31299D01*
X35309Y-31298D01*
X35288Y-31188D01*
X35287Y-31187D01*
X35225Y-31094D01*
X35224Y-31093D01*
X28410Y-24279D01*
X28316Y-24216D01*
X28311Y-24215D01*
X28311Y-24199D01*
X28273Y-24107D01*
X28203Y-24037D01*
X28112Y-23999D01*
X28013Y-23999D01*
X27541Y-23999D01*
X27449Y-24037D01*
X27379Y-24107D01*
X27341Y-24198D01*
X27341Y-24297D01*
X27341Y-24769D01*
X27379Y-24861D01*
X27415Y-24897D01*
X27379Y-24933D01*
X27341Y-25024D01*
X27341Y-25123D01*
X27341Y-25595D01*
X27379Y-25687D01*
X27449Y-25757D01*
X27536Y-25793D01*
X27536Y-25838D01*
X27502Y-25838D01*
X27410Y-25876D01*
X27340Y-25946D01*
X27302Y-26037D01*
X27302Y-26136D01*
X27302Y-26486D01*
X27340Y-26578D01*
X27399Y-26637D01*
X27340Y-26696D01*
X27302Y-26788D01*
X27301Y-26900D01*
X27363Y-26962D01*
X27726Y-26962D01*
X27776Y-26962D01*
X27876Y-26962D01*
X27926Y-26962D01*
X28289Y-26962D01*
X28351Y-26900D01*
X28350Y-26788D01*
X28312Y-26696D01*
X28253Y-26637D01*
X28312Y-26578D01*
X28350Y-26487D01*
X28350Y-26388D01*
X28350Y-26038D01*
X28312Y-25946D01*
X28242Y-25876D01*
X28151Y-25838D01*
X28116Y-25838D01*
X28116Y-25792D01*
X28203Y-25757D01*
X28273Y-25687D01*
X28311Y-25596D01*
X28311Y-25497D01*
X28311Y-25025D01*
X28293Y-24982D01*
X34730Y-31419D01*
X34730Y-32372D01*
X34643Y-32408D01*
X34573Y-32478D01*
X34535Y-32569D01*
X34535Y-32668D01*
X34535Y-33140D01*
X34573Y-33232D01*
X34609Y-33268D01*
X34573Y-33304D01*
X34535Y-33395D01*
X34535Y-33494D01*
X34535Y-33966D01*
X34573Y-34058D01*
X34643Y-34128D01*
X34690Y-34147D01*
X34690Y-34358D01*
X34656Y-34358D01*
X34564Y-34396D01*
X34494Y-34466D01*
X34456Y-34557D01*
X34456Y-34656D01*
X34456Y-35006D01*
X34494Y-35098D01*
X34553Y-35157D01*
X34494Y-35216D01*
X34456Y-35307D01*
X34456Y-35406D01*
X34456Y-35756D01*
X34494Y-35848D01*
X34564Y-35918D01*
X34655Y-35956D01*
X34754Y-35956D01*
X35304Y-35956D01*
X35396Y-35918D01*
X35466Y-35848D01*
X35476Y-35822D01*
X51928Y-35822D01*
X52039Y-35800D01*
X52133Y-35737D01*
X54341Y-33529D01*
X55796Y-33529D01*
X55796Y-33937D01*
X55834Y-34029D01*
X55904Y-34099D01*
X55991Y-34135D01*
X55991Y-34350D01*
X55957Y-34350D01*
X55865Y-34388D01*
X55795Y-34458D01*
X55757Y-34549D01*
X55757Y-34648D01*
X55757Y-34998D01*
X55795Y-35090D01*
X55854Y-35149D01*
X55795Y-35208D01*
X55757Y-35300D01*
X55756Y-35412D01*
X55818Y-35474D01*
X56181Y-35474D01*
X56231Y-35474D01*
X56331Y-35474D01*
X56381Y-35474D01*
X56744Y-35474D01*
X56806Y-35412D01*
X56805Y-35300D01*
X56767Y-35208D01*
X56708Y-35149D01*
X56767Y-35090D01*
X56805Y-34999D01*
X56805Y-34900D01*
X56805Y-34550D01*
X56767Y-34458D01*
X56697Y-34388D01*
X56606Y-34350D01*
X56571Y-34350D01*
X56571Y-34134D01*
X56658Y-34099D01*
X56728Y-34029D01*
X56766Y-33938D01*
X56766Y-33839D01*
X56766Y-33452D01*
X56779Y-33444D01*
X59411Y-30812D01*
X59474Y-30718D01*
X59496Y-30607D01*
X59496Y-27776D01*
X59581Y-27691D01*
X59581Y-27841D01*
X59665Y-28043D01*
X59819Y-28197D01*
X60021Y-28281D01*
X60239Y-28281D01*
X60441Y-28197D01*
X60581Y-28057D01*
X60581Y-28081D01*
X60619Y-28173D01*
X60689Y-28243D01*
X60780Y-28281D01*
X60879Y-28281D01*
X61479Y-28281D01*
X61571Y-28243D01*
X61641Y-28173D01*
X61679Y-28082D01*
X61679Y-27983D01*
X61679Y-27545D01*
X61756Y-27494D01*
X61778Y-27472D01*
X61841Y-27378D01*
X61863Y-27267D01*
X61863Y-36958D01*
X56806Y-36958D01*
X56806Y-35636D01*
X56744Y-35574D01*
X56331Y-35574D01*
X56331Y-35887D01*
X56393Y-35949D01*
X56507Y-35948D01*
X56606Y-35948D01*
X56697Y-35910D01*
X56767Y-35840D01*
X56805Y-35748D01*
X56806Y-35636D01*
X56806Y-36958D01*
X56231Y-36958D01*
X56231Y-35887D01*
X56231Y-35574D01*
X55818Y-35574D01*
X55756Y-35636D01*
X55757Y-35748D01*
X55795Y-35840D01*
X55865Y-35910D01*
X55956Y-35948D01*
X56055Y-35948D01*
X56169Y-35949D01*
X56231Y-35887D01*
X56231Y-36958D01*
X29187Y-36958D01*
X29187Y-34922D01*
X29187Y-33081D01*
X29187Y-32669D01*
X29030Y-32288D01*
X28738Y-31996D01*
X28357Y-31837D01*
X28351Y-31837D01*
X28351Y-27124D01*
X28289Y-27062D01*
X27876Y-27062D01*
X27876Y-27375D01*
X27938Y-27437D01*
X28052Y-27436D01*
X28151Y-27436D01*
X28242Y-27398D01*
X28312Y-27328D01*
X28350Y-27236D01*
X28351Y-27124D01*
X28351Y-31837D01*
X27945Y-31837D01*
X27776Y-31906D01*
X27776Y-27375D01*
X27776Y-27062D01*
X27363Y-27062D01*
X27301Y-27124D01*
X27302Y-27236D01*
X27340Y-27328D01*
X27410Y-27398D01*
X27501Y-27436D01*
X27600Y-27436D01*
X27714Y-27437D01*
X27776Y-27375D01*
X27776Y-31906D01*
X27564Y-31994D01*
X27272Y-32286D01*
X27113Y-32667D01*
X27113Y-33079D01*
X27270Y-33460D01*
X27562Y-33752D01*
X27674Y-33798D01*
X27570Y-33842D01*
X27483Y-33986D01*
X28150Y-34653D01*
X28817Y-33986D01*
X28730Y-33842D01*
X28625Y-33799D01*
X28736Y-33754D01*
X29028Y-33462D01*
X29187Y-33081D01*
X29187Y-34922D01*
X29184Y-34510D01*
X29032Y-34144D01*
X28888Y-34057D01*
X28221Y-34724D01*
X28888Y-35391D01*
X29032Y-35304D01*
X29187Y-34922D01*
X29187Y-36958D01*
X28817Y-36958D01*
X28817Y-35462D01*
X28150Y-34795D01*
X28079Y-34866D01*
X28079Y-34724D01*
X27412Y-34057D01*
X27268Y-34144D01*
X27113Y-34526D01*
X27116Y-34938D01*
X27268Y-35304D01*
X27412Y-35391D01*
X28079Y-34724D01*
X28079Y-34866D01*
X27483Y-35462D01*
X27570Y-35606D01*
X27952Y-35761D01*
X28364Y-35758D01*
X28730Y-35606D01*
X28817Y-35462D01*
X28817Y-36958D01*
X24066Y-36958D01*
X24066Y-18160D01*
X62548Y-18160D01*
X62548Y-36958D01*
M02*
