G04 (created by PCBNEW-RS274X (2012-01-18 BZR 3371)-testing) date Sat 16 Jun 2012 05:28:33 AM EDT*
G01*
G70*
G90*
%MOIN*%
G04 Gerber Fmt 3.4, Leading zero omitted, Abs format*
%FSLAX34Y34*%
G04 APERTURE LIST*
%ADD10C,0.006000*%
%ADD11R,0.060000X0.060000*%
%ADD12C,0.060000*%
%ADD13C,0.157500*%
%ADD14R,0.072000X0.072000*%
%ADD15C,0.072000*%
G04 APERTURE END LIST*
G54D10*
G54D11*
X61130Y-27732D03*
G54D12*
X60130Y-27732D03*
X61130Y-26732D03*
X60130Y-26732D03*
X61130Y-25732D03*
X60130Y-25732D03*
G54D11*
X48477Y-34722D03*
G54D12*
X49477Y-34722D03*
G54D13*
X28150Y-32874D03*
X28150Y-34724D03*
G54D14*
X36350Y-26450D03*
G54D15*
X37350Y-20450D03*
X36350Y-20450D03*
X38350Y-20450D03*
X55350Y-20450D03*
X54350Y-20450D03*
X53350Y-20450D03*
X52350Y-20450D03*
X51350Y-20450D03*
X50350Y-20450D03*
X49350Y-20450D03*
X48350Y-20450D03*
X47350Y-20450D03*
X46350Y-20450D03*
X45350Y-20450D03*
X44350Y-20450D03*
X43350Y-20450D03*
X41350Y-20450D03*
X42350Y-20450D03*
X40350Y-20450D03*
X39350Y-20450D03*
X55350Y-26450D03*
X37350Y-26450D03*
X38350Y-26450D03*
X39350Y-26450D03*
X40350Y-26450D03*
X41350Y-26450D03*
X42350Y-26450D03*
X43350Y-26450D03*
X44350Y-26450D03*
X45350Y-26450D03*
X46350Y-26450D03*
X47350Y-26450D03*
X48350Y-26450D03*
X49350Y-26450D03*
X50350Y-26450D03*
X51350Y-26450D03*
X52350Y-26450D03*
X53350Y-26450D03*
X54350Y-26450D03*
M02*
