G04 (created by PCBNEW-RS274X (2012-01-18 BZR 3371)-testing) date Sat 16 Jun 2012 02:14:16 PM EDT*
G01*
G70*
G90*
%MOIN*%
G04 Gerber Fmt 3.4, Leading zero omitted, Abs format*
%FSLAX34Y34*%
G04 APERTURE LIST*
%ADD10C,0.006000*%
%ADD11R,0.060000X0.060000*%
%ADD12C,0.060000*%
%ADD13C,0.157500*%
%ADD14R,0.072000X0.072000*%
%ADD15C,0.072000*%
%ADD16C,0.008000*%
%ADD17C,0.010000*%
G04 APERTURE END LIST*
G54D10*
G54D11*
X61130Y-27732D03*
G54D12*
X60130Y-27732D03*
X61130Y-26732D03*
X60130Y-26732D03*
X61130Y-25732D03*
X60130Y-25732D03*
G54D11*
X48477Y-34722D03*
G54D12*
X49477Y-34722D03*
G54D13*
X28150Y-32874D03*
X28150Y-34724D03*
G54D14*
X36350Y-26450D03*
G54D15*
X37350Y-20450D03*
X36350Y-20450D03*
X38350Y-20450D03*
X55350Y-20450D03*
X54350Y-20450D03*
X53350Y-20450D03*
X52350Y-20450D03*
X51350Y-20450D03*
X50350Y-20450D03*
X49350Y-20450D03*
X48350Y-20450D03*
X47350Y-20450D03*
X46350Y-20450D03*
X45350Y-20450D03*
X44350Y-20450D03*
X43350Y-20450D03*
X41350Y-20450D03*
X42350Y-20450D03*
X40350Y-20450D03*
X39350Y-20450D03*
X55350Y-26450D03*
X37350Y-26450D03*
X38350Y-26450D03*
X39350Y-26450D03*
X40350Y-26450D03*
X41350Y-26450D03*
X42350Y-26450D03*
X43350Y-26450D03*
X44350Y-26450D03*
X45350Y-26450D03*
X46350Y-26450D03*
X47350Y-26450D03*
X48350Y-26450D03*
X49350Y-26450D03*
X50350Y-26450D03*
X51350Y-26450D03*
X52350Y-26450D03*
X53350Y-26450D03*
X54350Y-26450D03*
G54D16*
X56151Y-22753D02*
X60130Y-26732D01*
X49653Y-22753D02*
X56151Y-22753D01*
X47350Y-20450D02*
X49653Y-22753D01*
X60586Y-26276D02*
X61130Y-25732D01*
X44350Y-26952D02*
X44306Y-26996D01*
X44350Y-26450D02*
X44350Y-26952D01*
X36896Y-26996D02*
X36350Y-26450D01*
X44306Y-26996D02*
X36896Y-26996D01*
X60586Y-27154D02*
X60586Y-26276D01*
X54468Y-27176D02*
X60564Y-27176D01*
X49477Y-32167D02*
X54468Y-27176D01*
X44306Y-26996D02*
X49477Y-32167D01*
X49477Y-32167D02*
X49477Y-34722D01*
X60564Y-27176D02*
X60586Y-27154D01*
X52169Y-35693D02*
X60130Y-27732D01*
X30969Y-35693D02*
X52169Y-35693D01*
X28150Y-32874D02*
X30969Y-35693D01*
G54D10*
G36*
X62548Y-36958D02*
X61679Y-36958D01*
X61679Y-28082D01*
X61679Y-27983D01*
X61679Y-27383D01*
X61641Y-27291D01*
X61571Y-27221D01*
X61480Y-27183D01*
X61455Y-27183D01*
X61595Y-27043D01*
X61679Y-26841D01*
X61679Y-26623D01*
X61595Y-26421D01*
X61441Y-26267D01*
X61356Y-26232D01*
X61441Y-26197D01*
X61595Y-26043D01*
X61679Y-25841D01*
X61679Y-25623D01*
X61595Y-25421D01*
X61441Y-25267D01*
X61239Y-25183D01*
X61021Y-25183D01*
X60819Y-25267D01*
X60665Y-25421D01*
X60632Y-25499D01*
X60610Y-25446D01*
X60515Y-25417D01*
X60445Y-25487D01*
X60445Y-25347D01*
X60416Y-25252D01*
X60211Y-25179D01*
X59993Y-25190D01*
X59844Y-25252D01*
X59815Y-25347D01*
X60130Y-25661D01*
X60445Y-25347D01*
X60445Y-25487D01*
X60201Y-25732D01*
X60130Y-25803D01*
X60059Y-25732D01*
X60024Y-25697D01*
X59745Y-25417D01*
X59650Y-25446D01*
X59577Y-25651D01*
X59583Y-25775D01*
X56356Y-22548D01*
X56262Y-22485D01*
X56151Y-22463D01*
X49773Y-22463D01*
X48369Y-21059D01*
X48471Y-21059D01*
X48695Y-20966D01*
X48850Y-20811D01*
X49005Y-20966D01*
X49229Y-21059D01*
X49471Y-21059D01*
X49695Y-20966D01*
X49850Y-20811D01*
X50005Y-20966D01*
X50229Y-21059D01*
X50471Y-21059D01*
X50695Y-20966D01*
X50850Y-20811D01*
X51005Y-20966D01*
X51229Y-21059D01*
X51471Y-21059D01*
X51695Y-20966D01*
X51850Y-20811D01*
X52005Y-20966D01*
X52229Y-21059D01*
X52471Y-21059D01*
X52695Y-20966D01*
X52850Y-20811D01*
X53005Y-20966D01*
X53229Y-21059D01*
X53471Y-21059D01*
X53695Y-20966D01*
X53850Y-20811D01*
X54005Y-20966D01*
X54229Y-21059D01*
X54471Y-21059D01*
X54695Y-20966D01*
X54850Y-20811D01*
X55005Y-20966D01*
X55229Y-21059D01*
X55471Y-21059D01*
X55695Y-20966D01*
X55866Y-20795D01*
X55959Y-20571D01*
X55959Y-20329D01*
X55866Y-20105D01*
X55695Y-19934D01*
X55471Y-19841D01*
X55229Y-19841D01*
X55005Y-19934D01*
X54850Y-20089D01*
X54695Y-19934D01*
X54471Y-19841D01*
X54229Y-19841D01*
X54005Y-19934D01*
X53850Y-20089D01*
X53695Y-19934D01*
X53471Y-19841D01*
X53229Y-19841D01*
X53005Y-19934D01*
X52850Y-20089D01*
X52695Y-19934D01*
X52471Y-19841D01*
X52229Y-19841D01*
X52005Y-19934D01*
X51850Y-20089D01*
X51695Y-19934D01*
X51471Y-19841D01*
X51229Y-19841D01*
X51005Y-19934D01*
X50850Y-20089D01*
X50695Y-19934D01*
X50471Y-19841D01*
X50229Y-19841D01*
X50005Y-19934D01*
X49850Y-20089D01*
X49695Y-19934D01*
X49471Y-19841D01*
X49229Y-19841D01*
X49005Y-19934D01*
X48850Y-20089D01*
X48695Y-19934D01*
X48471Y-19841D01*
X48229Y-19841D01*
X48005Y-19934D01*
X47850Y-20089D01*
X47695Y-19934D01*
X47471Y-19841D01*
X47229Y-19841D01*
X47005Y-19934D01*
X46850Y-20089D01*
X46695Y-19934D01*
X46471Y-19841D01*
X46229Y-19841D01*
X46005Y-19934D01*
X45850Y-20089D01*
X45695Y-19934D01*
X45471Y-19841D01*
X45229Y-19841D01*
X45005Y-19934D01*
X44850Y-20089D01*
X44695Y-19934D01*
X44471Y-19841D01*
X44229Y-19841D01*
X44005Y-19934D01*
X43850Y-20089D01*
X43695Y-19934D01*
X43471Y-19841D01*
X43229Y-19841D01*
X43005Y-19934D01*
X42834Y-20105D01*
X42831Y-20110D01*
X42779Y-20092D01*
X42708Y-20163D01*
X42708Y-20021D01*
X42673Y-19920D01*
X42445Y-19837D01*
X42204Y-19847D01*
X42027Y-19920D01*
X41992Y-20021D01*
X42350Y-20379D01*
X42708Y-20021D01*
X42708Y-20163D01*
X42421Y-20450D01*
X42779Y-20808D01*
X42831Y-20789D01*
X42834Y-20795D01*
X43005Y-20966D01*
X43229Y-21059D01*
X43471Y-21059D01*
X43695Y-20966D01*
X43850Y-20811D01*
X44005Y-20966D01*
X44229Y-21059D01*
X44471Y-21059D01*
X44695Y-20966D01*
X44850Y-20811D01*
X45005Y-20966D01*
X45229Y-21059D01*
X45471Y-21059D01*
X45695Y-20966D01*
X45850Y-20811D01*
X46005Y-20966D01*
X46229Y-21059D01*
X46471Y-21059D01*
X46695Y-20966D01*
X46850Y-20811D01*
X47005Y-20966D01*
X47229Y-21059D01*
X47471Y-21059D01*
X47526Y-21036D01*
X49447Y-22957D01*
X49448Y-22958D01*
X49541Y-23020D01*
X49542Y-23021D01*
X49652Y-23042D01*
X49653Y-23043D01*
X56031Y-23043D01*
X59589Y-26601D01*
X59581Y-26623D01*
X59581Y-26841D01*
X59599Y-26886D01*
X55775Y-26886D01*
X55866Y-26795D01*
X55959Y-26571D01*
X55959Y-26329D01*
X55866Y-26105D01*
X55695Y-25934D01*
X55471Y-25841D01*
X55229Y-25841D01*
X55005Y-25934D01*
X54850Y-26089D01*
X54695Y-25934D01*
X54471Y-25841D01*
X54229Y-25841D01*
X54005Y-25934D01*
X53850Y-26089D01*
X53695Y-25934D01*
X53471Y-25841D01*
X53229Y-25841D01*
X53005Y-25934D01*
X52850Y-26089D01*
X52695Y-25934D01*
X52471Y-25841D01*
X52229Y-25841D01*
X52005Y-25934D01*
X51850Y-26089D01*
X51695Y-25934D01*
X51471Y-25841D01*
X51229Y-25841D01*
X51005Y-25934D01*
X50850Y-26089D01*
X50695Y-25934D01*
X50471Y-25841D01*
X50229Y-25841D01*
X50005Y-25934D01*
X49850Y-26089D01*
X49695Y-25934D01*
X49471Y-25841D01*
X49229Y-25841D01*
X49005Y-25934D01*
X48850Y-26089D01*
X48695Y-25934D01*
X48471Y-25841D01*
X48229Y-25841D01*
X48005Y-25934D01*
X47834Y-26105D01*
X47831Y-26110D01*
X47779Y-26092D01*
X47708Y-26163D01*
X47708Y-26021D01*
X47673Y-25920D01*
X47445Y-25837D01*
X47204Y-25847D01*
X47027Y-25920D01*
X46992Y-26021D01*
X47350Y-26379D01*
X47708Y-26021D01*
X47708Y-26163D01*
X47421Y-26450D01*
X47779Y-26808D01*
X47831Y-26789D01*
X47834Y-26795D01*
X48005Y-26966D01*
X48229Y-27059D01*
X48471Y-27059D01*
X48695Y-26966D01*
X48850Y-26811D01*
X49005Y-26966D01*
X49229Y-27059D01*
X49471Y-27059D01*
X49695Y-26966D01*
X49850Y-26811D01*
X50005Y-26966D01*
X50229Y-27059D01*
X50471Y-27059D01*
X50695Y-26966D01*
X50850Y-26811D01*
X51005Y-26966D01*
X51229Y-27059D01*
X51471Y-27059D01*
X51695Y-26966D01*
X51850Y-26811D01*
X52005Y-26966D01*
X52229Y-27059D01*
X52471Y-27059D01*
X52695Y-26966D01*
X52850Y-26811D01*
X53005Y-26966D01*
X53229Y-27059D01*
X53471Y-27059D01*
X53695Y-26966D01*
X53850Y-26811D01*
X54005Y-26966D01*
X54190Y-27043D01*
X49477Y-31757D01*
X47708Y-29988D01*
X47708Y-26879D01*
X47350Y-26521D01*
X46992Y-26879D01*
X47027Y-26980D01*
X47255Y-27063D01*
X47496Y-27053D01*
X47673Y-26980D01*
X47708Y-26879D01*
X47708Y-29988D01*
X44688Y-26968D01*
X44695Y-26966D01*
X44850Y-26811D01*
X45005Y-26966D01*
X45229Y-27059D01*
X45471Y-27059D01*
X45695Y-26966D01*
X45850Y-26811D01*
X46005Y-26966D01*
X46229Y-27059D01*
X46471Y-27059D01*
X46695Y-26966D01*
X46866Y-26795D01*
X46868Y-26789D01*
X46921Y-26808D01*
X47279Y-26450D01*
X46921Y-26092D01*
X46868Y-26110D01*
X46866Y-26105D01*
X46695Y-25934D01*
X46471Y-25841D01*
X46229Y-25841D01*
X46005Y-25934D01*
X45850Y-26089D01*
X45695Y-25934D01*
X45471Y-25841D01*
X45229Y-25841D01*
X45005Y-25934D01*
X44850Y-26089D01*
X44695Y-25934D01*
X44471Y-25841D01*
X44229Y-25841D01*
X44005Y-25934D01*
X43834Y-26105D01*
X43831Y-26110D01*
X43779Y-26092D01*
X43708Y-26163D01*
X43708Y-26021D01*
X43673Y-25920D01*
X43445Y-25837D01*
X43204Y-25847D01*
X43027Y-25920D01*
X42992Y-26021D01*
X43350Y-26379D01*
X43708Y-26021D01*
X43708Y-26163D01*
X43456Y-26415D01*
X43421Y-26450D01*
X43350Y-26521D01*
X43279Y-26450D01*
X43244Y-26415D01*
X42921Y-26092D01*
X42868Y-26110D01*
X42866Y-26105D01*
X42708Y-25947D01*
X42708Y-20879D01*
X42350Y-20521D01*
X42279Y-20592D01*
X42279Y-20450D01*
X41921Y-20092D01*
X41868Y-20110D01*
X41866Y-20105D01*
X41695Y-19934D01*
X41471Y-19841D01*
X41229Y-19841D01*
X41005Y-19934D01*
X40850Y-20089D01*
X40695Y-19934D01*
X40471Y-19841D01*
X40229Y-19841D01*
X40005Y-19934D01*
X39850Y-20089D01*
X39695Y-19934D01*
X39471Y-19841D01*
X39229Y-19841D01*
X39005Y-19934D01*
X38850Y-20089D01*
X38695Y-19934D01*
X38471Y-19841D01*
X38229Y-19841D01*
X38005Y-19934D01*
X37850Y-20089D01*
X37695Y-19934D01*
X37471Y-19841D01*
X37229Y-19841D01*
X37005Y-19934D01*
X36850Y-20089D01*
X36695Y-19934D01*
X36471Y-19841D01*
X36229Y-19841D01*
X36005Y-19934D01*
X35834Y-20105D01*
X35741Y-20329D01*
X35741Y-20571D01*
X35834Y-20795D01*
X36005Y-20966D01*
X36229Y-21059D01*
X36471Y-21059D01*
X36695Y-20966D01*
X36850Y-20811D01*
X37005Y-20966D01*
X37229Y-21059D01*
X37471Y-21059D01*
X37695Y-20966D01*
X37850Y-20811D01*
X38005Y-20966D01*
X38229Y-21059D01*
X38471Y-21059D01*
X38695Y-20966D01*
X38850Y-20811D01*
X39005Y-20966D01*
X39229Y-21059D01*
X39471Y-21059D01*
X39695Y-20966D01*
X39850Y-20811D01*
X40005Y-20966D01*
X40229Y-21059D01*
X40471Y-21059D01*
X40695Y-20966D01*
X40850Y-20811D01*
X41005Y-20966D01*
X41229Y-21059D01*
X41471Y-21059D01*
X41695Y-20966D01*
X41866Y-20795D01*
X41868Y-20789D01*
X41921Y-20808D01*
X42279Y-20450D01*
X42279Y-20592D01*
X41992Y-20879D01*
X42027Y-20980D01*
X42255Y-21063D01*
X42496Y-21053D01*
X42673Y-20980D01*
X42708Y-20879D01*
X42708Y-25947D01*
X42695Y-25934D01*
X42471Y-25841D01*
X42229Y-25841D01*
X42005Y-25934D01*
X41850Y-26089D01*
X41695Y-25934D01*
X41471Y-25841D01*
X41229Y-25841D01*
X41005Y-25934D01*
X40850Y-26089D01*
X40695Y-25934D01*
X40471Y-25841D01*
X40229Y-25841D01*
X40005Y-25934D01*
X39850Y-26089D01*
X39695Y-25934D01*
X39471Y-25841D01*
X39229Y-25841D01*
X39005Y-25934D01*
X38850Y-26089D01*
X38695Y-25934D01*
X38471Y-25841D01*
X38229Y-25841D01*
X38005Y-25934D01*
X37850Y-26089D01*
X37695Y-25934D01*
X37471Y-25841D01*
X37229Y-25841D01*
X37005Y-25934D01*
X36941Y-25997D01*
X36921Y-25949D01*
X36851Y-25879D01*
X36760Y-25841D01*
X36661Y-25841D01*
X35941Y-25841D01*
X35849Y-25879D01*
X35779Y-25949D01*
X35741Y-26040D01*
X35741Y-26139D01*
X35741Y-26859D01*
X35779Y-26951D01*
X35849Y-27021D01*
X35940Y-27059D01*
X36039Y-27059D01*
X36549Y-27059D01*
X36691Y-27201D01*
X36785Y-27264D01*
X36896Y-27286D01*
X44186Y-27286D01*
X49187Y-32287D01*
X49187Y-34248D01*
X49166Y-34257D01*
X49026Y-34397D01*
X49026Y-34373D01*
X48988Y-34281D01*
X48918Y-34211D01*
X48827Y-34173D01*
X48728Y-34173D01*
X48128Y-34173D01*
X48036Y-34211D01*
X47966Y-34281D01*
X47928Y-34372D01*
X47928Y-34471D01*
X47928Y-35071D01*
X47966Y-35163D01*
X48036Y-35233D01*
X48127Y-35271D01*
X48226Y-35271D01*
X48826Y-35271D01*
X48918Y-35233D01*
X48988Y-35163D01*
X49026Y-35072D01*
X49026Y-35047D01*
X49166Y-35187D01*
X49368Y-35271D01*
X49586Y-35271D01*
X49788Y-35187D01*
X49942Y-35033D01*
X50026Y-34831D01*
X50026Y-34613D01*
X49942Y-34411D01*
X49788Y-34257D01*
X49767Y-34248D01*
X49767Y-32287D01*
X54588Y-27466D01*
X59646Y-27466D01*
X59581Y-27623D01*
X59581Y-27841D01*
X59589Y-27862D01*
X52049Y-35403D01*
X31089Y-35403D01*
X29063Y-33377D01*
X29187Y-33081D01*
X29187Y-32669D01*
X29030Y-32288D01*
X28738Y-31996D01*
X28357Y-31837D01*
X27945Y-31837D01*
X27564Y-31994D01*
X27272Y-32286D01*
X27113Y-32667D01*
X27113Y-33079D01*
X27270Y-33460D01*
X27562Y-33752D01*
X27673Y-33798D01*
X27564Y-33844D01*
X27272Y-34136D01*
X27113Y-34517D01*
X27113Y-34929D01*
X27270Y-35310D01*
X27562Y-35602D01*
X27943Y-35761D01*
X28355Y-35761D01*
X28736Y-35604D01*
X29028Y-35312D01*
X29187Y-34931D01*
X29187Y-34519D01*
X29048Y-34182D01*
X30763Y-35898D01*
X30764Y-35898D01*
X30858Y-35961D01*
X30969Y-35983D01*
X52169Y-35983D01*
X52280Y-35961D01*
X52374Y-35898D01*
X59999Y-28272D01*
X60021Y-28281D01*
X60239Y-28281D01*
X60441Y-28197D01*
X60581Y-28057D01*
X60581Y-28081D01*
X60619Y-28173D01*
X60689Y-28243D01*
X60780Y-28281D01*
X60879Y-28281D01*
X61479Y-28281D01*
X61571Y-28243D01*
X61641Y-28173D01*
X61679Y-28082D01*
X61679Y-36958D01*
X24066Y-36958D01*
X24066Y-18160D01*
X62548Y-18160D01*
X62548Y-36958D01*
X62548Y-36958D01*
G37*
G54D17*
X62548Y-36958D02*
X61679Y-36958D01*
X61679Y-28082D01*
X61679Y-27983D01*
X61679Y-27383D01*
X61641Y-27291D01*
X61571Y-27221D01*
X61480Y-27183D01*
X61455Y-27183D01*
X61595Y-27043D01*
X61679Y-26841D01*
X61679Y-26623D01*
X61595Y-26421D01*
X61441Y-26267D01*
X61356Y-26232D01*
X61441Y-26197D01*
X61595Y-26043D01*
X61679Y-25841D01*
X61679Y-25623D01*
X61595Y-25421D01*
X61441Y-25267D01*
X61239Y-25183D01*
X61021Y-25183D01*
X60819Y-25267D01*
X60665Y-25421D01*
X60632Y-25499D01*
X60610Y-25446D01*
X60515Y-25417D01*
X60445Y-25487D01*
X60445Y-25347D01*
X60416Y-25252D01*
X60211Y-25179D01*
X59993Y-25190D01*
X59844Y-25252D01*
X59815Y-25347D01*
X60130Y-25661D01*
X60445Y-25347D01*
X60445Y-25487D01*
X60201Y-25732D01*
X60130Y-25803D01*
X60059Y-25732D01*
X60024Y-25697D01*
X59745Y-25417D01*
X59650Y-25446D01*
X59577Y-25651D01*
X59583Y-25775D01*
X56356Y-22548D01*
X56262Y-22485D01*
X56151Y-22463D01*
X49773Y-22463D01*
X48369Y-21059D01*
X48471Y-21059D01*
X48695Y-20966D01*
X48850Y-20811D01*
X49005Y-20966D01*
X49229Y-21059D01*
X49471Y-21059D01*
X49695Y-20966D01*
X49850Y-20811D01*
X50005Y-20966D01*
X50229Y-21059D01*
X50471Y-21059D01*
X50695Y-20966D01*
X50850Y-20811D01*
X51005Y-20966D01*
X51229Y-21059D01*
X51471Y-21059D01*
X51695Y-20966D01*
X51850Y-20811D01*
X52005Y-20966D01*
X52229Y-21059D01*
X52471Y-21059D01*
X52695Y-20966D01*
X52850Y-20811D01*
X53005Y-20966D01*
X53229Y-21059D01*
X53471Y-21059D01*
X53695Y-20966D01*
X53850Y-20811D01*
X54005Y-20966D01*
X54229Y-21059D01*
X54471Y-21059D01*
X54695Y-20966D01*
X54850Y-20811D01*
X55005Y-20966D01*
X55229Y-21059D01*
X55471Y-21059D01*
X55695Y-20966D01*
X55866Y-20795D01*
X55959Y-20571D01*
X55959Y-20329D01*
X55866Y-20105D01*
X55695Y-19934D01*
X55471Y-19841D01*
X55229Y-19841D01*
X55005Y-19934D01*
X54850Y-20089D01*
X54695Y-19934D01*
X54471Y-19841D01*
X54229Y-19841D01*
X54005Y-19934D01*
X53850Y-20089D01*
X53695Y-19934D01*
X53471Y-19841D01*
X53229Y-19841D01*
X53005Y-19934D01*
X52850Y-20089D01*
X52695Y-19934D01*
X52471Y-19841D01*
X52229Y-19841D01*
X52005Y-19934D01*
X51850Y-20089D01*
X51695Y-19934D01*
X51471Y-19841D01*
X51229Y-19841D01*
X51005Y-19934D01*
X50850Y-20089D01*
X50695Y-19934D01*
X50471Y-19841D01*
X50229Y-19841D01*
X50005Y-19934D01*
X49850Y-20089D01*
X49695Y-19934D01*
X49471Y-19841D01*
X49229Y-19841D01*
X49005Y-19934D01*
X48850Y-20089D01*
X48695Y-19934D01*
X48471Y-19841D01*
X48229Y-19841D01*
X48005Y-19934D01*
X47850Y-20089D01*
X47695Y-19934D01*
X47471Y-19841D01*
X47229Y-19841D01*
X47005Y-19934D01*
X46850Y-20089D01*
X46695Y-19934D01*
X46471Y-19841D01*
X46229Y-19841D01*
X46005Y-19934D01*
X45850Y-20089D01*
X45695Y-19934D01*
X45471Y-19841D01*
X45229Y-19841D01*
X45005Y-19934D01*
X44850Y-20089D01*
X44695Y-19934D01*
X44471Y-19841D01*
X44229Y-19841D01*
X44005Y-19934D01*
X43850Y-20089D01*
X43695Y-19934D01*
X43471Y-19841D01*
X43229Y-19841D01*
X43005Y-19934D01*
X42834Y-20105D01*
X42831Y-20110D01*
X42779Y-20092D01*
X42708Y-20163D01*
X42708Y-20021D01*
X42673Y-19920D01*
X42445Y-19837D01*
X42204Y-19847D01*
X42027Y-19920D01*
X41992Y-20021D01*
X42350Y-20379D01*
X42708Y-20021D01*
X42708Y-20163D01*
X42421Y-20450D01*
X42779Y-20808D01*
X42831Y-20789D01*
X42834Y-20795D01*
X43005Y-20966D01*
X43229Y-21059D01*
X43471Y-21059D01*
X43695Y-20966D01*
X43850Y-20811D01*
X44005Y-20966D01*
X44229Y-21059D01*
X44471Y-21059D01*
X44695Y-20966D01*
X44850Y-20811D01*
X45005Y-20966D01*
X45229Y-21059D01*
X45471Y-21059D01*
X45695Y-20966D01*
X45850Y-20811D01*
X46005Y-20966D01*
X46229Y-21059D01*
X46471Y-21059D01*
X46695Y-20966D01*
X46850Y-20811D01*
X47005Y-20966D01*
X47229Y-21059D01*
X47471Y-21059D01*
X47526Y-21036D01*
X49447Y-22957D01*
X49448Y-22958D01*
X49541Y-23020D01*
X49542Y-23021D01*
X49652Y-23042D01*
X49653Y-23043D01*
X56031Y-23043D01*
X59589Y-26601D01*
X59581Y-26623D01*
X59581Y-26841D01*
X59599Y-26886D01*
X55775Y-26886D01*
X55866Y-26795D01*
X55959Y-26571D01*
X55959Y-26329D01*
X55866Y-26105D01*
X55695Y-25934D01*
X55471Y-25841D01*
X55229Y-25841D01*
X55005Y-25934D01*
X54850Y-26089D01*
X54695Y-25934D01*
X54471Y-25841D01*
X54229Y-25841D01*
X54005Y-25934D01*
X53850Y-26089D01*
X53695Y-25934D01*
X53471Y-25841D01*
X53229Y-25841D01*
X53005Y-25934D01*
X52850Y-26089D01*
X52695Y-25934D01*
X52471Y-25841D01*
X52229Y-25841D01*
X52005Y-25934D01*
X51850Y-26089D01*
X51695Y-25934D01*
X51471Y-25841D01*
X51229Y-25841D01*
X51005Y-25934D01*
X50850Y-26089D01*
X50695Y-25934D01*
X50471Y-25841D01*
X50229Y-25841D01*
X50005Y-25934D01*
X49850Y-26089D01*
X49695Y-25934D01*
X49471Y-25841D01*
X49229Y-25841D01*
X49005Y-25934D01*
X48850Y-26089D01*
X48695Y-25934D01*
X48471Y-25841D01*
X48229Y-25841D01*
X48005Y-25934D01*
X47834Y-26105D01*
X47831Y-26110D01*
X47779Y-26092D01*
X47708Y-26163D01*
X47708Y-26021D01*
X47673Y-25920D01*
X47445Y-25837D01*
X47204Y-25847D01*
X47027Y-25920D01*
X46992Y-26021D01*
X47350Y-26379D01*
X47708Y-26021D01*
X47708Y-26163D01*
X47421Y-26450D01*
X47779Y-26808D01*
X47831Y-26789D01*
X47834Y-26795D01*
X48005Y-26966D01*
X48229Y-27059D01*
X48471Y-27059D01*
X48695Y-26966D01*
X48850Y-26811D01*
X49005Y-26966D01*
X49229Y-27059D01*
X49471Y-27059D01*
X49695Y-26966D01*
X49850Y-26811D01*
X50005Y-26966D01*
X50229Y-27059D01*
X50471Y-27059D01*
X50695Y-26966D01*
X50850Y-26811D01*
X51005Y-26966D01*
X51229Y-27059D01*
X51471Y-27059D01*
X51695Y-26966D01*
X51850Y-26811D01*
X52005Y-26966D01*
X52229Y-27059D01*
X52471Y-27059D01*
X52695Y-26966D01*
X52850Y-26811D01*
X53005Y-26966D01*
X53229Y-27059D01*
X53471Y-27059D01*
X53695Y-26966D01*
X53850Y-26811D01*
X54005Y-26966D01*
X54190Y-27043D01*
X49477Y-31757D01*
X47708Y-29988D01*
X47708Y-26879D01*
X47350Y-26521D01*
X46992Y-26879D01*
X47027Y-26980D01*
X47255Y-27063D01*
X47496Y-27053D01*
X47673Y-26980D01*
X47708Y-26879D01*
X47708Y-29988D01*
X44688Y-26968D01*
X44695Y-26966D01*
X44850Y-26811D01*
X45005Y-26966D01*
X45229Y-27059D01*
X45471Y-27059D01*
X45695Y-26966D01*
X45850Y-26811D01*
X46005Y-26966D01*
X46229Y-27059D01*
X46471Y-27059D01*
X46695Y-26966D01*
X46866Y-26795D01*
X46868Y-26789D01*
X46921Y-26808D01*
X47279Y-26450D01*
X46921Y-26092D01*
X46868Y-26110D01*
X46866Y-26105D01*
X46695Y-25934D01*
X46471Y-25841D01*
X46229Y-25841D01*
X46005Y-25934D01*
X45850Y-26089D01*
X45695Y-25934D01*
X45471Y-25841D01*
X45229Y-25841D01*
X45005Y-25934D01*
X44850Y-26089D01*
X44695Y-25934D01*
X44471Y-25841D01*
X44229Y-25841D01*
X44005Y-25934D01*
X43834Y-26105D01*
X43831Y-26110D01*
X43779Y-26092D01*
X43708Y-26163D01*
X43708Y-26021D01*
X43673Y-25920D01*
X43445Y-25837D01*
X43204Y-25847D01*
X43027Y-25920D01*
X42992Y-26021D01*
X43350Y-26379D01*
X43708Y-26021D01*
X43708Y-26163D01*
X43456Y-26415D01*
X43421Y-26450D01*
X43350Y-26521D01*
X43279Y-26450D01*
X43244Y-26415D01*
X42921Y-26092D01*
X42868Y-26110D01*
X42866Y-26105D01*
X42708Y-25947D01*
X42708Y-20879D01*
X42350Y-20521D01*
X42279Y-20592D01*
X42279Y-20450D01*
X41921Y-20092D01*
X41868Y-20110D01*
X41866Y-20105D01*
X41695Y-19934D01*
X41471Y-19841D01*
X41229Y-19841D01*
X41005Y-19934D01*
X40850Y-20089D01*
X40695Y-19934D01*
X40471Y-19841D01*
X40229Y-19841D01*
X40005Y-19934D01*
X39850Y-20089D01*
X39695Y-19934D01*
X39471Y-19841D01*
X39229Y-19841D01*
X39005Y-19934D01*
X38850Y-20089D01*
X38695Y-19934D01*
X38471Y-19841D01*
X38229Y-19841D01*
X38005Y-19934D01*
X37850Y-20089D01*
X37695Y-19934D01*
X37471Y-19841D01*
X37229Y-19841D01*
X37005Y-19934D01*
X36850Y-20089D01*
X36695Y-19934D01*
X36471Y-19841D01*
X36229Y-19841D01*
X36005Y-19934D01*
X35834Y-20105D01*
X35741Y-20329D01*
X35741Y-20571D01*
X35834Y-20795D01*
X36005Y-20966D01*
X36229Y-21059D01*
X36471Y-21059D01*
X36695Y-20966D01*
X36850Y-20811D01*
X37005Y-20966D01*
X37229Y-21059D01*
X37471Y-21059D01*
X37695Y-20966D01*
X37850Y-20811D01*
X38005Y-20966D01*
X38229Y-21059D01*
X38471Y-21059D01*
X38695Y-20966D01*
X38850Y-20811D01*
X39005Y-20966D01*
X39229Y-21059D01*
X39471Y-21059D01*
X39695Y-20966D01*
X39850Y-20811D01*
X40005Y-20966D01*
X40229Y-21059D01*
X40471Y-21059D01*
X40695Y-20966D01*
X40850Y-20811D01*
X41005Y-20966D01*
X41229Y-21059D01*
X41471Y-21059D01*
X41695Y-20966D01*
X41866Y-20795D01*
X41868Y-20789D01*
X41921Y-20808D01*
X42279Y-20450D01*
X42279Y-20592D01*
X41992Y-20879D01*
X42027Y-20980D01*
X42255Y-21063D01*
X42496Y-21053D01*
X42673Y-20980D01*
X42708Y-20879D01*
X42708Y-25947D01*
X42695Y-25934D01*
X42471Y-25841D01*
X42229Y-25841D01*
X42005Y-25934D01*
X41850Y-26089D01*
X41695Y-25934D01*
X41471Y-25841D01*
X41229Y-25841D01*
X41005Y-25934D01*
X40850Y-26089D01*
X40695Y-25934D01*
X40471Y-25841D01*
X40229Y-25841D01*
X40005Y-25934D01*
X39850Y-26089D01*
X39695Y-25934D01*
X39471Y-25841D01*
X39229Y-25841D01*
X39005Y-25934D01*
X38850Y-26089D01*
X38695Y-25934D01*
X38471Y-25841D01*
X38229Y-25841D01*
X38005Y-25934D01*
X37850Y-26089D01*
X37695Y-25934D01*
X37471Y-25841D01*
X37229Y-25841D01*
X37005Y-25934D01*
X36941Y-25997D01*
X36921Y-25949D01*
X36851Y-25879D01*
X36760Y-25841D01*
X36661Y-25841D01*
X35941Y-25841D01*
X35849Y-25879D01*
X35779Y-25949D01*
X35741Y-26040D01*
X35741Y-26139D01*
X35741Y-26859D01*
X35779Y-26951D01*
X35849Y-27021D01*
X35940Y-27059D01*
X36039Y-27059D01*
X36549Y-27059D01*
X36691Y-27201D01*
X36785Y-27264D01*
X36896Y-27286D01*
X44186Y-27286D01*
X49187Y-32287D01*
X49187Y-34248D01*
X49166Y-34257D01*
X49026Y-34397D01*
X49026Y-34373D01*
X48988Y-34281D01*
X48918Y-34211D01*
X48827Y-34173D01*
X48728Y-34173D01*
X48128Y-34173D01*
X48036Y-34211D01*
X47966Y-34281D01*
X47928Y-34372D01*
X47928Y-34471D01*
X47928Y-35071D01*
X47966Y-35163D01*
X48036Y-35233D01*
X48127Y-35271D01*
X48226Y-35271D01*
X48826Y-35271D01*
X48918Y-35233D01*
X48988Y-35163D01*
X49026Y-35072D01*
X49026Y-35047D01*
X49166Y-35187D01*
X49368Y-35271D01*
X49586Y-35271D01*
X49788Y-35187D01*
X49942Y-35033D01*
X50026Y-34831D01*
X50026Y-34613D01*
X49942Y-34411D01*
X49788Y-34257D01*
X49767Y-34248D01*
X49767Y-32287D01*
X54588Y-27466D01*
X59646Y-27466D01*
X59581Y-27623D01*
X59581Y-27841D01*
X59589Y-27862D01*
X52049Y-35403D01*
X31089Y-35403D01*
X29063Y-33377D01*
X29187Y-33081D01*
X29187Y-32669D01*
X29030Y-32288D01*
X28738Y-31996D01*
X28357Y-31837D01*
X27945Y-31837D01*
X27564Y-31994D01*
X27272Y-32286D01*
X27113Y-32667D01*
X27113Y-33079D01*
X27270Y-33460D01*
X27562Y-33752D01*
X27673Y-33798D01*
X27564Y-33844D01*
X27272Y-34136D01*
X27113Y-34517D01*
X27113Y-34929D01*
X27270Y-35310D01*
X27562Y-35602D01*
X27943Y-35761D01*
X28355Y-35761D01*
X28736Y-35604D01*
X29028Y-35312D01*
X29187Y-34931D01*
X29187Y-34519D01*
X29048Y-34182D01*
X30763Y-35898D01*
X30764Y-35898D01*
X30858Y-35961D01*
X30969Y-35983D01*
X52169Y-35983D01*
X52280Y-35961D01*
X52374Y-35898D01*
X59999Y-28272D01*
X60021Y-28281D01*
X60239Y-28281D01*
X60441Y-28197D01*
X60581Y-28057D01*
X60581Y-28081D01*
X60619Y-28173D01*
X60689Y-28243D01*
X60780Y-28281D01*
X60879Y-28281D01*
X61479Y-28281D01*
X61571Y-28243D01*
X61641Y-28173D01*
X61679Y-28082D01*
X61679Y-36958D01*
X24066Y-36958D01*
X24066Y-18160D01*
X62548Y-18160D01*
X62548Y-36958D01*
M02*
