G04 (created by PCBNEW-RS274X (2012-01-18 BZR 3371)-testing) date Fri 30 Mar 2012 10:13:31 PM EDT*
G01*
G70*
G90*
%MOIN*%
G04 Gerber Fmt 3.4, Leading zero omitted, Abs format*
%FSLAX34Y34*%
G04 APERTURE LIST*
%ADD10C,0.006000*%
%ADD11C,0.007500*%
%ADD12C,0.015000*%
%ADD13C,0.012000*%
%ADD14C,0.005000*%
%ADD15C,0.010000*%
%ADD16C,0.008000*%
%ADD17C,0.012500*%
%ADD18C,0.011300*%
G04 APERTURE END LIST*
G54D10*
G54D11*
X25552Y-36811D02*
X25552Y-36511D01*
X25705Y-36511D01*
X25743Y-36526D01*
X25762Y-36540D01*
X25781Y-36569D01*
X25781Y-36611D01*
X25762Y-36640D01*
X25743Y-36654D01*
X25705Y-36669D01*
X25552Y-36669D01*
X25952Y-36811D02*
X25952Y-36511D01*
X26047Y-36511D01*
X26105Y-36526D01*
X26143Y-36554D01*
X26162Y-36583D01*
X26181Y-36640D01*
X26181Y-36683D01*
X26162Y-36740D01*
X26143Y-36769D01*
X26105Y-36797D01*
X26047Y-36811D01*
X25952Y-36811D01*
X26352Y-36811D02*
X26352Y-36511D01*
X26542Y-36811D02*
X26542Y-36511D01*
X26695Y-36511D01*
X26733Y-36526D01*
X26752Y-36540D01*
X26771Y-36569D01*
X26771Y-36611D01*
X26752Y-36640D01*
X26733Y-36654D01*
X26695Y-36669D01*
X26542Y-36669D01*
X26942Y-36697D02*
X27247Y-36697D01*
X27418Y-36540D02*
X27437Y-36526D01*
X27475Y-36511D01*
X27571Y-36511D01*
X27609Y-36526D01*
X27628Y-36540D01*
X27647Y-36569D01*
X27647Y-36597D01*
X27628Y-36640D01*
X27399Y-36811D01*
X27647Y-36811D01*
X27875Y-36640D02*
X27837Y-36626D01*
X27818Y-36611D01*
X27799Y-36583D01*
X27799Y-36569D01*
X27818Y-36540D01*
X27837Y-36526D01*
X27875Y-36511D01*
X27952Y-36511D01*
X27990Y-36526D01*
X28009Y-36540D01*
X28028Y-36569D01*
X28028Y-36583D01*
X28009Y-36611D01*
X27990Y-36626D01*
X27952Y-36640D01*
X27875Y-36640D01*
X27837Y-36654D01*
X27818Y-36669D01*
X27799Y-36697D01*
X27799Y-36754D01*
X27818Y-36783D01*
X27837Y-36797D01*
X27875Y-36811D01*
X27952Y-36811D01*
X27990Y-36797D01*
X28009Y-36783D01*
X28028Y-36754D01*
X28028Y-36697D01*
X28009Y-36669D01*
X27990Y-36654D01*
X27952Y-36640D01*
X28199Y-36697D02*
X28504Y-36697D01*
X28694Y-36811D02*
X28694Y-36511D01*
X28847Y-36511D01*
X28885Y-36526D01*
X28904Y-36540D01*
X28923Y-36569D01*
X28923Y-36611D01*
X28904Y-36640D01*
X28885Y-36654D01*
X28847Y-36669D01*
X28694Y-36669D01*
X29094Y-36811D02*
X29094Y-36511D01*
X29284Y-36811D02*
X29284Y-36511D01*
X29513Y-36811D01*
X29513Y-36511D01*
X29818Y-36926D02*
X29798Y-36911D01*
X29760Y-36869D01*
X29741Y-36840D01*
X29722Y-36797D01*
X29703Y-36726D01*
X29703Y-36669D01*
X29722Y-36597D01*
X29741Y-36554D01*
X29760Y-36526D01*
X29798Y-36483D01*
X29818Y-36469D01*
X30180Y-36811D02*
X29951Y-36811D01*
X30065Y-36811D02*
X30065Y-36511D01*
X30027Y-36554D01*
X29989Y-36583D01*
X29951Y-36597D01*
X30313Y-36926D02*
X30332Y-36911D01*
X30370Y-36869D01*
X30389Y-36840D01*
X30408Y-36797D01*
X30427Y-36726D01*
X30427Y-36669D01*
X30408Y-36597D01*
X30389Y-36554D01*
X30370Y-36526D01*
X30332Y-36483D01*
X30313Y-36469D01*
G54D12*
X26430Y-35230D02*
X26430Y-36120D01*
G54D13*
X38915Y-37760D02*
X39153Y-37760D01*
X38868Y-37902D02*
X39034Y-37402D01*
X39201Y-37902D01*
X39297Y-37402D02*
X39582Y-37402D01*
X39439Y-37902D02*
X39439Y-37402D01*
X39678Y-37569D02*
X39868Y-37569D01*
X39749Y-37402D02*
X39749Y-37831D01*
X39773Y-37879D01*
X39820Y-37902D01*
X39868Y-37902D01*
X40035Y-37902D02*
X40035Y-37569D01*
X40035Y-37402D02*
X40011Y-37426D01*
X40035Y-37450D01*
X40059Y-37426D01*
X40035Y-37402D01*
X40035Y-37450D01*
X40273Y-37569D02*
X40273Y-37902D01*
X40273Y-37617D02*
X40297Y-37593D01*
X40344Y-37569D01*
X40416Y-37569D01*
X40464Y-37593D01*
X40487Y-37640D01*
X40487Y-37902D01*
X40677Y-37569D02*
X40796Y-37902D01*
X40916Y-37569D02*
X40796Y-37902D01*
X40749Y-38021D01*
X40725Y-38045D01*
X40677Y-38069D01*
X41177Y-37617D02*
X41130Y-37593D01*
X41106Y-37569D01*
X41082Y-37521D01*
X41082Y-37498D01*
X41106Y-37450D01*
X41130Y-37426D01*
X41177Y-37402D01*
X41273Y-37402D01*
X41320Y-37426D01*
X41344Y-37450D01*
X41368Y-37498D01*
X41368Y-37521D01*
X41344Y-37569D01*
X41320Y-37593D01*
X41273Y-37617D01*
X41177Y-37617D01*
X41130Y-37640D01*
X41106Y-37664D01*
X41082Y-37712D01*
X41082Y-37807D01*
X41106Y-37855D01*
X41130Y-37879D01*
X41177Y-37902D01*
X41273Y-37902D01*
X41320Y-37879D01*
X41344Y-37855D01*
X41368Y-37807D01*
X41368Y-37712D01*
X41344Y-37664D01*
X41320Y-37640D01*
X41273Y-37617D01*
X41820Y-37402D02*
X41582Y-37402D01*
X41558Y-37640D01*
X41582Y-37617D01*
X41630Y-37593D01*
X41749Y-37593D01*
X41796Y-37617D01*
X41820Y-37640D01*
X41844Y-37688D01*
X41844Y-37807D01*
X41820Y-37855D01*
X41796Y-37879D01*
X41749Y-37902D01*
X41630Y-37902D01*
X41582Y-37879D01*
X41558Y-37855D01*
X42082Y-37879D02*
X42082Y-37902D01*
X42058Y-37950D01*
X42034Y-37974D01*
X42653Y-37760D02*
X42891Y-37760D01*
X42606Y-37902D02*
X42772Y-37402D01*
X42939Y-37902D01*
X43035Y-37402D02*
X43320Y-37402D01*
X43177Y-37902D02*
X43177Y-37402D01*
X43487Y-37902D02*
X43487Y-37402D01*
X43654Y-37760D01*
X43820Y-37402D01*
X43820Y-37902D01*
X44249Y-37879D02*
X44201Y-37902D01*
X44106Y-37902D01*
X44058Y-37879D01*
X44034Y-37831D01*
X44034Y-37640D01*
X44058Y-37593D01*
X44106Y-37569D01*
X44201Y-37569D01*
X44249Y-37593D01*
X44272Y-37640D01*
X44272Y-37688D01*
X44034Y-37736D01*
X44701Y-37569D02*
X44701Y-37974D01*
X44678Y-38021D01*
X44654Y-38045D01*
X44606Y-38069D01*
X44535Y-38069D01*
X44487Y-38045D01*
X44701Y-37879D02*
X44654Y-37902D01*
X44558Y-37902D01*
X44511Y-37879D01*
X44487Y-37855D01*
X44463Y-37807D01*
X44463Y-37664D01*
X44487Y-37617D01*
X44511Y-37593D01*
X44558Y-37569D01*
X44654Y-37569D01*
X44701Y-37593D01*
X45153Y-37902D02*
X45153Y-37640D01*
X45130Y-37593D01*
X45082Y-37569D01*
X44987Y-37569D01*
X44939Y-37593D01*
X45153Y-37879D02*
X45106Y-37902D01*
X44987Y-37902D01*
X44939Y-37879D01*
X44915Y-37831D01*
X44915Y-37783D01*
X44939Y-37736D01*
X44987Y-37712D01*
X45106Y-37712D01*
X45153Y-37688D01*
X45343Y-37402D02*
X45653Y-37402D01*
X45486Y-37593D01*
X45558Y-37593D01*
X45605Y-37617D01*
X45629Y-37640D01*
X45653Y-37688D01*
X45653Y-37807D01*
X45629Y-37855D01*
X45605Y-37879D01*
X45558Y-37902D01*
X45415Y-37902D01*
X45367Y-37879D01*
X45343Y-37855D01*
X45843Y-37450D02*
X45867Y-37426D01*
X45915Y-37402D01*
X46034Y-37402D01*
X46081Y-37426D01*
X46105Y-37450D01*
X46129Y-37498D01*
X46129Y-37545D01*
X46105Y-37617D01*
X45819Y-37902D01*
X46129Y-37902D01*
X46414Y-37617D02*
X46367Y-37593D01*
X46343Y-37569D01*
X46319Y-37521D01*
X46319Y-37498D01*
X46343Y-37450D01*
X46367Y-37426D01*
X46414Y-37402D01*
X46510Y-37402D01*
X46557Y-37426D01*
X46581Y-37450D01*
X46605Y-37498D01*
X46605Y-37521D01*
X46581Y-37569D01*
X46557Y-37593D01*
X46510Y-37617D01*
X46414Y-37617D01*
X46367Y-37640D01*
X46343Y-37664D01*
X46319Y-37712D01*
X46319Y-37807D01*
X46343Y-37855D01*
X46367Y-37879D01*
X46414Y-37902D01*
X46510Y-37902D01*
X46557Y-37879D01*
X46581Y-37855D01*
X46605Y-37807D01*
X46605Y-37712D01*
X46581Y-37664D01*
X46557Y-37640D01*
X46510Y-37617D01*
G54D12*
X37850Y-24730D02*
X38550Y-24730D01*
G54D11*
X34873Y-35171D02*
X34873Y-34871D01*
X35026Y-34871D01*
X35064Y-34886D01*
X35083Y-34900D01*
X35102Y-34929D01*
X35102Y-34971D01*
X35083Y-35000D01*
X35064Y-35014D01*
X35026Y-35029D01*
X34873Y-35029D01*
X35273Y-35171D02*
X35273Y-34871D01*
X35368Y-34871D01*
X35426Y-34886D01*
X35464Y-34914D01*
X35483Y-34943D01*
X35502Y-35000D01*
X35502Y-35043D01*
X35483Y-35100D01*
X35464Y-35129D01*
X35426Y-35157D01*
X35368Y-35171D01*
X35273Y-35171D01*
X35673Y-35171D02*
X35673Y-34871D01*
X35863Y-35171D02*
X35863Y-34871D01*
X36016Y-34871D01*
X36054Y-34886D01*
X36073Y-34900D01*
X36092Y-34929D01*
X36092Y-34971D01*
X36073Y-35000D01*
X36054Y-35014D01*
X36016Y-35029D01*
X35863Y-35029D01*
X36263Y-35057D02*
X36568Y-35057D01*
X36815Y-35000D02*
X36777Y-34986D01*
X36758Y-34971D01*
X36739Y-34943D01*
X36739Y-34929D01*
X36758Y-34900D01*
X36777Y-34886D01*
X36815Y-34871D01*
X36892Y-34871D01*
X36930Y-34886D01*
X36949Y-34900D01*
X36968Y-34929D01*
X36968Y-34943D01*
X36949Y-34971D01*
X36930Y-34986D01*
X36892Y-35000D01*
X36815Y-35000D01*
X36777Y-35014D01*
X36758Y-35029D01*
X36739Y-35057D01*
X36739Y-35114D01*
X36758Y-35143D01*
X36777Y-35157D01*
X36815Y-35171D01*
X36892Y-35171D01*
X36930Y-35157D01*
X36949Y-35143D01*
X36968Y-35114D01*
X36968Y-35057D01*
X36949Y-35029D01*
X36930Y-35014D01*
X36892Y-35000D01*
X37139Y-35057D02*
X37444Y-35057D01*
X37634Y-35171D02*
X37634Y-34871D01*
X37787Y-34871D01*
X37825Y-34886D01*
X37844Y-34900D01*
X37863Y-34929D01*
X37863Y-34971D01*
X37844Y-35000D01*
X37825Y-35014D01*
X37787Y-35029D01*
X37634Y-35029D01*
X38034Y-35171D02*
X38034Y-34871D01*
X38224Y-35171D02*
X38224Y-34871D01*
X38453Y-35171D01*
X38453Y-34871D01*
X38758Y-35286D02*
X38738Y-35271D01*
X38700Y-35229D01*
X38681Y-35200D01*
X38662Y-35157D01*
X38643Y-35086D01*
X38643Y-35029D01*
X38662Y-34957D01*
X38681Y-34914D01*
X38700Y-34886D01*
X38738Y-34843D01*
X38758Y-34829D01*
X39120Y-35171D02*
X38891Y-35171D01*
X39005Y-35171D02*
X39005Y-34871D01*
X38967Y-34914D01*
X38929Y-34943D01*
X38891Y-34957D01*
X39253Y-35286D02*
X39272Y-35271D01*
X39310Y-35229D01*
X39329Y-35200D01*
X39348Y-35157D01*
X39367Y-35086D01*
X39367Y-35029D01*
X39348Y-34957D01*
X39329Y-34914D01*
X39310Y-34886D01*
X39272Y-34843D01*
X39253Y-34829D01*
G54D12*
X34580Y-34540D02*
X34580Y-35650D01*
X25490Y-25990D02*
X25490Y-24080D01*
X31510Y-25990D02*
X25490Y-25990D01*
X31510Y-24080D02*
X31510Y-25990D01*
X25510Y-24080D02*
X31510Y-24080D01*
G54D14*
X26496Y-25541D02*
X26496Y-25341D01*
X26572Y-25341D01*
X26591Y-25350D01*
X26600Y-25360D01*
X26610Y-25379D01*
X26610Y-25408D01*
X26600Y-25427D01*
X26591Y-25436D01*
X26572Y-25446D01*
X26496Y-25446D01*
X26696Y-25541D02*
X26696Y-25341D01*
X26743Y-25341D01*
X26772Y-25350D01*
X26791Y-25370D01*
X26800Y-25389D01*
X26810Y-25427D01*
X26810Y-25455D01*
X26800Y-25493D01*
X26791Y-25512D01*
X26772Y-25531D01*
X26743Y-25541D01*
X26696Y-25541D01*
X26896Y-25541D02*
X26896Y-25341D01*
X26991Y-25541D02*
X26991Y-25341D01*
X27067Y-25341D01*
X27086Y-25350D01*
X27095Y-25360D01*
X27105Y-25379D01*
X27105Y-25408D01*
X27095Y-25427D01*
X27086Y-25436D01*
X27067Y-25446D01*
X26991Y-25446D01*
X27191Y-25465D02*
X27343Y-25465D01*
X27467Y-25427D02*
X27448Y-25417D01*
X27439Y-25408D01*
X27429Y-25389D01*
X27429Y-25379D01*
X27439Y-25360D01*
X27448Y-25350D01*
X27467Y-25341D01*
X27505Y-25341D01*
X27524Y-25350D01*
X27534Y-25360D01*
X27543Y-25379D01*
X27543Y-25389D01*
X27534Y-25408D01*
X27524Y-25417D01*
X27505Y-25427D01*
X27467Y-25427D01*
X27448Y-25436D01*
X27439Y-25446D01*
X27429Y-25465D01*
X27429Y-25503D01*
X27439Y-25522D01*
X27448Y-25531D01*
X27467Y-25541D01*
X27505Y-25541D01*
X27524Y-25531D01*
X27534Y-25522D01*
X27543Y-25503D01*
X27543Y-25465D01*
X27534Y-25446D01*
X27524Y-25436D01*
X27505Y-25427D01*
X27838Y-25608D02*
X27790Y-25608D01*
X27790Y-25322D01*
X27838Y-25322D01*
X27914Y-25541D02*
X27914Y-25341D01*
X27990Y-25341D01*
X28009Y-25350D01*
X28018Y-25360D01*
X28028Y-25379D01*
X28028Y-25408D01*
X28018Y-25427D01*
X28009Y-25436D01*
X27990Y-25446D01*
X27914Y-25446D01*
X28218Y-25541D02*
X28104Y-25541D01*
X28161Y-25541D02*
X28161Y-25341D01*
X28142Y-25370D01*
X28123Y-25389D01*
X28104Y-25398D01*
X28285Y-25608D02*
X28332Y-25608D01*
X28332Y-25322D01*
X28285Y-25322D01*
X28589Y-25465D02*
X28741Y-25465D01*
X28837Y-25465D02*
X28989Y-25465D01*
X29218Y-25341D02*
X29351Y-25341D01*
X29218Y-25541D01*
X29351Y-25541D01*
X29427Y-25541D02*
X29427Y-25341D01*
X29588Y-25436D02*
X29522Y-25436D01*
X29522Y-25541D02*
X29522Y-25341D01*
X29617Y-25341D01*
X29902Y-25608D02*
X29854Y-25608D01*
X29854Y-25322D01*
X29902Y-25322D01*
X29978Y-25541D02*
X29978Y-25341D01*
X30054Y-25341D01*
X30073Y-25350D01*
X30082Y-25360D01*
X30092Y-25379D01*
X30092Y-25408D01*
X30082Y-25427D01*
X30073Y-25436D01*
X30054Y-25446D01*
X29978Y-25446D01*
X30187Y-25541D02*
X30225Y-25541D01*
X30244Y-25531D01*
X30254Y-25522D01*
X30273Y-25493D01*
X30282Y-25455D01*
X30282Y-25379D01*
X30273Y-25360D01*
X30263Y-25350D01*
X30244Y-25341D01*
X30206Y-25341D01*
X30187Y-25350D01*
X30178Y-25360D01*
X30168Y-25379D01*
X30168Y-25427D01*
X30178Y-25446D01*
X30187Y-25455D01*
X30206Y-25465D01*
X30244Y-25465D01*
X30263Y-25455D01*
X30273Y-25446D01*
X30282Y-25427D01*
X30349Y-25608D02*
X30396Y-25608D01*
X30396Y-25322D01*
X30349Y-25322D01*
G54D15*
X25872Y-24901D02*
X26063Y-24901D01*
X25834Y-25073D02*
X25967Y-24473D01*
X26101Y-25073D01*
X26177Y-24473D02*
X26310Y-25073D01*
X26444Y-24473D01*
X26806Y-25073D02*
X26672Y-24787D01*
X26577Y-25073D02*
X26577Y-24473D01*
X26730Y-24473D01*
X26768Y-24501D01*
X26787Y-24530D01*
X26806Y-24587D01*
X26806Y-24673D01*
X26787Y-24730D01*
X26768Y-24759D01*
X26730Y-24787D01*
X26577Y-24787D01*
X27282Y-25073D02*
X27282Y-24473D01*
X27435Y-24473D01*
X27473Y-24501D01*
X27492Y-24530D01*
X27511Y-24587D01*
X27511Y-24673D01*
X27492Y-24730D01*
X27473Y-24759D01*
X27435Y-24787D01*
X27282Y-24787D01*
X27911Y-25073D02*
X27777Y-24787D01*
X27682Y-25073D02*
X27682Y-24473D01*
X27835Y-24473D01*
X27873Y-24501D01*
X27892Y-24530D01*
X27911Y-24587D01*
X27911Y-24673D01*
X27892Y-24730D01*
X27873Y-24759D01*
X27835Y-24787D01*
X27682Y-24787D01*
X28158Y-24473D02*
X28235Y-24473D01*
X28273Y-24501D01*
X28311Y-24559D01*
X28330Y-24673D01*
X28330Y-24873D01*
X28311Y-24987D01*
X28273Y-25044D01*
X28235Y-25073D01*
X28158Y-25073D01*
X28120Y-25044D01*
X28082Y-24987D01*
X28063Y-24873D01*
X28063Y-24673D01*
X28082Y-24559D01*
X28120Y-24501D01*
X28158Y-24473D01*
X28711Y-24501D02*
X28673Y-24473D01*
X28616Y-24473D01*
X28558Y-24501D01*
X28520Y-24559D01*
X28501Y-24616D01*
X28482Y-24730D01*
X28482Y-24816D01*
X28501Y-24930D01*
X28520Y-24987D01*
X28558Y-25044D01*
X28616Y-25073D01*
X28654Y-25073D01*
X28711Y-25044D01*
X28730Y-25016D01*
X28730Y-24816D01*
X28654Y-24816D01*
X29130Y-25073D02*
X28996Y-24787D01*
X28901Y-25073D02*
X28901Y-24473D01*
X29054Y-24473D01*
X29092Y-24501D01*
X29111Y-24530D01*
X29130Y-24587D01*
X29130Y-24673D01*
X29111Y-24730D01*
X29092Y-24759D01*
X29054Y-24787D01*
X28901Y-24787D01*
X29282Y-24901D02*
X29473Y-24901D01*
X29244Y-25073D02*
X29377Y-24473D01*
X29511Y-25073D01*
X29644Y-25073D02*
X29644Y-24473D01*
X29778Y-24901D01*
X29911Y-24473D01*
X29911Y-25073D01*
X30101Y-25073D02*
X30101Y-24473D01*
X30235Y-24901D01*
X30368Y-24473D01*
X30368Y-25073D01*
X30558Y-24759D02*
X30692Y-24759D01*
X30749Y-25073D02*
X30558Y-25073D01*
X30558Y-24473D01*
X30749Y-24473D01*
X31149Y-25073D02*
X31015Y-24787D01*
X30920Y-25073D02*
X30920Y-24473D01*
X31073Y-24473D01*
X31111Y-24501D01*
X31130Y-24530D01*
X31149Y-24587D01*
X31149Y-24673D01*
X31130Y-24730D01*
X31111Y-24759D01*
X31073Y-24787D01*
X30920Y-24787D01*
G54D13*
X37572Y-24924D02*
X37229Y-24924D01*
X37401Y-24924D02*
X37401Y-24124D01*
X37344Y-24238D01*
X37286Y-24314D01*
X37229Y-24352D01*
G54D14*
X39060Y-35770D02*
X39430Y-35770D01*
X39030Y-35150D02*
X39430Y-35150D01*
X40230Y-35770D02*
X39850Y-35770D01*
X40230Y-35150D02*
X39840Y-35150D01*
X39030Y-35760D02*
X39029Y-35769D01*
X39026Y-35779D01*
X39021Y-35787D01*
X39015Y-35795D01*
X39007Y-35801D01*
X38999Y-35806D01*
X38990Y-35808D01*
X38980Y-35809D01*
X38971Y-35809D01*
X38962Y-35806D01*
X38953Y-35801D01*
X38946Y-35795D01*
X38939Y-35788D01*
X38935Y-35779D01*
X38932Y-35770D01*
X38931Y-35760D01*
X38931Y-35751D01*
X38934Y-35742D01*
X38938Y-35733D01*
X38945Y-35726D01*
X38952Y-35719D01*
X38960Y-35715D01*
X38970Y-35712D01*
X38979Y-35711D01*
X38988Y-35711D01*
X38998Y-35714D01*
X39006Y-35718D01*
X39014Y-35724D01*
X39020Y-35732D01*
X39025Y-35740D01*
X39028Y-35749D01*
X39029Y-35759D01*
X39030Y-35760D01*
X39030Y-35760D02*
X39030Y-35160D01*
X40230Y-35160D02*
X40230Y-35760D01*
X42870Y-37010D02*
X42870Y-36640D01*
X42250Y-37040D02*
X42250Y-36640D01*
X42870Y-35840D02*
X42870Y-36220D01*
X42250Y-35840D02*
X42250Y-36230D01*
X42910Y-37090D02*
X42909Y-37099D01*
X42906Y-37109D01*
X42901Y-37117D01*
X42895Y-37125D01*
X42887Y-37131D01*
X42879Y-37136D01*
X42870Y-37138D01*
X42860Y-37139D01*
X42851Y-37139D01*
X42842Y-37136D01*
X42833Y-37131D01*
X42826Y-37125D01*
X42819Y-37118D01*
X42815Y-37109D01*
X42812Y-37100D01*
X42811Y-37090D01*
X42811Y-37081D01*
X42814Y-37072D01*
X42818Y-37063D01*
X42825Y-37056D01*
X42832Y-37049D01*
X42840Y-37045D01*
X42850Y-37042D01*
X42859Y-37041D01*
X42868Y-37041D01*
X42878Y-37044D01*
X42886Y-37048D01*
X42894Y-37054D01*
X42900Y-37062D01*
X42905Y-37070D01*
X42908Y-37079D01*
X42909Y-37089D01*
X42910Y-37090D01*
X42860Y-37040D02*
X42260Y-37040D01*
X42260Y-35840D02*
X42860Y-35840D01*
X31860Y-36910D02*
X31860Y-36540D01*
X31240Y-36940D02*
X31240Y-36540D01*
X31860Y-35740D02*
X31860Y-36120D01*
X31240Y-35740D02*
X31240Y-36130D01*
X31900Y-36990D02*
X31899Y-36999D01*
X31896Y-37009D01*
X31891Y-37017D01*
X31885Y-37025D01*
X31877Y-37031D01*
X31869Y-37036D01*
X31860Y-37038D01*
X31850Y-37039D01*
X31841Y-37039D01*
X31832Y-37036D01*
X31823Y-37031D01*
X31816Y-37025D01*
X31809Y-37018D01*
X31805Y-37009D01*
X31802Y-37000D01*
X31801Y-36990D01*
X31801Y-36981D01*
X31804Y-36972D01*
X31808Y-36963D01*
X31815Y-36956D01*
X31822Y-36949D01*
X31830Y-36945D01*
X31840Y-36942D01*
X31849Y-36941D01*
X31858Y-36941D01*
X31868Y-36944D01*
X31876Y-36948D01*
X31884Y-36954D01*
X31890Y-36962D01*
X31895Y-36970D01*
X31898Y-36979D01*
X31899Y-36989D01*
X31900Y-36990D01*
X31850Y-36940D02*
X31250Y-36940D01*
X31250Y-35740D02*
X31850Y-35740D01*
X35384Y-24522D02*
X35014Y-24522D01*
X35414Y-25142D02*
X35014Y-25142D01*
X34214Y-24522D02*
X34594Y-24522D01*
X34214Y-25142D02*
X34604Y-25142D01*
X35514Y-24532D02*
X35513Y-24541D01*
X35510Y-24551D01*
X35505Y-24559D01*
X35499Y-24567D01*
X35491Y-24573D01*
X35483Y-24578D01*
X35474Y-24580D01*
X35464Y-24581D01*
X35455Y-24581D01*
X35446Y-24578D01*
X35437Y-24573D01*
X35430Y-24567D01*
X35423Y-24560D01*
X35419Y-24551D01*
X35416Y-24542D01*
X35415Y-24532D01*
X35415Y-24523D01*
X35418Y-24514D01*
X35422Y-24505D01*
X35429Y-24498D01*
X35436Y-24491D01*
X35444Y-24487D01*
X35454Y-24484D01*
X35463Y-24483D01*
X35472Y-24483D01*
X35482Y-24486D01*
X35490Y-24490D01*
X35498Y-24496D01*
X35504Y-24504D01*
X35509Y-24512D01*
X35512Y-24521D01*
X35513Y-24531D01*
X35514Y-24532D01*
X35414Y-24532D02*
X35414Y-25132D01*
X34214Y-25132D02*
X34214Y-24532D01*
X42054Y-35176D02*
X41684Y-35176D01*
X42084Y-35796D02*
X41684Y-35796D01*
X40884Y-35176D02*
X41264Y-35176D01*
X40884Y-35796D02*
X41274Y-35796D01*
X42184Y-35186D02*
X42183Y-35195D01*
X42180Y-35205D01*
X42175Y-35213D01*
X42169Y-35221D01*
X42161Y-35227D01*
X42153Y-35232D01*
X42144Y-35234D01*
X42134Y-35235D01*
X42125Y-35235D01*
X42116Y-35232D01*
X42107Y-35227D01*
X42100Y-35221D01*
X42093Y-35214D01*
X42089Y-35205D01*
X42086Y-35196D01*
X42085Y-35186D01*
X42085Y-35177D01*
X42088Y-35168D01*
X42092Y-35159D01*
X42099Y-35152D01*
X42106Y-35145D01*
X42114Y-35141D01*
X42124Y-35138D01*
X42133Y-35137D01*
X42142Y-35137D01*
X42152Y-35140D01*
X42160Y-35144D01*
X42168Y-35150D01*
X42174Y-35158D01*
X42179Y-35166D01*
X42182Y-35175D01*
X42183Y-35185D01*
X42184Y-35186D01*
X42084Y-35186D02*
X42084Y-35786D01*
X40884Y-35786D02*
X40884Y-35186D01*
X37353Y-24522D02*
X36983Y-24522D01*
X37383Y-25142D02*
X36983Y-25142D01*
X36183Y-24522D02*
X36563Y-24522D01*
X36183Y-25142D02*
X36573Y-25142D01*
X37483Y-24532D02*
X37482Y-24541D01*
X37479Y-24551D01*
X37474Y-24559D01*
X37468Y-24567D01*
X37460Y-24573D01*
X37452Y-24578D01*
X37443Y-24580D01*
X37433Y-24581D01*
X37424Y-24581D01*
X37415Y-24578D01*
X37406Y-24573D01*
X37399Y-24567D01*
X37392Y-24560D01*
X37388Y-24551D01*
X37385Y-24542D01*
X37384Y-24532D01*
X37384Y-24523D01*
X37387Y-24514D01*
X37391Y-24505D01*
X37398Y-24498D01*
X37405Y-24491D01*
X37413Y-24487D01*
X37423Y-24484D01*
X37432Y-24483D01*
X37441Y-24483D01*
X37451Y-24486D01*
X37459Y-24490D01*
X37467Y-24496D01*
X37473Y-24504D01*
X37478Y-24512D01*
X37481Y-24521D01*
X37482Y-24531D01*
X37483Y-24532D01*
X37383Y-24532D02*
X37383Y-25132D01*
X36183Y-25132D02*
X36183Y-24532D01*
X43787Y-35176D02*
X43417Y-35176D01*
X43817Y-35796D02*
X43417Y-35796D01*
X42617Y-35176D02*
X42997Y-35176D01*
X42617Y-35796D02*
X43007Y-35796D01*
X43917Y-35186D02*
X43916Y-35195D01*
X43913Y-35205D01*
X43908Y-35213D01*
X43902Y-35221D01*
X43894Y-35227D01*
X43886Y-35232D01*
X43877Y-35234D01*
X43867Y-35235D01*
X43858Y-35235D01*
X43849Y-35232D01*
X43840Y-35227D01*
X43833Y-35221D01*
X43826Y-35214D01*
X43822Y-35205D01*
X43819Y-35196D01*
X43818Y-35186D01*
X43818Y-35177D01*
X43821Y-35168D01*
X43825Y-35159D01*
X43832Y-35152D01*
X43839Y-35145D01*
X43847Y-35141D01*
X43857Y-35138D01*
X43866Y-35137D01*
X43875Y-35137D01*
X43885Y-35140D01*
X43893Y-35144D01*
X43901Y-35150D01*
X43907Y-35158D01*
X43912Y-35166D01*
X43915Y-35175D01*
X43916Y-35185D01*
X43917Y-35186D01*
X43817Y-35186D02*
X43817Y-35786D01*
X42617Y-35786D02*
X42617Y-35186D01*
G54D16*
X41760Y-26190D02*
X38760Y-26190D01*
X38760Y-24190D02*
X41760Y-24190D01*
X41760Y-24190D02*
X41760Y-26190D01*
X38760Y-26190D02*
X38760Y-24190D01*
G54D10*
X39827Y-37272D02*
X39827Y-36272D01*
X39827Y-36272D02*
X41827Y-36272D01*
X41827Y-36272D02*
X41827Y-37272D01*
X41827Y-37272D02*
X39827Y-37272D01*
G54D12*
X33348Y-35756D02*
X33263Y-35760D01*
X33178Y-35771D01*
X33094Y-35790D01*
X33012Y-35816D01*
X32933Y-35849D01*
X32857Y-35888D01*
X32784Y-35934D01*
X32716Y-35987D01*
X32653Y-36045D01*
X32595Y-36108D01*
X32542Y-36176D01*
X32496Y-36249D01*
X32457Y-36325D01*
X32424Y-36404D01*
X32398Y-36486D01*
X32379Y-36570D01*
X32368Y-36655D01*
X32364Y-36740D01*
X32364Y-36740D02*
X32368Y-36825D01*
X32379Y-36910D01*
X32398Y-36994D01*
X32424Y-37076D01*
X32457Y-37155D01*
X32496Y-37231D01*
X32542Y-37304D01*
X32595Y-37372D01*
X32653Y-37435D01*
X32716Y-37493D01*
X32784Y-37546D01*
X32857Y-37592D01*
X32933Y-37631D01*
X33012Y-37664D01*
X33094Y-37690D01*
X33178Y-37709D01*
X33263Y-37720D01*
X33348Y-37724D01*
X38072Y-37724D02*
X38157Y-37720D01*
X38242Y-37709D01*
X38326Y-37690D01*
X38408Y-37664D01*
X38487Y-37631D01*
X38564Y-37592D01*
X38636Y-37546D01*
X38704Y-37493D01*
X38767Y-37435D01*
X38825Y-37372D01*
X38878Y-37304D01*
X38924Y-37231D01*
X38963Y-37155D01*
X38996Y-37076D01*
X39022Y-36994D01*
X39041Y-36910D01*
X39052Y-36825D01*
X39056Y-36740D01*
X39056Y-36740D02*
X39052Y-36655D01*
X39041Y-36570D01*
X39022Y-36486D01*
X38996Y-36404D01*
X38963Y-36325D01*
X38924Y-36249D01*
X38878Y-36176D01*
X38825Y-36108D01*
X38767Y-36045D01*
X38704Y-35987D01*
X38636Y-35934D01*
X38564Y-35888D01*
X38487Y-35849D01*
X38408Y-35816D01*
X38326Y-35790D01*
X38242Y-35771D01*
X38157Y-35760D01*
X38072Y-35756D01*
G54D17*
X34460Y-37740D02*
X36960Y-37740D01*
X34460Y-35740D02*
X36960Y-35740D01*
G54D12*
X25563Y-29972D02*
X26063Y-29972D01*
X26063Y-29972D02*
X26063Y-30972D01*
X26063Y-30972D02*
X25563Y-30972D01*
X25563Y-27972D02*
X46563Y-27972D01*
X46563Y-27972D02*
X46563Y-32972D01*
X46563Y-32972D02*
X25563Y-32972D01*
X25563Y-32972D02*
X25563Y-27972D01*
G54D14*
X39558Y-34967D02*
X39546Y-34979D01*
X39511Y-34991D01*
X39487Y-34991D01*
X39451Y-34979D01*
X39427Y-34955D01*
X39416Y-34932D01*
X39404Y-34884D01*
X39404Y-34848D01*
X39416Y-34801D01*
X39427Y-34777D01*
X39451Y-34753D01*
X39487Y-34741D01*
X39511Y-34741D01*
X39546Y-34753D01*
X39558Y-34765D01*
X39796Y-34991D02*
X39654Y-34991D01*
X39725Y-34991D02*
X39725Y-34741D01*
X39701Y-34777D01*
X39677Y-34801D01*
X39654Y-34813D01*
X42067Y-36512D02*
X42079Y-36524D01*
X42091Y-36559D01*
X42091Y-36583D01*
X42079Y-36619D01*
X42055Y-36643D01*
X42032Y-36654D01*
X41984Y-36666D01*
X41948Y-36666D01*
X41901Y-36654D01*
X41877Y-36643D01*
X41853Y-36619D01*
X41841Y-36583D01*
X41841Y-36559D01*
X41853Y-36524D01*
X41865Y-36512D01*
X41865Y-36416D02*
X41853Y-36404D01*
X41841Y-36381D01*
X41841Y-36321D01*
X41853Y-36297D01*
X41865Y-36285D01*
X41889Y-36274D01*
X41913Y-36274D01*
X41948Y-36285D01*
X42091Y-36428D01*
X42091Y-36274D01*
X31057Y-36412D02*
X31069Y-36424D01*
X31081Y-36459D01*
X31081Y-36483D01*
X31069Y-36519D01*
X31045Y-36543D01*
X31022Y-36554D01*
X30974Y-36566D01*
X30938Y-36566D01*
X30891Y-36554D01*
X30867Y-36543D01*
X30843Y-36519D01*
X30831Y-36483D01*
X30831Y-36459D01*
X30843Y-36424D01*
X30855Y-36412D01*
X30831Y-36328D02*
X30831Y-36174D01*
X30926Y-36257D01*
X30926Y-36221D01*
X30938Y-36197D01*
X30950Y-36185D01*
X30974Y-36174D01*
X31034Y-36174D01*
X31057Y-36185D01*
X31069Y-36197D01*
X31081Y-36221D01*
X31081Y-36293D01*
X31069Y-36316D01*
X31057Y-36328D01*
X34660Y-25503D02*
X34660Y-25253D01*
X34719Y-25253D01*
X34755Y-25265D01*
X34779Y-25289D01*
X34790Y-25313D01*
X34802Y-25360D01*
X34802Y-25396D01*
X34790Y-25444D01*
X34779Y-25467D01*
X34755Y-25491D01*
X34719Y-25503D01*
X34660Y-25503D01*
X35040Y-25503D02*
X34898Y-25503D01*
X34969Y-25503D02*
X34969Y-25253D01*
X34945Y-25289D01*
X34921Y-25313D01*
X34898Y-25325D01*
X41330Y-36157D02*
X41330Y-35907D01*
X41389Y-35907D01*
X41425Y-35919D01*
X41449Y-35943D01*
X41460Y-35967D01*
X41472Y-36014D01*
X41472Y-36050D01*
X41460Y-36098D01*
X41449Y-36121D01*
X41425Y-36145D01*
X41389Y-36157D01*
X41330Y-36157D01*
X41568Y-35931D02*
X41580Y-35919D01*
X41603Y-35907D01*
X41663Y-35907D01*
X41687Y-35919D01*
X41699Y-35931D01*
X41710Y-35955D01*
X41710Y-35979D01*
X41699Y-36014D01*
X41556Y-36157D01*
X41710Y-36157D01*
X36771Y-25503D02*
X36688Y-25384D01*
X36629Y-25503D02*
X36629Y-25253D01*
X36724Y-25253D01*
X36748Y-25265D01*
X36759Y-25277D01*
X36771Y-25301D01*
X36771Y-25337D01*
X36759Y-25360D01*
X36748Y-25372D01*
X36724Y-25384D01*
X36629Y-25384D01*
X37009Y-25503D02*
X36867Y-25503D01*
X36938Y-25503D02*
X36938Y-25253D01*
X36914Y-25289D01*
X36890Y-25313D01*
X36867Y-25325D01*
X43205Y-36157D02*
X43122Y-36038D01*
X43063Y-36157D02*
X43063Y-35907D01*
X43158Y-35907D01*
X43182Y-35919D01*
X43193Y-35931D01*
X43205Y-35955D01*
X43205Y-35991D01*
X43193Y-36014D01*
X43182Y-36026D01*
X43158Y-36038D01*
X43063Y-36038D01*
X43301Y-35931D02*
X43313Y-35919D01*
X43336Y-35907D01*
X43396Y-35907D01*
X43420Y-35919D01*
X43432Y-35931D01*
X43443Y-35955D01*
X43443Y-35979D01*
X43432Y-36014D01*
X43289Y-36157D01*
X43443Y-36157D01*
G54D16*
X39775Y-23814D02*
X39756Y-23833D01*
X39699Y-23852D01*
X39661Y-23852D01*
X39603Y-23833D01*
X39565Y-23795D01*
X39546Y-23757D01*
X39527Y-23680D01*
X39527Y-23623D01*
X39546Y-23547D01*
X39565Y-23509D01*
X39603Y-23471D01*
X39661Y-23452D01*
X39699Y-23452D01*
X39756Y-23471D01*
X39775Y-23490D01*
X40022Y-23452D02*
X40099Y-23452D01*
X40137Y-23471D01*
X40175Y-23509D01*
X40194Y-23585D01*
X40194Y-23719D01*
X40175Y-23795D01*
X40137Y-23833D01*
X40099Y-23852D01*
X40022Y-23852D01*
X39984Y-23833D01*
X39946Y-23795D01*
X39927Y-23719D01*
X39927Y-23585D01*
X39946Y-23509D01*
X39984Y-23471D01*
X40022Y-23452D01*
X40365Y-23852D02*
X40365Y-23452D01*
X40594Y-23852D01*
X40594Y-23452D01*
X40994Y-23852D02*
X40765Y-23852D01*
X40879Y-23852D02*
X40879Y-23452D01*
X40841Y-23509D01*
X40803Y-23547D01*
X40765Y-23566D01*
G54D10*
X40605Y-36143D02*
X40605Y-35843D01*
X40720Y-35843D01*
X40748Y-35858D01*
X40763Y-35872D01*
X40777Y-35901D01*
X40777Y-35943D01*
X40763Y-35972D01*
X40748Y-35986D01*
X40720Y-36001D01*
X40605Y-36001D01*
X40891Y-35872D02*
X40905Y-35858D01*
X40934Y-35843D01*
X41005Y-35843D01*
X41034Y-35858D01*
X41048Y-35872D01*
X41063Y-35901D01*
X41063Y-35929D01*
X41048Y-35972D01*
X40877Y-36143D01*
X41063Y-36143D01*
G54D13*
X35225Y-34883D02*
X35625Y-35483D01*
X35625Y-34883D02*
X35225Y-35483D01*
X36167Y-35483D02*
X35824Y-35483D01*
X35996Y-35483D02*
X35996Y-34883D01*
X35939Y-34969D01*
X35881Y-35026D01*
X35824Y-35054D01*
X29932Y-37873D02*
X29589Y-37873D01*
X29761Y-37873D02*
X29761Y-37273D01*
X29704Y-37359D01*
X29646Y-37416D01*
X29589Y-37444D01*
X30160Y-37330D02*
X30189Y-37301D01*
X30246Y-37273D01*
X30389Y-37273D01*
X30446Y-37301D01*
X30475Y-37330D01*
X30503Y-37387D01*
X30503Y-37444D01*
X30475Y-37530D01*
X30132Y-37873D01*
X30503Y-37873D01*
X30760Y-37873D02*
X30760Y-37273D01*
X30960Y-37701D01*
X31160Y-37273D01*
X31160Y-37873D01*
X31446Y-37873D02*
X31446Y-37273D01*
X31446Y-37559D02*
X31789Y-37559D01*
X31789Y-37873D02*
X31789Y-37273D01*
X32018Y-37473D02*
X32332Y-37473D01*
X32018Y-37873D01*
X32332Y-37873D01*
G54D18*
X28231Y-29255D02*
X28231Y-28555D01*
X28403Y-28555D01*
X28445Y-28589D01*
X28467Y-28622D01*
X28488Y-28689D01*
X28488Y-28789D01*
X28467Y-28855D01*
X28445Y-28889D01*
X28403Y-28922D01*
X28231Y-28922D01*
X28917Y-29255D02*
X28660Y-29255D01*
X28788Y-29255D02*
X28788Y-28555D01*
X28745Y-28655D01*
X28703Y-28722D01*
X28660Y-28755D01*
G54D13*
X37365Y-31289D02*
X37365Y-31755D01*
X37198Y-31022D02*
X37031Y-31522D01*
X37465Y-31522D01*
X37865Y-31055D02*
X37932Y-31055D01*
X37998Y-31089D01*
X38032Y-31122D01*
X38065Y-31189D01*
X38098Y-31322D01*
X38098Y-31489D01*
X38065Y-31622D01*
X38032Y-31689D01*
X37998Y-31722D01*
X37932Y-31755D01*
X37865Y-31755D01*
X37798Y-31722D01*
X37765Y-31689D01*
X37732Y-31622D01*
X37698Y-31489D01*
X37698Y-31322D01*
X37732Y-31189D01*
X37765Y-31122D01*
X37798Y-31089D01*
X37865Y-31055D01*
X38399Y-31755D02*
X38399Y-31055D01*
X38665Y-31055D01*
X38732Y-31089D01*
X38765Y-31122D01*
X38799Y-31189D01*
X38799Y-31289D01*
X38765Y-31355D01*
X38732Y-31389D01*
X38665Y-31422D01*
X38399Y-31422D01*
X39099Y-31755D02*
X39099Y-31055D01*
X39432Y-31755D02*
X39432Y-31055D01*
X39832Y-31755D01*
X39832Y-31055D01*
X39998Y-31822D02*
X40531Y-31822D01*
X40998Y-31722D02*
X40931Y-31755D01*
X40798Y-31755D01*
X40731Y-31722D01*
X40698Y-31689D01*
X40664Y-31622D01*
X40664Y-31422D01*
X40698Y-31355D01*
X40731Y-31322D01*
X40798Y-31289D01*
X40931Y-31289D01*
X40998Y-31322D01*
X41398Y-31755D02*
X41331Y-31722D01*
X41298Y-31689D01*
X41264Y-31622D01*
X41264Y-31422D01*
X41298Y-31355D01*
X41331Y-31322D01*
X41398Y-31289D01*
X41498Y-31289D01*
X41564Y-31322D01*
X41598Y-31355D01*
X41631Y-31422D01*
X41631Y-31622D01*
X41598Y-31689D01*
X41564Y-31722D01*
X41498Y-31755D01*
X41398Y-31755D01*
X41931Y-31755D02*
X41931Y-31289D01*
X41931Y-31355D02*
X41964Y-31322D01*
X42031Y-31289D01*
X42131Y-31289D01*
X42197Y-31322D01*
X42231Y-31389D01*
X42231Y-31755D01*
X42231Y-31389D02*
X42264Y-31322D01*
X42331Y-31289D01*
X42431Y-31289D01*
X42497Y-31322D01*
X42531Y-31389D01*
X42531Y-31755D01*
X42864Y-31289D02*
X42864Y-31989D01*
X42864Y-31322D02*
X42930Y-31289D01*
X43064Y-31289D01*
X43130Y-31322D01*
X43164Y-31355D01*
X43197Y-31422D01*
X43197Y-31622D01*
X43164Y-31689D01*
X43130Y-31722D01*
X43064Y-31755D01*
X42930Y-31755D01*
X42864Y-31722D01*
X43597Y-31755D02*
X43530Y-31722D01*
X43497Y-31689D01*
X43463Y-31622D01*
X43463Y-31422D01*
X43497Y-31355D01*
X43530Y-31322D01*
X43597Y-31289D01*
X43697Y-31289D01*
X43763Y-31322D01*
X43797Y-31355D01*
X43830Y-31422D01*
X43830Y-31622D01*
X43797Y-31689D01*
X43763Y-31722D01*
X43697Y-31755D01*
X43597Y-31755D01*
X44130Y-31289D02*
X44130Y-31755D01*
X44130Y-31355D02*
X44163Y-31322D01*
X44230Y-31289D01*
X44330Y-31289D01*
X44396Y-31322D01*
X44430Y-31389D01*
X44430Y-31755D01*
X45029Y-31722D02*
X44963Y-31755D01*
X44829Y-31755D01*
X44763Y-31722D01*
X44729Y-31655D01*
X44729Y-31389D01*
X44763Y-31322D01*
X44829Y-31289D01*
X44963Y-31289D01*
X45029Y-31322D01*
X45063Y-31389D01*
X45063Y-31455D01*
X44729Y-31522D01*
X45363Y-31289D02*
X45363Y-31755D01*
X45363Y-31355D02*
X45396Y-31322D01*
X45463Y-31289D01*
X45563Y-31289D01*
X45629Y-31322D01*
X45663Y-31389D01*
X45663Y-31755D01*
X45896Y-31289D02*
X46162Y-31289D01*
X45996Y-31055D02*
X45996Y-31655D01*
X46029Y-31722D01*
X46096Y-31755D01*
X46162Y-31755D01*
M02*
