G04 (created by PCBNEW-RS274X (2012-01-18 BZR 3371)-testing) date Fri 30 Mar 2012 10:13:31 PM EDT*
G01*
G70*
G90*
%MOIN*%
G04 Gerber Fmt 3.4, Leading zero omitted, Abs format*
%FSLAX34Y34*%
G04 APERTURE LIST*
%ADD10C,0.006000*%
%ADD11R,0.055000X0.075000*%
%ADD12R,0.075000X0.055000*%
%ADD13R,0.080000X0.080000*%
%ADD14C,0.080000*%
%ADD15R,0.236500X0.079100*%
%ADD16R,0.075000X0.075000*%
%ADD17C,0.075000*%
G04 APERTURE END LIST*
G54D10*
G54D11*
X39255Y-35460D03*
X40005Y-35460D03*
G54D12*
X42560Y-36815D03*
X42560Y-36065D03*
X31550Y-36715D03*
X31550Y-35965D03*
G54D11*
X35189Y-24832D03*
X34439Y-24832D03*
X41859Y-35486D03*
X41109Y-35486D03*
X37158Y-24832D03*
X36408Y-24832D03*
X43592Y-35486D03*
X42842Y-35486D03*
G54D13*
X39260Y-25690D03*
G54D14*
X39260Y-24690D03*
X40260Y-25690D03*
X40260Y-24690D03*
X41260Y-25690D03*
X41260Y-24690D03*
G54D13*
X40327Y-36772D03*
G54D14*
X41327Y-36772D03*
G54D15*
X33938Y-36740D03*
X37482Y-36740D03*
G54D16*
X26563Y-33472D03*
G54D17*
X27563Y-33472D03*
X28563Y-33472D03*
X29563Y-33472D03*
X30563Y-33472D03*
X31563Y-33472D03*
X32563Y-33472D03*
X33563Y-33472D03*
X34563Y-33472D03*
X35563Y-33472D03*
X36563Y-33472D03*
X37563Y-33472D03*
X38563Y-33472D03*
X39563Y-33472D03*
X40563Y-33472D03*
X41563Y-33472D03*
X42563Y-33472D03*
X43563Y-33472D03*
X44563Y-33472D03*
X45563Y-33472D03*
X45563Y-27472D03*
X44563Y-27472D03*
X43563Y-27472D03*
X42563Y-27472D03*
X41563Y-27472D03*
X40563Y-27472D03*
X39563Y-27472D03*
X38563Y-27472D03*
X37563Y-27472D03*
X36563Y-27472D03*
X35563Y-27472D03*
X34563Y-27472D03*
X33563Y-27472D03*
X32563Y-27472D03*
X31563Y-27472D03*
X30563Y-27472D03*
X29563Y-27472D03*
X28563Y-27472D03*
X27563Y-27472D03*
X26563Y-27472D03*
M02*
