G04 (created by PCBNEW-RS274X (2012-01-18 BZR 3371)-testing) date Sat 16 Jun 2012 05:28:33 AM EDT*
G01*
G70*
G90*
%MOIN*%
G04 Gerber Fmt 3.4, Leading zero omitted, Abs format*
%FSLAX34Y34*%
G04 APERTURE LIST*
%ADD10C,0.006000*%
%ADD11C,0.015000*%
G04 APERTURE END LIST*
G54D10*
G54D11*
X26378Y-19291D02*
X26355Y-19520D01*
X26288Y-19741D01*
X26180Y-19944D01*
X26035Y-20123D01*
X25857Y-20270D01*
X25654Y-20379D01*
X25434Y-20447D01*
X25205Y-20471D01*
X24976Y-20451D01*
X24755Y-20386D01*
X24551Y-20279D01*
X24371Y-20134D01*
X24223Y-19958D01*
X24112Y-19756D01*
X24042Y-19536D01*
X24017Y-19307D01*
X24036Y-19078D01*
X24099Y-18857D01*
X24205Y-18652D01*
X24348Y-18471D01*
X24523Y-18322D01*
X24725Y-18209D01*
X24944Y-18138D01*
X25173Y-18111D01*
X25402Y-18128D01*
X25624Y-18190D01*
X25829Y-18294D01*
X26011Y-18436D01*
X26162Y-18611D01*
X26275Y-18811D01*
X26348Y-19030D01*
X26377Y-19259D01*
X26378Y-19291D01*
X26378Y-35827D02*
X26355Y-36056D01*
X26288Y-36277D01*
X26180Y-36480D01*
X26035Y-36659D01*
X25857Y-36806D01*
X25654Y-36915D01*
X25434Y-36983D01*
X25205Y-37007D01*
X24976Y-36987D01*
X24755Y-36922D01*
X24551Y-36815D01*
X24371Y-36670D01*
X24223Y-36494D01*
X24112Y-36292D01*
X24042Y-36072D01*
X24017Y-35843D01*
X24036Y-35614D01*
X24099Y-35393D01*
X24205Y-35188D01*
X24348Y-35007D01*
X24523Y-34858D01*
X24725Y-34745D01*
X24944Y-34674D01*
X25173Y-34647D01*
X25402Y-34664D01*
X25624Y-34726D01*
X25829Y-34830D01*
X26011Y-34972D01*
X26162Y-35147D01*
X26275Y-35347D01*
X26348Y-35566D01*
X26377Y-35795D01*
X26378Y-35827D01*
X62618Y-35846D02*
X62595Y-36075D01*
X62528Y-36296D01*
X62420Y-36499D01*
X62275Y-36678D01*
X62097Y-36825D01*
X61894Y-36934D01*
X61674Y-37002D01*
X61445Y-37026D01*
X61216Y-37006D01*
X60995Y-36941D01*
X60791Y-36834D01*
X60611Y-36689D01*
X60463Y-36513D01*
X60352Y-36311D01*
X60282Y-36091D01*
X60257Y-35862D01*
X60276Y-35633D01*
X60339Y-35412D01*
X60445Y-35207D01*
X60588Y-35026D01*
X60763Y-34877D01*
X60965Y-34764D01*
X61184Y-34693D01*
X61413Y-34666D01*
X61642Y-34683D01*
X61864Y-34745D01*
X62069Y-34849D01*
X62251Y-34991D01*
X62402Y-35166D01*
X62515Y-35366D01*
X62588Y-35585D01*
X62617Y-35814D01*
X62618Y-35846D01*
X62598Y-19291D02*
X62575Y-19520D01*
X62508Y-19741D01*
X62400Y-19944D01*
X62255Y-20123D01*
X62077Y-20270D01*
X61874Y-20379D01*
X61654Y-20447D01*
X61425Y-20471D01*
X61196Y-20451D01*
X60975Y-20386D01*
X60771Y-20279D01*
X60591Y-20134D01*
X60443Y-19958D01*
X60332Y-19756D01*
X60262Y-19536D01*
X60237Y-19307D01*
X60256Y-19078D01*
X60319Y-18857D01*
X60425Y-18652D01*
X60568Y-18471D01*
X60743Y-18322D01*
X60945Y-18209D01*
X61164Y-18138D01*
X61393Y-18111D01*
X61622Y-18128D01*
X61844Y-18190D01*
X62049Y-18294D01*
X62231Y-18436D01*
X62382Y-18611D01*
X62495Y-18811D01*
X62568Y-19030D01*
X62597Y-19259D01*
X62598Y-19291D01*
M02*
