M48
INCH,TZ
T1C0.032
T2C0.040
%
G90
G05
T1
X2.656Y-2.747
X2.656Y-3.347
X2.756Y-2.747
X2.756Y-3.347
X2.856Y-2.747
X2.856Y-3.347
X2.956Y-2.747
X2.956Y-3.347
X3.056Y-2.747
X3.056Y-3.347
X3.156Y-2.747
X3.156Y-3.347
X3.256Y-2.747
X3.256Y-3.347
X3.356Y-2.747
X3.356Y-3.347
X3.456Y-2.747
X3.456Y-3.347
X3.556Y-2.747
X3.556Y-3.347
X3.656Y-2.747
X3.656Y-3.347
X3.756Y-2.747
X3.756Y-3.347
X3.856Y-2.747
X3.856Y-3.347
X3.956Y-2.747
X3.956Y-3.347
X4.056Y-2.747
X4.056Y-3.347
X4.156Y-2.747
X4.156Y-3.347
X4.256Y-2.747
X4.256Y-3.347
X4.356Y-2.747
X4.356Y-3.347
X4.456Y-2.747
X4.456Y-3.347
X4.556Y-2.747
X4.556Y-3.347
T2
X3.926Y-2.469
X3.926Y-2.569
X4.026Y-2.469
X4.026Y-2.569
X4.033Y-3.677
X4.126Y-2.469
X4.126Y-2.569
X4.133Y-3.677
T0
M30
