G04 (created by PCBNEW-RS274X (2012-01-18 BZR 3371)-testing) date Sat 16 Jun 2012 05:28:33 AM EDT*
G01*
G70*
G90*
%MOIN*%
G04 Gerber Fmt 3.4, Leading zero omitted, Abs format*
%FSLAX34Y34*%
G04 APERTURE LIST*
%ADD10C,0.006000*%
%ADD11C,0.010000*%
%ADD12C,0.015000*%
%ADD13C,0.020000*%
%ADD14C,0.007500*%
%ADD15C,0.012000*%
%ADD16C,0.005000*%
%ADD17C,0.008000*%
%ADD18C,0.012500*%
%ADD19C,0.002600*%
%ADD20C,0.004000*%
%ADD21C,0.002000*%
%ADD22C,0.011300*%
G04 APERTURE END LIST*
G54D10*
G54D11*
X33335Y-31658D02*
X33335Y-31258D01*
X33488Y-31258D01*
X33526Y-31277D01*
X33545Y-31296D01*
X33564Y-31334D01*
X33564Y-31391D01*
X33545Y-31429D01*
X33526Y-31448D01*
X33488Y-31467D01*
X33335Y-31467D01*
X33735Y-31658D02*
X33735Y-31391D01*
X33735Y-31467D02*
X33754Y-31429D01*
X33773Y-31410D01*
X33811Y-31391D01*
X33850Y-31391D01*
X34040Y-31658D02*
X34002Y-31639D01*
X33983Y-31620D01*
X33964Y-31582D01*
X33964Y-31467D01*
X33983Y-31429D01*
X34002Y-31410D01*
X34040Y-31391D01*
X34098Y-31391D01*
X34136Y-31410D01*
X34155Y-31429D01*
X34174Y-31467D01*
X34174Y-31582D01*
X34155Y-31620D01*
X34136Y-31639D01*
X34098Y-31658D01*
X34040Y-31658D01*
X34517Y-31391D02*
X34517Y-31715D01*
X34498Y-31753D01*
X34479Y-31772D01*
X34440Y-31791D01*
X34383Y-31791D01*
X34345Y-31772D01*
X34517Y-31639D02*
X34479Y-31658D01*
X34402Y-31658D01*
X34364Y-31639D01*
X34345Y-31620D01*
X34326Y-31582D01*
X34326Y-31467D01*
X34345Y-31429D01*
X34364Y-31410D01*
X34402Y-31391D01*
X34479Y-31391D01*
X34517Y-31410D01*
X34707Y-31658D02*
X34707Y-31391D01*
X34707Y-31467D02*
X34726Y-31429D01*
X34745Y-31410D01*
X34783Y-31391D01*
X34822Y-31391D01*
X35127Y-31658D02*
X35127Y-31448D01*
X35108Y-31410D01*
X35070Y-31391D01*
X34993Y-31391D01*
X34955Y-31410D01*
X35127Y-31639D02*
X35089Y-31658D01*
X34993Y-31658D01*
X34955Y-31639D01*
X34936Y-31601D01*
X34936Y-31563D01*
X34955Y-31525D01*
X34993Y-31506D01*
X35089Y-31506D01*
X35127Y-31486D01*
X35317Y-31658D02*
X35317Y-31391D01*
X35317Y-31429D02*
X35336Y-31410D01*
X35374Y-31391D01*
X35432Y-31391D01*
X35470Y-31410D01*
X35489Y-31448D01*
X35489Y-31658D01*
X35489Y-31448D02*
X35508Y-31410D01*
X35546Y-31391D01*
X35603Y-31391D01*
X35641Y-31410D01*
X35660Y-31448D01*
X35660Y-31658D01*
X35850Y-31658D02*
X35850Y-31391D01*
X35850Y-31429D02*
X35869Y-31410D01*
X35907Y-31391D01*
X35965Y-31391D01*
X36003Y-31410D01*
X36022Y-31448D01*
X36022Y-31658D01*
X36022Y-31448D02*
X36041Y-31410D01*
X36079Y-31391D01*
X36136Y-31391D01*
X36174Y-31410D01*
X36193Y-31448D01*
X36193Y-31658D01*
X36536Y-31639D02*
X36498Y-31658D01*
X36421Y-31658D01*
X36383Y-31639D01*
X36364Y-31601D01*
X36364Y-31448D01*
X36383Y-31410D01*
X36421Y-31391D01*
X36498Y-31391D01*
X36536Y-31410D01*
X36555Y-31448D01*
X36555Y-31486D01*
X36364Y-31525D01*
X36726Y-31658D02*
X36726Y-31391D01*
X36726Y-31467D02*
X36745Y-31429D01*
X36764Y-31410D01*
X36802Y-31391D01*
X36841Y-31391D01*
X34068Y-32204D02*
X34259Y-32204D01*
X34030Y-32318D02*
X34163Y-31918D01*
X34297Y-32318D01*
X34602Y-32299D02*
X34564Y-32318D01*
X34487Y-32318D01*
X34449Y-32299D01*
X34430Y-32280D01*
X34411Y-32242D01*
X34411Y-32127D01*
X34430Y-32089D01*
X34449Y-32070D01*
X34487Y-32051D01*
X34564Y-32051D01*
X34602Y-32070D01*
X34716Y-32051D02*
X34868Y-32051D01*
X34773Y-31918D02*
X34773Y-32261D01*
X34792Y-32299D01*
X34830Y-32318D01*
X34868Y-32318D01*
X35002Y-32318D02*
X35002Y-32051D01*
X35002Y-31918D02*
X34983Y-31937D01*
X35002Y-31956D01*
X35021Y-31937D01*
X35002Y-31918D01*
X35002Y-31956D01*
X35154Y-32051D02*
X35249Y-32318D01*
X35345Y-32051D01*
X35497Y-32318D02*
X35497Y-32051D01*
X35497Y-31918D02*
X35478Y-31937D01*
X35497Y-31956D01*
X35516Y-31937D01*
X35497Y-31918D01*
X35497Y-31956D01*
X35630Y-32051D02*
X35782Y-32051D01*
X35687Y-31918D02*
X35687Y-32261D01*
X35706Y-32299D01*
X35744Y-32318D01*
X35782Y-32318D01*
X35878Y-32051D02*
X35973Y-32318D01*
X36069Y-32051D02*
X35973Y-32318D01*
X35935Y-32413D01*
X35916Y-32432D01*
X35878Y-32451D01*
G54D12*
X59154Y-33199D02*
X59099Y-33756D01*
X58937Y-34293D01*
X58674Y-34788D01*
X58319Y-35222D01*
X57888Y-35579D01*
X57394Y-35846D01*
X56859Y-36012D01*
X56302Y-36070D01*
X55744Y-36020D01*
X55207Y-35861D01*
X54710Y-35602D01*
X54273Y-35250D01*
X53913Y-34821D01*
X53643Y-34330D01*
X53473Y-33796D01*
X53411Y-33239D01*
X53458Y-32681D01*
X53612Y-32142D01*
X53868Y-31644D01*
X54217Y-31204D01*
X54643Y-30841D01*
X55133Y-30568D01*
X55666Y-30394D01*
X56222Y-30328D01*
X56780Y-30371D01*
X57320Y-30522D01*
X57820Y-30775D01*
X58262Y-31120D01*
X58628Y-31544D01*
X58905Y-32031D01*
X59082Y-32563D01*
X59152Y-33119D01*
X59154Y-33199D01*
X37894Y-33258D02*
X37839Y-33815D01*
X37677Y-34352D01*
X37414Y-34847D01*
X37059Y-35281D01*
X36628Y-35638D01*
X36134Y-35905D01*
X35599Y-36071D01*
X35042Y-36129D01*
X34484Y-36079D01*
X33947Y-35920D01*
X33450Y-35661D01*
X33013Y-35309D01*
X32653Y-34880D01*
X32383Y-34389D01*
X32213Y-33855D01*
X32151Y-33298D01*
X32198Y-32740D01*
X32352Y-32201D01*
X32608Y-31703D01*
X32957Y-31263D01*
X33383Y-30900D01*
X33873Y-30627D01*
X34406Y-30453D01*
X34962Y-30387D01*
X35520Y-30430D01*
X36060Y-30581D01*
X36560Y-30834D01*
X37002Y-31179D01*
X37368Y-31603D01*
X37645Y-32090D01*
X37822Y-32622D01*
X37892Y-33178D01*
X37894Y-33258D01*
X61320Y-24000D02*
X61320Y-24760D01*
G54D11*
X55329Y-31855D02*
X55138Y-31855D01*
X55138Y-31455D01*
X55462Y-31645D02*
X55596Y-31645D01*
X55653Y-31855D02*
X55462Y-31855D01*
X55462Y-31455D01*
X55653Y-31455D01*
X55824Y-31855D02*
X55824Y-31455D01*
X55919Y-31455D01*
X55977Y-31474D01*
X56015Y-31512D01*
X56034Y-31550D01*
X56053Y-31626D01*
X56053Y-31683D01*
X56034Y-31760D01*
X56015Y-31798D01*
X55977Y-31836D01*
X55919Y-31855D01*
X55824Y-31855D01*
X56472Y-31455D02*
X56701Y-31455D01*
X56586Y-31855D02*
X56586Y-31455D01*
X56987Y-31836D02*
X56949Y-31855D01*
X56872Y-31855D01*
X56834Y-31836D01*
X56815Y-31798D01*
X56815Y-31645D01*
X56834Y-31607D01*
X56872Y-31588D01*
X56949Y-31588D01*
X56987Y-31607D01*
X57006Y-31645D01*
X57006Y-31683D01*
X56815Y-31722D01*
X57158Y-31836D02*
X57196Y-31855D01*
X57272Y-31855D01*
X57311Y-31836D01*
X57330Y-31798D01*
X57330Y-31779D01*
X57311Y-31741D01*
X57272Y-31722D01*
X57215Y-31722D01*
X57177Y-31703D01*
X57158Y-31664D01*
X57158Y-31645D01*
X57177Y-31607D01*
X57215Y-31588D01*
X57272Y-31588D01*
X57311Y-31607D01*
X57444Y-31588D02*
X57596Y-31588D01*
X57501Y-31455D02*
X57501Y-31798D01*
X57520Y-31836D01*
X57558Y-31855D01*
X57596Y-31855D01*
X54372Y-32201D02*
X54292Y-32371D01*
X54227Y-32548D01*
X54178Y-32729D01*
X54145Y-32914D01*
X54129Y-33102D01*
X54128Y-33289D01*
X54144Y-33476D01*
X54177Y-33661D01*
X54225Y-33843D01*
X54289Y-34020D01*
X54368Y-34190D01*
X54462Y-34353D01*
X54570Y-34507D01*
X54690Y-34652D01*
X54823Y-34785D01*
X54967Y-34906D01*
X55120Y-35014D01*
X55283Y-35108D01*
G54D13*
X55332Y-32710D02*
X55293Y-32794D01*
X55262Y-32882D01*
X55238Y-32972D01*
X55222Y-33064D01*
X55214Y-33157D01*
X55215Y-33249D01*
X55223Y-33342D01*
X55240Y-33433D01*
X55264Y-33523D01*
X55296Y-33611D01*
X55336Y-33695D01*
X55383Y-33775D01*
X55436Y-33852D01*
X55497Y-33923D01*
X55563Y-33988D01*
X55634Y-34048D01*
X55711Y-34101D01*
X55792Y-34148D01*
G54D11*
X26162Y-22385D02*
X26314Y-22385D01*
X26219Y-22252D02*
X26219Y-22595D01*
X26238Y-22633D01*
X26276Y-22652D01*
X26314Y-22652D01*
X26410Y-22385D02*
X26486Y-22652D01*
X26563Y-22461D01*
X26639Y-22652D01*
X26715Y-22385D01*
X26924Y-22652D02*
X26886Y-22633D01*
X26867Y-22614D01*
X26848Y-22576D01*
X26848Y-22461D01*
X26867Y-22423D01*
X26886Y-22404D01*
X26924Y-22385D01*
X26982Y-22385D01*
X27020Y-22404D01*
X27039Y-22423D01*
X27058Y-22461D01*
X27058Y-22576D01*
X27039Y-22614D01*
X27020Y-22633D01*
X26982Y-22652D01*
X26924Y-22652D01*
X27191Y-22385D02*
X27267Y-22652D01*
X27344Y-22461D01*
X27420Y-22652D01*
X27496Y-22385D01*
X27648Y-22652D02*
X27648Y-22252D01*
X27820Y-22652D02*
X27820Y-22442D01*
X27801Y-22404D01*
X27763Y-22385D01*
X27705Y-22385D01*
X27667Y-22404D01*
X27648Y-22423D01*
X28010Y-22652D02*
X28010Y-22385D01*
X28010Y-22252D02*
X27991Y-22271D01*
X28010Y-22290D01*
X28029Y-22271D01*
X28010Y-22252D01*
X28010Y-22290D01*
X28143Y-22385D02*
X28295Y-22385D01*
X28200Y-22252D02*
X28200Y-22595D01*
X28219Y-22633D01*
X28257Y-22652D01*
X28295Y-22652D01*
X28429Y-22614D02*
X28448Y-22633D01*
X28429Y-22652D01*
X28410Y-22633D01*
X28429Y-22614D01*
X28429Y-22652D01*
X28676Y-22652D02*
X28638Y-22633D01*
X28619Y-22614D01*
X28600Y-22576D01*
X28600Y-22461D01*
X28619Y-22423D01*
X28638Y-22404D01*
X28676Y-22385D01*
X28734Y-22385D01*
X28772Y-22404D01*
X28791Y-22423D01*
X28810Y-22461D01*
X28810Y-22576D01*
X28791Y-22614D01*
X28772Y-22633D01*
X28734Y-22652D01*
X28676Y-22652D01*
X28981Y-22652D02*
X28981Y-22385D01*
X28981Y-22461D02*
X29000Y-22423D01*
X29019Y-22404D01*
X29057Y-22385D01*
X29096Y-22385D01*
X29401Y-22385D02*
X29401Y-22709D01*
X29382Y-22747D01*
X29363Y-22766D01*
X29324Y-22785D01*
X29267Y-22785D01*
X29229Y-22766D01*
X29401Y-22633D02*
X29363Y-22652D01*
X29286Y-22652D01*
X29248Y-22633D01*
X29229Y-22614D01*
X29210Y-22576D01*
X29210Y-22461D01*
X29229Y-22423D01*
X29248Y-22404D01*
X29286Y-22385D01*
X29363Y-22385D01*
X29401Y-22404D01*
X24487Y-23045D02*
X24487Y-23388D01*
X24468Y-23426D01*
X24430Y-23445D01*
X24411Y-23445D01*
X24487Y-22912D02*
X24468Y-22931D01*
X24487Y-22950D01*
X24506Y-22931D01*
X24487Y-22912D01*
X24487Y-22950D01*
X24734Y-23312D02*
X24696Y-23293D01*
X24677Y-23274D01*
X24658Y-23236D01*
X24658Y-23121D01*
X24677Y-23083D01*
X24696Y-23064D01*
X24734Y-23045D01*
X24792Y-23045D01*
X24830Y-23064D01*
X24849Y-23083D01*
X24868Y-23121D01*
X24868Y-23236D01*
X24849Y-23274D01*
X24830Y-23293D01*
X24792Y-23312D01*
X24734Y-23312D01*
X25039Y-23045D02*
X25039Y-23312D01*
X25039Y-23083D02*
X25058Y-23064D01*
X25096Y-23045D01*
X25154Y-23045D01*
X25192Y-23064D01*
X25211Y-23102D01*
X25211Y-23312D01*
X25401Y-23274D02*
X25420Y-23293D01*
X25401Y-23312D01*
X25382Y-23293D01*
X25401Y-23274D01*
X25401Y-23312D01*
X25553Y-23045D02*
X25629Y-23312D01*
X25706Y-23121D01*
X25782Y-23312D01*
X25858Y-23045D01*
X26010Y-23312D02*
X26010Y-22912D01*
X26182Y-23312D02*
X26182Y-23102D01*
X26163Y-23064D01*
X26125Y-23045D01*
X26067Y-23045D01*
X26029Y-23064D01*
X26010Y-23083D01*
X26372Y-23312D02*
X26372Y-23045D01*
X26372Y-22912D02*
X26353Y-22931D01*
X26372Y-22950D01*
X26391Y-22931D01*
X26372Y-22912D01*
X26372Y-22950D01*
X26505Y-23045D02*
X26657Y-23045D01*
X26562Y-22912D02*
X26562Y-23255D01*
X26581Y-23293D01*
X26619Y-23312D01*
X26657Y-23312D01*
X26734Y-23045D02*
X26886Y-23045D01*
X26791Y-22912D02*
X26791Y-23255D01*
X26810Y-23293D01*
X26848Y-23312D01*
X26886Y-23312D01*
X27173Y-23293D02*
X27135Y-23312D01*
X27058Y-23312D01*
X27020Y-23293D01*
X27001Y-23255D01*
X27001Y-23102D01*
X27020Y-23064D01*
X27058Y-23045D01*
X27135Y-23045D01*
X27173Y-23064D01*
X27192Y-23102D01*
X27192Y-23140D01*
X27001Y-23179D01*
X27363Y-23045D02*
X27363Y-23312D01*
X27363Y-23083D02*
X27382Y-23064D01*
X27420Y-23045D01*
X27478Y-23045D01*
X27516Y-23064D01*
X27535Y-23102D01*
X27535Y-23312D01*
X27973Y-23121D02*
X27954Y-23102D01*
X27916Y-23083D01*
X27878Y-23083D01*
X27840Y-23102D01*
X27820Y-23121D01*
X27801Y-23160D01*
X27801Y-23198D01*
X27820Y-23236D01*
X27840Y-23255D01*
X27878Y-23274D01*
X27916Y-23274D01*
X27954Y-23255D01*
X27973Y-23236D01*
X27973Y-23083D02*
X27973Y-23236D01*
X27992Y-23255D01*
X28011Y-23255D01*
X28049Y-23236D01*
X28068Y-23198D01*
X28068Y-23102D01*
X28030Y-23045D01*
X27973Y-23007D01*
X27897Y-22988D01*
X27820Y-23007D01*
X27763Y-23045D01*
X27725Y-23102D01*
X27706Y-23179D01*
X27725Y-23255D01*
X27763Y-23312D01*
X27820Y-23350D01*
X27897Y-23369D01*
X27973Y-23350D01*
X28030Y-23312D01*
X28411Y-23045D02*
X28411Y-23369D01*
X28392Y-23407D01*
X28373Y-23426D01*
X28334Y-23445D01*
X28277Y-23445D01*
X28239Y-23426D01*
X28411Y-23293D02*
X28373Y-23312D01*
X28296Y-23312D01*
X28258Y-23293D01*
X28239Y-23274D01*
X28220Y-23236D01*
X28220Y-23121D01*
X28239Y-23083D01*
X28258Y-23064D01*
X28296Y-23045D01*
X28373Y-23045D01*
X28411Y-23064D01*
X28601Y-23312D02*
X28601Y-23045D01*
X28601Y-23083D02*
X28620Y-23064D01*
X28658Y-23045D01*
X28716Y-23045D01*
X28754Y-23064D01*
X28773Y-23102D01*
X28773Y-23312D01*
X28773Y-23102D02*
X28792Y-23064D01*
X28830Y-23045D01*
X28887Y-23045D01*
X28925Y-23064D01*
X28944Y-23102D01*
X28944Y-23312D01*
X29306Y-23312D02*
X29306Y-23102D01*
X29287Y-23064D01*
X29249Y-23045D01*
X29172Y-23045D01*
X29134Y-23064D01*
X29306Y-23293D02*
X29268Y-23312D01*
X29172Y-23312D01*
X29134Y-23293D01*
X29115Y-23255D01*
X29115Y-23217D01*
X29134Y-23179D01*
X29172Y-23160D01*
X29268Y-23160D01*
X29306Y-23140D01*
X29496Y-23312D02*
X29496Y-23045D01*
X29496Y-22912D02*
X29477Y-22931D01*
X29496Y-22950D01*
X29515Y-22931D01*
X29496Y-22912D01*
X29496Y-22950D01*
X29743Y-23312D02*
X29705Y-23293D01*
X29686Y-23255D01*
X29686Y-22912D01*
X29896Y-23274D02*
X29915Y-23293D01*
X29896Y-23312D01*
X29877Y-23293D01*
X29896Y-23274D01*
X29896Y-23312D01*
X30258Y-23293D02*
X30220Y-23312D01*
X30143Y-23312D01*
X30105Y-23293D01*
X30086Y-23274D01*
X30067Y-23236D01*
X30067Y-23121D01*
X30086Y-23083D01*
X30105Y-23064D01*
X30143Y-23045D01*
X30220Y-23045D01*
X30258Y-23064D01*
X30486Y-23312D02*
X30448Y-23293D01*
X30429Y-23274D01*
X30410Y-23236D01*
X30410Y-23121D01*
X30429Y-23083D01*
X30448Y-23064D01*
X30486Y-23045D01*
X30544Y-23045D01*
X30582Y-23064D01*
X30601Y-23083D01*
X30620Y-23121D01*
X30620Y-23236D01*
X30601Y-23274D01*
X30582Y-23293D01*
X30544Y-23312D01*
X30486Y-23312D01*
X30791Y-23312D02*
X30791Y-23045D01*
X30791Y-23083D02*
X30810Y-23064D01*
X30848Y-23045D01*
X30906Y-23045D01*
X30944Y-23064D01*
X30963Y-23102D01*
X30963Y-23312D01*
X30963Y-23102D02*
X30982Y-23064D01*
X31020Y-23045D01*
X31077Y-23045D01*
X31115Y-23064D01*
X31134Y-23102D01*
X31134Y-23312D01*
X48166Y-33665D02*
X48166Y-34008D01*
X48147Y-34046D01*
X48109Y-34065D01*
X48090Y-34065D01*
X48166Y-33532D02*
X48147Y-33551D01*
X48166Y-33570D01*
X48185Y-33551D01*
X48166Y-33532D01*
X48166Y-33570D01*
X48528Y-33665D02*
X48528Y-33932D01*
X48356Y-33665D02*
X48356Y-33875D01*
X48375Y-33913D01*
X48413Y-33932D01*
X48471Y-33932D01*
X48509Y-33913D01*
X48528Y-33894D01*
X48718Y-33932D02*
X48718Y-33665D01*
X48718Y-33703D02*
X48737Y-33684D01*
X48775Y-33665D01*
X48833Y-33665D01*
X48871Y-33684D01*
X48890Y-33722D01*
X48890Y-33932D01*
X48890Y-33722D02*
X48909Y-33684D01*
X48947Y-33665D01*
X49004Y-33665D01*
X49042Y-33684D01*
X49061Y-33722D01*
X49061Y-33932D01*
X49251Y-33665D02*
X49251Y-34065D01*
X49251Y-33684D02*
X49289Y-33665D01*
X49366Y-33665D01*
X49404Y-33684D01*
X49423Y-33703D01*
X49442Y-33741D01*
X49442Y-33856D01*
X49423Y-33894D01*
X49404Y-33913D01*
X49366Y-33932D01*
X49289Y-33932D01*
X49251Y-33913D01*
X49766Y-33913D02*
X49728Y-33932D01*
X49651Y-33932D01*
X49613Y-33913D01*
X49594Y-33875D01*
X49594Y-33722D01*
X49613Y-33684D01*
X49651Y-33665D01*
X49728Y-33665D01*
X49766Y-33684D01*
X49785Y-33722D01*
X49785Y-33760D01*
X49594Y-33799D01*
X49956Y-33932D02*
X49956Y-33665D01*
X49956Y-33741D02*
X49975Y-33703D01*
X49994Y-33684D01*
X50032Y-33665D01*
X50071Y-33665D01*
X25156Y-36011D02*
X25156Y-35934D01*
X25175Y-35896D01*
X25213Y-35858D01*
X25289Y-35839D01*
X25423Y-35839D01*
X25499Y-35858D01*
X25537Y-35896D01*
X25556Y-35934D01*
X25556Y-36011D01*
X25537Y-36049D01*
X25499Y-36087D01*
X25423Y-36106D01*
X25289Y-36106D01*
X25213Y-36087D01*
X25175Y-36049D01*
X25156Y-36011D01*
X25346Y-35534D02*
X25346Y-35668D01*
X25556Y-35668D02*
X25156Y-35668D01*
X25156Y-35477D01*
X25346Y-35191D02*
X25346Y-35325D01*
X25556Y-35325D02*
X25156Y-35325D01*
X25156Y-35134D01*
X25156Y-30760D02*
X25156Y-30683D01*
X25175Y-30645D01*
X25213Y-30607D01*
X25289Y-30588D01*
X25423Y-30588D01*
X25499Y-30607D01*
X25537Y-30645D01*
X25556Y-30683D01*
X25556Y-30760D01*
X25537Y-30798D01*
X25499Y-30836D01*
X25423Y-30855D01*
X25289Y-30855D01*
X25213Y-30836D01*
X25175Y-30798D01*
X25156Y-30760D01*
X25556Y-30417D02*
X25156Y-30417D01*
X25556Y-30188D01*
X25156Y-30188D01*
X25822Y-28179D02*
X25822Y-27779D01*
X25975Y-27779D01*
X26013Y-27798D01*
X26032Y-27817D01*
X26051Y-27855D01*
X26051Y-27912D01*
X26032Y-27950D01*
X26013Y-27969D01*
X25975Y-27988D01*
X25822Y-27988D01*
X26298Y-27779D02*
X26375Y-27779D01*
X26413Y-27798D01*
X26451Y-27836D01*
X26470Y-27912D01*
X26470Y-28046D01*
X26451Y-28122D01*
X26413Y-28160D01*
X26375Y-28179D01*
X26298Y-28179D01*
X26260Y-28160D01*
X26222Y-28122D01*
X26203Y-28046D01*
X26203Y-27912D01*
X26222Y-27836D01*
X26260Y-27798D01*
X26298Y-27779D01*
X26603Y-27779D02*
X26698Y-28179D01*
X26775Y-27893D01*
X26851Y-28179D01*
X26946Y-27779D01*
X27098Y-27969D02*
X27232Y-27969D01*
X27289Y-28179D02*
X27098Y-28179D01*
X27098Y-27779D01*
X27289Y-27779D01*
X27689Y-28179D02*
X27555Y-27988D01*
X27460Y-28179D02*
X27460Y-27779D01*
X27613Y-27779D01*
X27651Y-27798D01*
X27670Y-27817D01*
X27689Y-27855D01*
X27689Y-27912D01*
X27670Y-27950D01*
X27651Y-27969D01*
X27613Y-27988D01*
X27460Y-27988D01*
G54D12*
X27046Y-25947D02*
X25876Y-27117D01*
X26296Y-25947D02*
X27046Y-25947D01*
X27106Y-25137D02*
X26296Y-25947D01*
X26166Y-25137D02*
X27106Y-25137D01*
X26936Y-24367D02*
X26166Y-25137D01*
G54D14*
X34102Y-30331D02*
X34102Y-30031D01*
X34255Y-30031D01*
X34293Y-30046D01*
X34312Y-30060D01*
X34331Y-30089D01*
X34331Y-30131D01*
X34312Y-30160D01*
X34293Y-30174D01*
X34255Y-30189D01*
X34102Y-30189D01*
X34502Y-30331D02*
X34502Y-30031D01*
X34597Y-30031D01*
X34655Y-30046D01*
X34693Y-30074D01*
X34712Y-30103D01*
X34731Y-30160D01*
X34731Y-30203D01*
X34712Y-30260D01*
X34693Y-30289D01*
X34655Y-30317D01*
X34597Y-30331D01*
X34502Y-30331D01*
X34902Y-30331D02*
X34902Y-30031D01*
X35092Y-30331D02*
X35092Y-30031D01*
X35245Y-30031D01*
X35283Y-30046D01*
X35302Y-30060D01*
X35321Y-30089D01*
X35321Y-30131D01*
X35302Y-30160D01*
X35283Y-30174D01*
X35245Y-30189D01*
X35092Y-30189D01*
X35492Y-30217D02*
X35797Y-30217D01*
X35968Y-30060D02*
X35987Y-30046D01*
X36025Y-30031D01*
X36121Y-30031D01*
X36159Y-30046D01*
X36178Y-30060D01*
X36197Y-30089D01*
X36197Y-30117D01*
X36178Y-30160D01*
X35949Y-30331D01*
X36197Y-30331D01*
X36425Y-30160D02*
X36387Y-30146D01*
X36368Y-30131D01*
X36349Y-30103D01*
X36349Y-30089D01*
X36368Y-30060D01*
X36387Y-30046D01*
X36425Y-30031D01*
X36502Y-30031D01*
X36540Y-30046D01*
X36559Y-30060D01*
X36578Y-30089D01*
X36578Y-30103D01*
X36559Y-30131D01*
X36540Y-30146D01*
X36502Y-30160D01*
X36425Y-30160D01*
X36387Y-30174D01*
X36368Y-30189D01*
X36349Y-30217D01*
X36349Y-30274D01*
X36368Y-30303D01*
X36387Y-30317D01*
X36425Y-30331D01*
X36502Y-30331D01*
X36540Y-30317D01*
X36559Y-30303D01*
X36578Y-30274D01*
X36578Y-30217D01*
X36559Y-30189D01*
X36540Y-30174D01*
X36502Y-30160D01*
X36749Y-30217D02*
X37054Y-30217D01*
X37244Y-30331D02*
X37244Y-30031D01*
X37397Y-30031D01*
X37435Y-30046D01*
X37454Y-30060D01*
X37473Y-30089D01*
X37473Y-30131D01*
X37454Y-30160D01*
X37435Y-30174D01*
X37397Y-30189D01*
X37244Y-30189D01*
X37644Y-30331D02*
X37644Y-30031D01*
X37834Y-30331D02*
X37834Y-30031D01*
X38063Y-30331D01*
X38063Y-30031D01*
X38368Y-30446D02*
X38348Y-30431D01*
X38310Y-30389D01*
X38291Y-30360D01*
X38272Y-30317D01*
X38253Y-30246D01*
X38253Y-30189D01*
X38272Y-30117D01*
X38291Y-30074D01*
X38310Y-30046D01*
X38348Y-30003D01*
X38368Y-29989D01*
X38730Y-30331D02*
X38501Y-30331D01*
X38615Y-30331D02*
X38615Y-30031D01*
X38577Y-30074D01*
X38539Y-30103D01*
X38501Y-30117D01*
X38863Y-30446D02*
X38882Y-30431D01*
X38920Y-30389D01*
X38939Y-30360D01*
X38958Y-30317D01*
X38977Y-30246D01*
X38977Y-30189D01*
X38958Y-30117D01*
X38939Y-30074D01*
X38920Y-30046D01*
X38882Y-30003D01*
X38863Y-29989D01*
G54D12*
X36300Y-28490D02*
X36300Y-29380D01*
G54D15*
X24225Y-21480D02*
X24463Y-21480D01*
X24178Y-21622D02*
X24344Y-21122D01*
X24511Y-21622D01*
X24607Y-21122D02*
X24892Y-21122D01*
X24749Y-21622D02*
X24749Y-21122D01*
X24988Y-21289D02*
X25178Y-21289D01*
X25059Y-21122D02*
X25059Y-21551D01*
X25083Y-21599D01*
X25130Y-21622D01*
X25178Y-21622D01*
X25345Y-21622D02*
X25345Y-21289D01*
X25345Y-21122D02*
X25321Y-21146D01*
X25345Y-21170D01*
X25369Y-21146D01*
X25345Y-21122D01*
X25345Y-21170D01*
X25583Y-21289D02*
X25583Y-21622D01*
X25583Y-21337D02*
X25607Y-21313D01*
X25654Y-21289D01*
X25726Y-21289D01*
X25774Y-21313D01*
X25797Y-21360D01*
X25797Y-21622D01*
X25987Y-21289D02*
X26106Y-21622D01*
X26226Y-21289D02*
X26106Y-21622D01*
X26059Y-21741D01*
X26035Y-21765D01*
X25987Y-21789D01*
X26487Y-21337D02*
X26440Y-21313D01*
X26416Y-21289D01*
X26392Y-21241D01*
X26392Y-21218D01*
X26416Y-21170D01*
X26440Y-21146D01*
X26487Y-21122D01*
X26583Y-21122D01*
X26630Y-21146D01*
X26654Y-21170D01*
X26678Y-21218D01*
X26678Y-21241D01*
X26654Y-21289D01*
X26630Y-21313D01*
X26583Y-21337D01*
X26487Y-21337D01*
X26440Y-21360D01*
X26416Y-21384D01*
X26392Y-21432D01*
X26392Y-21527D01*
X26416Y-21575D01*
X26440Y-21599D01*
X26487Y-21622D01*
X26583Y-21622D01*
X26630Y-21599D01*
X26654Y-21575D01*
X26678Y-21527D01*
X26678Y-21432D01*
X26654Y-21384D01*
X26630Y-21360D01*
X26583Y-21337D01*
X27130Y-21122D02*
X26892Y-21122D01*
X26868Y-21360D01*
X26892Y-21337D01*
X26940Y-21313D01*
X27059Y-21313D01*
X27106Y-21337D01*
X27130Y-21360D01*
X27154Y-21408D01*
X27154Y-21527D01*
X27130Y-21575D01*
X27106Y-21599D01*
X27059Y-21622D01*
X26940Y-21622D01*
X26892Y-21599D01*
X26868Y-21575D01*
X27392Y-21599D02*
X27392Y-21622D01*
X27368Y-21670D01*
X27344Y-21694D01*
X27963Y-21480D02*
X28201Y-21480D01*
X27916Y-21622D02*
X28082Y-21122D01*
X28249Y-21622D01*
X28345Y-21122D02*
X28630Y-21122D01*
X28487Y-21622D02*
X28487Y-21122D01*
X28797Y-21622D02*
X28797Y-21122D01*
X28964Y-21480D01*
X29130Y-21122D01*
X29130Y-21622D01*
X29559Y-21599D02*
X29511Y-21622D01*
X29416Y-21622D01*
X29368Y-21599D01*
X29344Y-21551D01*
X29344Y-21360D01*
X29368Y-21313D01*
X29416Y-21289D01*
X29511Y-21289D01*
X29559Y-21313D01*
X29582Y-21360D01*
X29582Y-21408D01*
X29344Y-21456D01*
X30011Y-21289D02*
X30011Y-21694D01*
X29988Y-21741D01*
X29964Y-21765D01*
X29916Y-21789D01*
X29845Y-21789D01*
X29797Y-21765D01*
X30011Y-21599D02*
X29964Y-21622D01*
X29868Y-21622D01*
X29821Y-21599D01*
X29797Y-21575D01*
X29773Y-21527D01*
X29773Y-21384D01*
X29797Y-21337D01*
X29821Y-21313D01*
X29868Y-21289D01*
X29964Y-21289D01*
X30011Y-21313D01*
X30463Y-21622D02*
X30463Y-21360D01*
X30440Y-21313D01*
X30392Y-21289D01*
X30297Y-21289D01*
X30249Y-21313D01*
X30463Y-21599D02*
X30416Y-21622D01*
X30297Y-21622D01*
X30249Y-21599D01*
X30225Y-21551D01*
X30225Y-21503D01*
X30249Y-21456D01*
X30297Y-21432D01*
X30416Y-21432D01*
X30463Y-21408D01*
X30653Y-21122D02*
X30963Y-21122D01*
X30796Y-21313D01*
X30868Y-21313D01*
X30915Y-21337D01*
X30939Y-21360D01*
X30963Y-21408D01*
X30963Y-21527D01*
X30939Y-21575D01*
X30915Y-21599D01*
X30868Y-21622D01*
X30725Y-21622D01*
X30677Y-21599D01*
X30653Y-21575D01*
X31153Y-21170D02*
X31177Y-21146D01*
X31225Y-21122D01*
X31344Y-21122D01*
X31391Y-21146D01*
X31415Y-21170D01*
X31439Y-21218D01*
X31439Y-21265D01*
X31415Y-21337D01*
X31129Y-21622D01*
X31439Y-21622D01*
X31724Y-21337D02*
X31677Y-21313D01*
X31653Y-21289D01*
X31629Y-21241D01*
X31629Y-21218D01*
X31653Y-21170D01*
X31677Y-21146D01*
X31724Y-21122D01*
X31820Y-21122D01*
X31867Y-21146D01*
X31891Y-21170D01*
X31915Y-21218D01*
X31915Y-21241D01*
X31891Y-21289D01*
X31867Y-21313D01*
X31820Y-21337D01*
X31724Y-21337D01*
X31677Y-21360D01*
X31653Y-21384D01*
X31629Y-21432D01*
X31629Y-21527D01*
X31653Y-21575D01*
X31677Y-21599D01*
X31724Y-21622D01*
X31820Y-21622D01*
X31867Y-21599D01*
X31891Y-21575D01*
X31915Y-21527D01*
X31915Y-21432D01*
X31891Y-21384D01*
X31867Y-21360D01*
X31820Y-21337D01*
G54D14*
X41373Y-30321D02*
X41373Y-30021D01*
X41526Y-30021D01*
X41564Y-30036D01*
X41583Y-30050D01*
X41602Y-30079D01*
X41602Y-30121D01*
X41583Y-30150D01*
X41564Y-30164D01*
X41526Y-30179D01*
X41373Y-30179D01*
X41773Y-30321D02*
X41773Y-30021D01*
X41868Y-30021D01*
X41926Y-30036D01*
X41964Y-30064D01*
X41983Y-30093D01*
X42002Y-30150D01*
X42002Y-30193D01*
X41983Y-30250D01*
X41964Y-30279D01*
X41926Y-30307D01*
X41868Y-30321D01*
X41773Y-30321D01*
X42173Y-30321D02*
X42173Y-30021D01*
X42363Y-30321D02*
X42363Y-30021D01*
X42516Y-30021D01*
X42554Y-30036D01*
X42573Y-30050D01*
X42592Y-30079D01*
X42592Y-30121D01*
X42573Y-30150D01*
X42554Y-30164D01*
X42516Y-30179D01*
X42363Y-30179D01*
X42763Y-30207D02*
X43068Y-30207D01*
X43315Y-30150D02*
X43277Y-30136D01*
X43258Y-30121D01*
X43239Y-30093D01*
X43239Y-30079D01*
X43258Y-30050D01*
X43277Y-30036D01*
X43315Y-30021D01*
X43392Y-30021D01*
X43430Y-30036D01*
X43449Y-30050D01*
X43468Y-30079D01*
X43468Y-30093D01*
X43449Y-30121D01*
X43430Y-30136D01*
X43392Y-30150D01*
X43315Y-30150D01*
X43277Y-30164D01*
X43258Y-30179D01*
X43239Y-30207D01*
X43239Y-30264D01*
X43258Y-30293D01*
X43277Y-30307D01*
X43315Y-30321D01*
X43392Y-30321D01*
X43430Y-30307D01*
X43449Y-30293D01*
X43468Y-30264D01*
X43468Y-30207D01*
X43449Y-30179D01*
X43430Y-30164D01*
X43392Y-30150D01*
X43639Y-30207D02*
X43944Y-30207D01*
X44134Y-30321D02*
X44134Y-30021D01*
X44287Y-30021D01*
X44325Y-30036D01*
X44344Y-30050D01*
X44363Y-30079D01*
X44363Y-30121D01*
X44344Y-30150D01*
X44325Y-30164D01*
X44287Y-30179D01*
X44134Y-30179D01*
X44534Y-30321D02*
X44534Y-30021D01*
X44724Y-30321D02*
X44724Y-30021D01*
X44953Y-30321D01*
X44953Y-30021D01*
X45258Y-30436D02*
X45238Y-30421D01*
X45200Y-30379D01*
X45181Y-30350D01*
X45162Y-30307D01*
X45143Y-30236D01*
X45143Y-30179D01*
X45162Y-30107D01*
X45181Y-30064D01*
X45200Y-30036D01*
X45238Y-29993D01*
X45258Y-29979D01*
X45620Y-30321D02*
X45391Y-30321D01*
X45505Y-30321D02*
X45505Y-30021D01*
X45467Y-30064D01*
X45429Y-30093D01*
X45391Y-30107D01*
X45753Y-30436D02*
X45772Y-30421D01*
X45810Y-30379D01*
X45829Y-30350D01*
X45848Y-30307D01*
X45867Y-30236D01*
X45867Y-30179D01*
X45848Y-30107D01*
X45829Y-30064D01*
X45810Y-30036D01*
X45772Y-29993D01*
X45753Y-29979D01*
G54D12*
X43290Y-28430D02*
X43290Y-29540D01*
X24500Y-20170D02*
X24500Y-18260D01*
X30520Y-20170D02*
X24500Y-20170D01*
X30520Y-18260D02*
X30520Y-20170D01*
X24520Y-18260D02*
X30520Y-18260D01*
G54D16*
X25506Y-19721D02*
X25506Y-19521D01*
X25582Y-19521D01*
X25601Y-19530D01*
X25610Y-19540D01*
X25620Y-19559D01*
X25620Y-19588D01*
X25610Y-19607D01*
X25601Y-19616D01*
X25582Y-19626D01*
X25506Y-19626D01*
X25706Y-19721D02*
X25706Y-19521D01*
X25753Y-19521D01*
X25782Y-19530D01*
X25801Y-19550D01*
X25810Y-19569D01*
X25820Y-19607D01*
X25820Y-19635D01*
X25810Y-19673D01*
X25801Y-19692D01*
X25782Y-19711D01*
X25753Y-19721D01*
X25706Y-19721D01*
X25906Y-19721D02*
X25906Y-19521D01*
X26001Y-19721D02*
X26001Y-19521D01*
X26077Y-19521D01*
X26096Y-19530D01*
X26105Y-19540D01*
X26115Y-19559D01*
X26115Y-19588D01*
X26105Y-19607D01*
X26096Y-19616D01*
X26077Y-19626D01*
X26001Y-19626D01*
X26201Y-19645D02*
X26353Y-19645D01*
X26477Y-19607D02*
X26458Y-19597D01*
X26449Y-19588D01*
X26439Y-19569D01*
X26439Y-19559D01*
X26449Y-19540D01*
X26458Y-19530D01*
X26477Y-19521D01*
X26515Y-19521D01*
X26534Y-19530D01*
X26544Y-19540D01*
X26553Y-19559D01*
X26553Y-19569D01*
X26544Y-19588D01*
X26534Y-19597D01*
X26515Y-19607D01*
X26477Y-19607D01*
X26458Y-19616D01*
X26449Y-19626D01*
X26439Y-19645D01*
X26439Y-19683D01*
X26449Y-19702D01*
X26458Y-19711D01*
X26477Y-19721D01*
X26515Y-19721D01*
X26534Y-19711D01*
X26544Y-19702D01*
X26553Y-19683D01*
X26553Y-19645D01*
X26544Y-19626D01*
X26534Y-19616D01*
X26515Y-19607D01*
X26848Y-19788D02*
X26800Y-19788D01*
X26800Y-19502D01*
X26848Y-19502D01*
X26924Y-19721D02*
X26924Y-19521D01*
X27000Y-19521D01*
X27019Y-19530D01*
X27028Y-19540D01*
X27038Y-19559D01*
X27038Y-19588D01*
X27028Y-19607D01*
X27019Y-19616D01*
X27000Y-19626D01*
X26924Y-19626D01*
X27228Y-19721D02*
X27114Y-19721D01*
X27171Y-19721D02*
X27171Y-19521D01*
X27152Y-19550D01*
X27133Y-19569D01*
X27114Y-19578D01*
X27295Y-19788D02*
X27342Y-19788D01*
X27342Y-19502D01*
X27295Y-19502D01*
X27599Y-19645D02*
X27751Y-19645D01*
X27847Y-19645D02*
X27999Y-19645D01*
X28228Y-19521D02*
X28361Y-19521D01*
X28228Y-19721D01*
X28361Y-19721D01*
X28437Y-19721D02*
X28437Y-19521D01*
X28598Y-19616D02*
X28532Y-19616D01*
X28532Y-19721D02*
X28532Y-19521D01*
X28627Y-19521D01*
X28912Y-19788D02*
X28864Y-19788D01*
X28864Y-19502D01*
X28912Y-19502D01*
X28988Y-19721D02*
X28988Y-19521D01*
X29064Y-19521D01*
X29083Y-19530D01*
X29092Y-19540D01*
X29102Y-19559D01*
X29102Y-19588D01*
X29092Y-19607D01*
X29083Y-19616D01*
X29064Y-19626D01*
X28988Y-19626D01*
X29197Y-19721D02*
X29235Y-19721D01*
X29254Y-19711D01*
X29264Y-19702D01*
X29283Y-19673D01*
X29292Y-19635D01*
X29292Y-19559D01*
X29283Y-19540D01*
X29273Y-19530D01*
X29254Y-19521D01*
X29216Y-19521D01*
X29197Y-19530D01*
X29188Y-19540D01*
X29178Y-19559D01*
X29178Y-19607D01*
X29188Y-19626D01*
X29197Y-19635D01*
X29216Y-19645D01*
X29254Y-19645D01*
X29273Y-19635D01*
X29283Y-19626D01*
X29292Y-19607D01*
X29359Y-19788D02*
X29406Y-19788D01*
X29406Y-19502D01*
X29359Y-19502D01*
G54D11*
X24882Y-19081D02*
X25073Y-19081D01*
X24844Y-19253D02*
X24977Y-18653D01*
X25111Y-19253D01*
X25187Y-18653D02*
X25320Y-19253D01*
X25454Y-18653D01*
X25816Y-19253D02*
X25682Y-18967D01*
X25587Y-19253D02*
X25587Y-18653D01*
X25740Y-18653D01*
X25778Y-18681D01*
X25797Y-18710D01*
X25816Y-18767D01*
X25816Y-18853D01*
X25797Y-18910D01*
X25778Y-18939D01*
X25740Y-18967D01*
X25587Y-18967D01*
X26292Y-19253D02*
X26292Y-18653D01*
X26445Y-18653D01*
X26483Y-18681D01*
X26502Y-18710D01*
X26521Y-18767D01*
X26521Y-18853D01*
X26502Y-18910D01*
X26483Y-18939D01*
X26445Y-18967D01*
X26292Y-18967D01*
X26921Y-19253D02*
X26787Y-18967D01*
X26692Y-19253D02*
X26692Y-18653D01*
X26845Y-18653D01*
X26883Y-18681D01*
X26902Y-18710D01*
X26921Y-18767D01*
X26921Y-18853D01*
X26902Y-18910D01*
X26883Y-18939D01*
X26845Y-18967D01*
X26692Y-18967D01*
X27168Y-18653D02*
X27245Y-18653D01*
X27283Y-18681D01*
X27321Y-18739D01*
X27340Y-18853D01*
X27340Y-19053D01*
X27321Y-19167D01*
X27283Y-19224D01*
X27245Y-19253D01*
X27168Y-19253D01*
X27130Y-19224D01*
X27092Y-19167D01*
X27073Y-19053D01*
X27073Y-18853D01*
X27092Y-18739D01*
X27130Y-18681D01*
X27168Y-18653D01*
X27721Y-18681D02*
X27683Y-18653D01*
X27626Y-18653D01*
X27568Y-18681D01*
X27530Y-18739D01*
X27511Y-18796D01*
X27492Y-18910D01*
X27492Y-18996D01*
X27511Y-19110D01*
X27530Y-19167D01*
X27568Y-19224D01*
X27626Y-19253D01*
X27664Y-19253D01*
X27721Y-19224D01*
X27740Y-19196D01*
X27740Y-18996D01*
X27664Y-18996D01*
X28140Y-19253D02*
X28006Y-18967D01*
X27911Y-19253D02*
X27911Y-18653D01*
X28064Y-18653D01*
X28102Y-18681D01*
X28121Y-18710D01*
X28140Y-18767D01*
X28140Y-18853D01*
X28121Y-18910D01*
X28102Y-18939D01*
X28064Y-18967D01*
X27911Y-18967D01*
X28292Y-19081D02*
X28483Y-19081D01*
X28254Y-19253D02*
X28387Y-18653D01*
X28521Y-19253D01*
X28654Y-19253D02*
X28654Y-18653D01*
X28788Y-19081D01*
X28921Y-18653D01*
X28921Y-19253D01*
X29111Y-19253D02*
X29111Y-18653D01*
X29245Y-19081D01*
X29378Y-18653D01*
X29378Y-19253D01*
X29568Y-18939D02*
X29702Y-18939D01*
X29759Y-19253D02*
X29568Y-19253D01*
X29568Y-18653D01*
X29759Y-18653D01*
X30159Y-19253D02*
X30025Y-18967D01*
X29930Y-19253D02*
X29930Y-18653D01*
X30083Y-18653D01*
X30121Y-18681D01*
X30140Y-18710D01*
X30159Y-18767D01*
X30159Y-18853D01*
X30140Y-18910D01*
X30121Y-18939D01*
X30083Y-18967D01*
X29930Y-18967D01*
G54D16*
X39590Y-29620D02*
X39960Y-29620D01*
X39560Y-29000D02*
X39960Y-29000D01*
X40760Y-29620D02*
X40380Y-29620D01*
X40760Y-29000D02*
X40370Y-29000D01*
X39560Y-29610D02*
X39559Y-29619D01*
X39556Y-29629D01*
X39551Y-29637D01*
X39545Y-29645D01*
X39537Y-29651D01*
X39529Y-29656D01*
X39520Y-29658D01*
X39510Y-29659D01*
X39501Y-29659D01*
X39492Y-29656D01*
X39483Y-29651D01*
X39476Y-29645D01*
X39469Y-29638D01*
X39465Y-29629D01*
X39462Y-29620D01*
X39461Y-29610D01*
X39461Y-29601D01*
X39464Y-29592D01*
X39468Y-29583D01*
X39475Y-29576D01*
X39482Y-29569D01*
X39490Y-29565D01*
X39500Y-29562D01*
X39509Y-29561D01*
X39518Y-29561D01*
X39528Y-29564D01*
X39536Y-29568D01*
X39544Y-29574D01*
X39550Y-29582D01*
X39555Y-29590D01*
X39558Y-29599D01*
X39559Y-29609D01*
X39560Y-29610D01*
X39560Y-29610D02*
X39560Y-29010D01*
X40760Y-29010D02*
X40760Y-29610D01*
X51870Y-34900D02*
X51870Y-34530D01*
X51250Y-34930D02*
X51250Y-34530D01*
X51870Y-33730D02*
X51870Y-34110D01*
X51250Y-33730D02*
X51250Y-34120D01*
X51910Y-34980D02*
X51909Y-34989D01*
X51906Y-34999D01*
X51901Y-35007D01*
X51895Y-35015D01*
X51887Y-35021D01*
X51879Y-35026D01*
X51870Y-35028D01*
X51860Y-35029D01*
X51851Y-35029D01*
X51842Y-35026D01*
X51833Y-35021D01*
X51826Y-35015D01*
X51819Y-35008D01*
X51815Y-34999D01*
X51812Y-34990D01*
X51811Y-34980D01*
X51811Y-34971D01*
X51814Y-34962D01*
X51818Y-34953D01*
X51825Y-34946D01*
X51832Y-34939D01*
X51840Y-34935D01*
X51850Y-34932D01*
X51859Y-34931D01*
X51868Y-34931D01*
X51878Y-34934D01*
X51886Y-34938D01*
X51894Y-34944D01*
X51900Y-34952D01*
X51905Y-34960D01*
X51908Y-34969D01*
X51909Y-34979D01*
X51910Y-34980D01*
X51860Y-34930D02*
X51260Y-34930D01*
X51260Y-33730D02*
X51860Y-33730D01*
X39620Y-34360D02*
X39620Y-33990D01*
X39000Y-34390D02*
X39000Y-33990D01*
X39620Y-33190D02*
X39620Y-33570D01*
X39000Y-33190D02*
X39000Y-33580D01*
X39660Y-34440D02*
X39659Y-34449D01*
X39656Y-34459D01*
X39651Y-34467D01*
X39645Y-34475D01*
X39637Y-34481D01*
X39629Y-34486D01*
X39620Y-34488D01*
X39610Y-34489D01*
X39601Y-34489D01*
X39592Y-34486D01*
X39583Y-34481D01*
X39576Y-34475D01*
X39569Y-34468D01*
X39565Y-34459D01*
X39562Y-34450D01*
X39561Y-34440D01*
X39561Y-34431D01*
X39564Y-34422D01*
X39568Y-34413D01*
X39575Y-34406D01*
X39582Y-34399D01*
X39590Y-34395D01*
X39600Y-34392D01*
X39609Y-34391D01*
X39618Y-34391D01*
X39628Y-34394D01*
X39636Y-34398D01*
X39644Y-34404D01*
X39650Y-34412D01*
X39655Y-34420D01*
X39658Y-34429D01*
X39659Y-34439D01*
X39660Y-34440D01*
X39610Y-34390D02*
X39010Y-34390D01*
X39010Y-33190D02*
X39610Y-33190D01*
X35290Y-35727D02*
X35290Y-35357D01*
X34670Y-35757D02*
X34670Y-35357D01*
X35290Y-34557D02*
X35290Y-34937D01*
X34670Y-34557D02*
X34670Y-34947D01*
X35330Y-35807D02*
X35329Y-35816D01*
X35326Y-35826D01*
X35321Y-35834D01*
X35315Y-35842D01*
X35307Y-35848D01*
X35299Y-35853D01*
X35290Y-35855D01*
X35280Y-35856D01*
X35271Y-35856D01*
X35262Y-35853D01*
X35253Y-35848D01*
X35246Y-35842D01*
X35239Y-35835D01*
X35235Y-35826D01*
X35232Y-35817D01*
X35231Y-35807D01*
X35231Y-35798D01*
X35234Y-35789D01*
X35238Y-35780D01*
X35245Y-35773D01*
X35252Y-35766D01*
X35260Y-35762D01*
X35270Y-35759D01*
X35279Y-35758D01*
X35288Y-35758D01*
X35298Y-35761D01*
X35306Y-35765D01*
X35314Y-35771D01*
X35320Y-35779D01*
X35325Y-35787D01*
X35328Y-35796D01*
X35329Y-35806D01*
X35330Y-35807D01*
X35280Y-35757D02*
X34680Y-35757D01*
X34680Y-34557D02*
X35280Y-34557D01*
G54D17*
X61630Y-25232D02*
X61630Y-28232D01*
X59630Y-28232D02*
X59630Y-25232D01*
X59630Y-25232D02*
X61630Y-25232D01*
X61630Y-28232D02*
X59630Y-28232D01*
G54D10*
X47977Y-35222D02*
X47977Y-34222D01*
X47977Y-34222D02*
X49977Y-34222D01*
X49977Y-34222D02*
X49977Y-35222D01*
X49977Y-35222D02*
X47977Y-35222D01*
G54D12*
X41498Y-33706D02*
X41413Y-33710D01*
X41328Y-33721D01*
X41244Y-33740D01*
X41162Y-33766D01*
X41083Y-33799D01*
X41007Y-33838D01*
X40934Y-33884D01*
X40866Y-33937D01*
X40803Y-33995D01*
X40745Y-34058D01*
X40692Y-34126D01*
X40646Y-34199D01*
X40607Y-34275D01*
X40574Y-34354D01*
X40548Y-34436D01*
X40529Y-34520D01*
X40518Y-34605D01*
X40514Y-34690D01*
X40514Y-34690D02*
X40518Y-34775D01*
X40529Y-34860D01*
X40548Y-34944D01*
X40574Y-35026D01*
X40607Y-35105D01*
X40646Y-35181D01*
X40692Y-35254D01*
X40745Y-35322D01*
X40803Y-35385D01*
X40866Y-35443D01*
X40934Y-35496D01*
X41007Y-35542D01*
X41083Y-35581D01*
X41162Y-35614D01*
X41244Y-35640D01*
X41328Y-35659D01*
X41413Y-35670D01*
X41498Y-35674D01*
X46222Y-35674D02*
X46307Y-35670D01*
X46392Y-35659D01*
X46476Y-35640D01*
X46558Y-35614D01*
X46637Y-35581D01*
X46714Y-35542D01*
X46786Y-35496D01*
X46854Y-35443D01*
X46917Y-35385D01*
X46975Y-35322D01*
X47028Y-35254D01*
X47074Y-35181D01*
X47113Y-35105D01*
X47146Y-35026D01*
X47172Y-34944D01*
X47191Y-34860D01*
X47202Y-34775D01*
X47206Y-34690D01*
X47206Y-34690D02*
X47202Y-34605D01*
X47191Y-34520D01*
X47172Y-34436D01*
X47146Y-34354D01*
X47113Y-34275D01*
X47074Y-34199D01*
X47028Y-34126D01*
X46975Y-34058D01*
X46917Y-33995D01*
X46854Y-33937D01*
X46786Y-33884D01*
X46714Y-33838D01*
X46637Y-33799D01*
X46558Y-33766D01*
X46476Y-33740D01*
X46392Y-33721D01*
X46307Y-33710D01*
X46222Y-33706D01*
G54D18*
X42610Y-35690D02*
X45110Y-35690D01*
X42610Y-33690D02*
X45110Y-33690D01*
G54D16*
X56591Y-35719D02*
X56591Y-35349D01*
X55971Y-35749D02*
X55971Y-35349D01*
X56591Y-34549D02*
X56591Y-34929D01*
X55971Y-34549D02*
X55971Y-34939D01*
X56631Y-35799D02*
X56630Y-35808D01*
X56627Y-35818D01*
X56622Y-35826D01*
X56616Y-35834D01*
X56608Y-35840D01*
X56600Y-35845D01*
X56591Y-35847D01*
X56581Y-35848D01*
X56572Y-35848D01*
X56563Y-35845D01*
X56554Y-35840D01*
X56547Y-35834D01*
X56540Y-35827D01*
X56536Y-35818D01*
X56533Y-35809D01*
X56532Y-35799D01*
X56532Y-35790D01*
X56535Y-35781D01*
X56539Y-35772D01*
X56546Y-35765D01*
X56553Y-35758D01*
X56561Y-35754D01*
X56571Y-35751D01*
X56580Y-35750D01*
X56589Y-35750D01*
X56599Y-35753D01*
X56607Y-35757D01*
X56615Y-35763D01*
X56621Y-35771D01*
X56626Y-35779D01*
X56629Y-35788D01*
X56630Y-35798D01*
X56631Y-35799D01*
X56581Y-35749D02*
X55981Y-35749D01*
X55981Y-34549D02*
X56581Y-34549D01*
G54D12*
X30450Y-33774D02*
X30406Y-34220D01*
X30276Y-34650D01*
X30065Y-35046D01*
X29782Y-35394D01*
X29436Y-35680D01*
X29041Y-35894D01*
X28612Y-36027D01*
X28166Y-36073D01*
X27720Y-36033D01*
X27289Y-35906D01*
X26891Y-35698D01*
X26541Y-35417D01*
X26253Y-35073D01*
X26036Y-34680D01*
X25901Y-34252D01*
X25851Y-33806D01*
X25888Y-33359D01*
X26012Y-32928D01*
X26217Y-32529D01*
X26496Y-32177D01*
X26838Y-31886D01*
X27230Y-31667D01*
X27657Y-31528D01*
X28102Y-31475D01*
X28549Y-31509D01*
X28981Y-31630D01*
X29382Y-31833D01*
X29736Y-32109D01*
X30029Y-32449D01*
X30251Y-32839D01*
X30392Y-33265D01*
X30449Y-33710D01*
X30450Y-33774D01*
X29550Y-30674D02*
X29550Y-35674D01*
X29550Y-35674D02*
X26850Y-35674D01*
X26850Y-35674D02*
X26850Y-30674D01*
X29550Y-30674D02*
X26850Y-30674D01*
G54D19*
X56399Y-33043D02*
X56527Y-33043D01*
X56527Y-33043D02*
X56527Y-32846D01*
X56399Y-32846D02*
X56527Y-32846D01*
X56399Y-33043D02*
X56399Y-32846D01*
X56154Y-33043D02*
X56213Y-33043D01*
X56213Y-33043D02*
X56213Y-32944D01*
X56154Y-32944D02*
X56213Y-32944D01*
X56154Y-33043D02*
X56154Y-32944D01*
X56349Y-33043D02*
X56408Y-33043D01*
X56408Y-33043D02*
X56408Y-32944D01*
X56349Y-32944D02*
X56408Y-32944D01*
X56349Y-33043D02*
X56349Y-32944D01*
X56203Y-33043D02*
X56359Y-33043D01*
X56359Y-33043D02*
X56359Y-32974D01*
X56203Y-32974D02*
X56359Y-32974D01*
X56203Y-33043D02*
X56203Y-32974D01*
X56399Y-33632D02*
X56527Y-33632D01*
X56527Y-33632D02*
X56527Y-33435D01*
X56399Y-33435D02*
X56527Y-33435D01*
X56399Y-33632D02*
X56399Y-33435D01*
X56035Y-33632D02*
X56163Y-33632D01*
X56163Y-33632D02*
X56163Y-33435D01*
X56035Y-33435D02*
X56163Y-33435D01*
X56035Y-33632D02*
X56035Y-33435D01*
X56349Y-33534D02*
X56408Y-33534D01*
X56408Y-33534D02*
X56408Y-33435D01*
X56349Y-33435D02*
X56408Y-33435D01*
X56349Y-33534D02*
X56349Y-33435D01*
X56154Y-33534D02*
X56213Y-33534D01*
X56213Y-33534D02*
X56213Y-33435D01*
X56154Y-33435D02*
X56213Y-33435D01*
X56154Y-33534D02*
X56154Y-33435D01*
X56203Y-33504D02*
X56359Y-33504D01*
X56359Y-33504D02*
X56359Y-33435D01*
X56203Y-33435D02*
X56359Y-33435D01*
X56203Y-33504D02*
X56203Y-33435D01*
X56242Y-33239D02*
X56320Y-33239D01*
X56320Y-33239D02*
X56320Y-33161D01*
X56242Y-33161D02*
X56320Y-33161D01*
X56242Y-33239D02*
X56242Y-33161D01*
X56045Y-33043D02*
X56163Y-33043D01*
X56163Y-33043D02*
X56163Y-32925D01*
X56045Y-32925D02*
X56163Y-32925D01*
X56045Y-33043D02*
X56045Y-32925D01*
X56035Y-32875D02*
X56124Y-32875D01*
X56124Y-32875D02*
X56124Y-32846D01*
X56035Y-32846D02*
X56124Y-32846D01*
X56035Y-32875D02*
X56035Y-32846D01*
G54D20*
X56507Y-33033D02*
X56507Y-33445D01*
X56055Y-33435D02*
X56055Y-32875D01*
G54D21*
X56132Y-32905D02*
X56131Y-32910D01*
X56129Y-32915D01*
X56127Y-32920D01*
X56123Y-32924D01*
X56119Y-32928D01*
X56114Y-32930D01*
X56109Y-32932D01*
X56104Y-32932D01*
X56099Y-32932D01*
X56094Y-32930D01*
X56089Y-32928D01*
X56085Y-32925D01*
X56081Y-32920D01*
X56079Y-32916D01*
X56077Y-32910D01*
X56077Y-32905D01*
X56077Y-32900D01*
X56078Y-32895D01*
X56081Y-32890D01*
X56084Y-32886D01*
X56089Y-32883D01*
X56093Y-32880D01*
X56098Y-32878D01*
X56104Y-32878D01*
X56108Y-32878D01*
X56114Y-32879D01*
X56119Y-32882D01*
X56123Y-32885D01*
X56126Y-32889D01*
X56129Y-32894D01*
X56131Y-32899D01*
X56131Y-32905D01*
X56132Y-32905D01*
G54D20*
X56144Y-32846D02*
X56145Y-32857D01*
X56147Y-32869D01*
X56149Y-32881D01*
X56153Y-32892D01*
X56157Y-32903D01*
X56163Y-32914D01*
X56169Y-32924D01*
X56177Y-32934D01*
X56185Y-32942D01*
X56193Y-32950D01*
X56203Y-32958D01*
X56213Y-32964D01*
X56224Y-32970D01*
X56235Y-32974D01*
X56246Y-32978D01*
X56258Y-32980D01*
X56270Y-32982D01*
X56281Y-32983D01*
X56292Y-32982D01*
X56304Y-32980D01*
X56316Y-32978D01*
X56327Y-32974D01*
X56338Y-32970D01*
X56349Y-32964D01*
X56359Y-32958D01*
X56369Y-32950D01*
X56377Y-32942D01*
X56385Y-32934D01*
X56393Y-32924D01*
X56399Y-32914D01*
X56405Y-32903D01*
X56409Y-32892D01*
X56413Y-32881D01*
X56415Y-32869D01*
X56417Y-32857D01*
X56418Y-32846D01*
X56418Y-33632D02*
X56417Y-33621D01*
X56415Y-33609D01*
X56413Y-33597D01*
X56409Y-33586D01*
X56405Y-33575D01*
X56399Y-33564D01*
X56393Y-33554D01*
X56385Y-33544D01*
X56377Y-33536D01*
X56369Y-33528D01*
X56359Y-33520D01*
X56349Y-33514D01*
X56338Y-33508D01*
X56327Y-33504D01*
X56316Y-33500D01*
X56304Y-33498D01*
X56292Y-33496D01*
X56281Y-33495D01*
X56270Y-33496D01*
X56258Y-33498D01*
X56246Y-33500D01*
X56235Y-33504D01*
X56224Y-33508D01*
X56213Y-33514D01*
X56203Y-33520D01*
X56193Y-33528D01*
X56185Y-33536D01*
X56177Y-33544D01*
X56169Y-33554D01*
X56163Y-33564D01*
X56157Y-33575D01*
X56153Y-33586D01*
X56149Y-33597D01*
X56147Y-33609D01*
X56145Y-33621D01*
X56144Y-33632D01*
G54D12*
X32850Y-21050D02*
X33850Y-21050D01*
X33850Y-21050D02*
X33850Y-25850D01*
X33850Y-25850D02*
X32850Y-25850D01*
X32850Y-18950D02*
X58850Y-18950D01*
X58850Y-18950D02*
X58850Y-27950D01*
X58850Y-27950D02*
X32850Y-27950D01*
X32850Y-27950D02*
X32850Y-18950D01*
G54D19*
X27944Y-24701D02*
X28072Y-24701D01*
X28072Y-24701D02*
X28072Y-24504D01*
X27944Y-24504D02*
X28072Y-24504D01*
X27944Y-24701D02*
X27944Y-24504D01*
X27699Y-24701D02*
X27758Y-24701D01*
X27758Y-24701D02*
X27758Y-24602D01*
X27699Y-24602D02*
X27758Y-24602D01*
X27699Y-24701D02*
X27699Y-24602D01*
X27894Y-24701D02*
X27953Y-24701D01*
X27953Y-24701D02*
X27953Y-24602D01*
X27894Y-24602D02*
X27953Y-24602D01*
X27894Y-24701D02*
X27894Y-24602D01*
X27748Y-24701D02*
X27904Y-24701D01*
X27904Y-24701D02*
X27904Y-24632D01*
X27748Y-24632D02*
X27904Y-24632D01*
X27748Y-24701D02*
X27748Y-24632D01*
X27944Y-25290D02*
X28072Y-25290D01*
X28072Y-25290D02*
X28072Y-25093D01*
X27944Y-25093D02*
X28072Y-25093D01*
X27944Y-25290D02*
X27944Y-25093D01*
X27580Y-25290D02*
X27708Y-25290D01*
X27708Y-25290D02*
X27708Y-25093D01*
X27580Y-25093D02*
X27708Y-25093D01*
X27580Y-25290D02*
X27580Y-25093D01*
X27894Y-25192D02*
X27953Y-25192D01*
X27953Y-25192D02*
X27953Y-25093D01*
X27894Y-25093D02*
X27953Y-25093D01*
X27894Y-25192D02*
X27894Y-25093D01*
X27699Y-25192D02*
X27758Y-25192D01*
X27758Y-25192D02*
X27758Y-25093D01*
X27699Y-25093D02*
X27758Y-25093D01*
X27699Y-25192D02*
X27699Y-25093D01*
X27748Y-25162D02*
X27904Y-25162D01*
X27904Y-25162D02*
X27904Y-25093D01*
X27748Y-25093D02*
X27904Y-25093D01*
X27748Y-25162D02*
X27748Y-25093D01*
X27787Y-24897D02*
X27865Y-24897D01*
X27865Y-24897D02*
X27865Y-24819D01*
X27787Y-24819D02*
X27865Y-24819D01*
X27787Y-24897D02*
X27787Y-24819D01*
X27590Y-24701D02*
X27708Y-24701D01*
X27708Y-24701D02*
X27708Y-24583D01*
X27590Y-24583D02*
X27708Y-24583D01*
X27590Y-24701D02*
X27590Y-24583D01*
X27580Y-24533D02*
X27669Y-24533D01*
X27669Y-24533D02*
X27669Y-24504D01*
X27580Y-24504D02*
X27669Y-24504D01*
X27580Y-24533D02*
X27580Y-24504D01*
G54D20*
X28052Y-24691D02*
X28052Y-25103D01*
X27600Y-25093D02*
X27600Y-24533D01*
G54D21*
X27677Y-24563D02*
X27676Y-24568D01*
X27674Y-24573D01*
X27672Y-24578D01*
X27668Y-24582D01*
X27664Y-24586D01*
X27659Y-24588D01*
X27654Y-24590D01*
X27649Y-24590D01*
X27644Y-24590D01*
X27639Y-24588D01*
X27634Y-24586D01*
X27630Y-24583D01*
X27626Y-24578D01*
X27624Y-24574D01*
X27622Y-24568D01*
X27622Y-24563D01*
X27622Y-24558D01*
X27623Y-24553D01*
X27626Y-24548D01*
X27629Y-24544D01*
X27634Y-24541D01*
X27638Y-24538D01*
X27643Y-24536D01*
X27649Y-24536D01*
X27653Y-24536D01*
X27659Y-24537D01*
X27664Y-24540D01*
X27668Y-24543D01*
X27671Y-24547D01*
X27674Y-24552D01*
X27676Y-24557D01*
X27676Y-24563D01*
X27677Y-24563D01*
G54D20*
X27689Y-24504D02*
X27690Y-24515D01*
X27692Y-24527D01*
X27694Y-24539D01*
X27698Y-24550D01*
X27702Y-24561D01*
X27708Y-24572D01*
X27714Y-24582D01*
X27722Y-24592D01*
X27730Y-24600D01*
X27738Y-24608D01*
X27748Y-24616D01*
X27758Y-24622D01*
X27769Y-24628D01*
X27780Y-24632D01*
X27791Y-24636D01*
X27803Y-24638D01*
X27815Y-24640D01*
X27826Y-24641D01*
X27837Y-24640D01*
X27849Y-24638D01*
X27861Y-24636D01*
X27872Y-24632D01*
X27883Y-24628D01*
X27894Y-24622D01*
X27904Y-24616D01*
X27914Y-24608D01*
X27922Y-24600D01*
X27930Y-24592D01*
X27938Y-24582D01*
X27944Y-24572D01*
X27950Y-24561D01*
X27954Y-24550D01*
X27958Y-24539D01*
X27960Y-24527D01*
X27962Y-24515D01*
X27963Y-24504D01*
X27963Y-25290D02*
X27962Y-25279D01*
X27960Y-25267D01*
X27958Y-25255D01*
X27954Y-25244D01*
X27950Y-25233D01*
X27944Y-25222D01*
X27938Y-25212D01*
X27930Y-25202D01*
X27922Y-25194D01*
X27914Y-25186D01*
X27904Y-25178D01*
X27894Y-25172D01*
X27883Y-25166D01*
X27872Y-25162D01*
X27861Y-25158D01*
X27849Y-25156D01*
X27837Y-25154D01*
X27826Y-25153D01*
X27815Y-25154D01*
X27803Y-25156D01*
X27791Y-25158D01*
X27780Y-25162D01*
X27769Y-25166D01*
X27758Y-25172D01*
X27748Y-25178D01*
X27738Y-25186D01*
X27730Y-25194D01*
X27722Y-25202D01*
X27714Y-25212D01*
X27708Y-25222D01*
X27702Y-25233D01*
X27698Y-25244D01*
X27694Y-25255D01*
X27692Y-25267D01*
X27690Y-25279D01*
X27689Y-25290D01*
G54D16*
X28136Y-27207D02*
X28136Y-26837D01*
X27516Y-27237D02*
X27516Y-26837D01*
X28136Y-26037D02*
X28136Y-26417D01*
X27516Y-26037D02*
X27516Y-26427D01*
X28176Y-27287D02*
X28175Y-27296D01*
X28172Y-27306D01*
X28167Y-27314D01*
X28161Y-27322D01*
X28153Y-27328D01*
X28145Y-27333D01*
X28136Y-27335D01*
X28126Y-27336D01*
X28117Y-27336D01*
X28108Y-27333D01*
X28099Y-27328D01*
X28092Y-27322D01*
X28085Y-27315D01*
X28081Y-27306D01*
X28078Y-27297D01*
X28077Y-27287D01*
X28077Y-27278D01*
X28080Y-27269D01*
X28084Y-27260D01*
X28091Y-27253D01*
X28098Y-27246D01*
X28106Y-27242D01*
X28116Y-27239D01*
X28125Y-27238D01*
X28134Y-27238D01*
X28144Y-27241D01*
X28152Y-27245D01*
X28160Y-27251D01*
X28166Y-27259D01*
X28171Y-27267D01*
X28174Y-27276D01*
X28175Y-27286D01*
X28176Y-27287D01*
X28126Y-27237D02*
X27526Y-27237D01*
X27526Y-26037D02*
X28126Y-26037D01*
G54D19*
X35138Y-33072D02*
X35266Y-33072D01*
X35266Y-33072D02*
X35266Y-32875D01*
X35138Y-32875D02*
X35266Y-32875D01*
X35138Y-33072D02*
X35138Y-32875D01*
X34893Y-33072D02*
X34952Y-33072D01*
X34952Y-33072D02*
X34952Y-32973D01*
X34893Y-32973D02*
X34952Y-32973D01*
X34893Y-33072D02*
X34893Y-32973D01*
X35088Y-33072D02*
X35147Y-33072D01*
X35147Y-33072D02*
X35147Y-32973D01*
X35088Y-32973D02*
X35147Y-32973D01*
X35088Y-33072D02*
X35088Y-32973D01*
X34942Y-33072D02*
X35098Y-33072D01*
X35098Y-33072D02*
X35098Y-33003D01*
X34942Y-33003D02*
X35098Y-33003D01*
X34942Y-33072D02*
X34942Y-33003D01*
X35138Y-33661D02*
X35266Y-33661D01*
X35266Y-33661D02*
X35266Y-33464D01*
X35138Y-33464D02*
X35266Y-33464D01*
X35138Y-33661D02*
X35138Y-33464D01*
X34774Y-33661D02*
X34902Y-33661D01*
X34902Y-33661D02*
X34902Y-33464D01*
X34774Y-33464D02*
X34902Y-33464D01*
X34774Y-33661D02*
X34774Y-33464D01*
X35088Y-33563D02*
X35147Y-33563D01*
X35147Y-33563D02*
X35147Y-33464D01*
X35088Y-33464D02*
X35147Y-33464D01*
X35088Y-33563D02*
X35088Y-33464D01*
X34893Y-33563D02*
X34952Y-33563D01*
X34952Y-33563D02*
X34952Y-33464D01*
X34893Y-33464D02*
X34952Y-33464D01*
X34893Y-33563D02*
X34893Y-33464D01*
X34942Y-33533D02*
X35098Y-33533D01*
X35098Y-33533D02*
X35098Y-33464D01*
X34942Y-33464D02*
X35098Y-33464D01*
X34942Y-33533D02*
X34942Y-33464D01*
X34981Y-33268D02*
X35059Y-33268D01*
X35059Y-33268D02*
X35059Y-33190D01*
X34981Y-33190D02*
X35059Y-33190D01*
X34981Y-33268D02*
X34981Y-33190D01*
X34784Y-33072D02*
X34902Y-33072D01*
X34902Y-33072D02*
X34902Y-32954D01*
X34784Y-32954D02*
X34902Y-32954D01*
X34784Y-33072D02*
X34784Y-32954D01*
X34774Y-32904D02*
X34863Y-32904D01*
X34863Y-32904D02*
X34863Y-32875D01*
X34774Y-32875D02*
X34863Y-32875D01*
X34774Y-32904D02*
X34774Y-32875D01*
G54D20*
X35246Y-33062D02*
X35246Y-33474D01*
X34794Y-33464D02*
X34794Y-32904D01*
G54D21*
X34871Y-32934D02*
X34870Y-32939D01*
X34868Y-32944D01*
X34866Y-32949D01*
X34862Y-32953D01*
X34858Y-32957D01*
X34853Y-32959D01*
X34848Y-32961D01*
X34843Y-32961D01*
X34838Y-32961D01*
X34833Y-32959D01*
X34828Y-32957D01*
X34824Y-32954D01*
X34820Y-32949D01*
X34818Y-32945D01*
X34816Y-32939D01*
X34816Y-32934D01*
X34816Y-32929D01*
X34817Y-32924D01*
X34820Y-32919D01*
X34823Y-32915D01*
X34828Y-32912D01*
X34832Y-32909D01*
X34837Y-32907D01*
X34843Y-32907D01*
X34847Y-32907D01*
X34853Y-32908D01*
X34858Y-32911D01*
X34862Y-32914D01*
X34865Y-32918D01*
X34868Y-32923D01*
X34870Y-32928D01*
X34870Y-32934D01*
X34871Y-32934D01*
G54D20*
X34883Y-32875D02*
X34884Y-32886D01*
X34886Y-32898D01*
X34888Y-32910D01*
X34892Y-32921D01*
X34896Y-32932D01*
X34902Y-32943D01*
X34908Y-32953D01*
X34916Y-32963D01*
X34924Y-32971D01*
X34932Y-32979D01*
X34942Y-32987D01*
X34952Y-32993D01*
X34963Y-32999D01*
X34974Y-33003D01*
X34985Y-33007D01*
X34997Y-33009D01*
X35009Y-33011D01*
X35020Y-33012D01*
X35031Y-33011D01*
X35043Y-33009D01*
X35055Y-33007D01*
X35066Y-33003D01*
X35077Y-32999D01*
X35088Y-32993D01*
X35098Y-32987D01*
X35108Y-32979D01*
X35116Y-32971D01*
X35124Y-32963D01*
X35132Y-32953D01*
X35138Y-32943D01*
X35144Y-32932D01*
X35148Y-32921D01*
X35152Y-32910D01*
X35154Y-32898D01*
X35156Y-32886D01*
X35157Y-32875D01*
X35157Y-33661D02*
X35156Y-33650D01*
X35154Y-33638D01*
X35152Y-33626D01*
X35148Y-33615D01*
X35144Y-33604D01*
X35138Y-33593D01*
X35132Y-33583D01*
X35124Y-33573D01*
X35116Y-33565D01*
X35108Y-33557D01*
X35098Y-33549D01*
X35088Y-33543D01*
X35077Y-33537D01*
X35066Y-33533D01*
X35055Y-33529D01*
X35043Y-33527D01*
X35031Y-33525D01*
X35020Y-33524D01*
X35009Y-33525D01*
X34997Y-33527D01*
X34985Y-33529D01*
X34974Y-33533D01*
X34963Y-33537D01*
X34952Y-33543D01*
X34942Y-33549D01*
X34932Y-33557D01*
X34924Y-33565D01*
X34916Y-33573D01*
X34908Y-33583D01*
X34902Y-33593D01*
X34896Y-33604D01*
X34892Y-33615D01*
X34888Y-33626D01*
X34886Y-33638D01*
X34884Y-33650D01*
X34883Y-33661D01*
G54D16*
X40088Y-28817D02*
X40076Y-28829D01*
X40041Y-28841D01*
X40017Y-28841D01*
X39981Y-28829D01*
X39957Y-28805D01*
X39946Y-28782D01*
X39934Y-28734D01*
X39934Y-28698D01*
X39946Y-28651D01*
X39957Y-28627D01*
X39981Y-28603D01*
X40017Y-28591D01*
X40041Y-28591D01*
X40076Y-28603D01*
X40088Y-28615D01*
X40326Y-28841D02*
X40184Y-28841D01*
X40255Y-28841D02*
X40255Y-28591D01*
X40231Y-28627D01*
X40207Y-28651D01*
X40184Y-28663D01*
X51067Y-34402D02*
X51079Y-34414D01*
X51091Y-34449D01*
X51091Y-34473D01*
X51079Y-34509D01*
X51055Y-34533D01*
X51032Y-34544D01*
X50984Y-34556D01*
X50948Y-34556D01*
X50901Y-34544D01*
X50877Y-34533D01*
X50853Y-34509D01*
X50841Y-34473D01*
X50841Y-34449D01*
X50853Y-34414D01*
X50865Y-34402D01*
X50865Y-34306D02*
X50853Y-34294D01*
X50841Y-34271D01*
X50841Y-34211D01*
X50853Y-34187D01*
X50865Y-34175D01*
X50889Y-34164D01*
X50913Y-34164D01*
X50948Y-34175D01*
X51091Y-34318D01*
X51091Y-34164D01*
X38817Y-33862D02*
X38829Y-33874D01*
X38841Y-33909D01*
X38841Y-33933D01*
X38829Y-33969D01*
X38805Y-33993D01*
X38782Y-34004D01*
X38734Y-34016D01*
X38698Y-34016D01*
X38651Y-34004D01*
X38627Y-33993D01*
X38603Y-33969D01*
X38591Y-33933D01*
X38591Y-33909D01*
X38603Y-33874D01*
X38615Y-33862D01*
X38591Y-33778D02*
X38591Y-33624D01*
X38686Y-33707D01*
X38686Y-33671D01*
X38698Y-33647D01*
X38710Y-33635D01*
X38734Y-33624D01*
X38794Y-33624D01*
X38817Y-33635D01*
X38829Y-33647D01*
X38841Y-33671D01*
X38841Y-33743D01*
X38829Y-33766D01*
X38817Y-33778D01*
X34511Y-35229D02*
X34392Y-35312D01*
X34511Y-35371D02*
X34261Y-35371D01*
X34261Y-35276D01*
X34273Y-35252D01*
X34285Y-35241D01*
X34309Y-35229D01*
X34345Y-35229D01*
X34368Y-35241D01*
X34380Y-35252D01*
X34392Y-35276D01*
X34392Y-35371D01*
X34511Y-34991D02*
X34511Y-35133D01*
X34511Y-35062D02*
X34261Y-35062D01*
X34297Y-35086D01*
X34321Y-35110D01*
X34333Y-35133D01*
G54D17*
X62056Y-28370D02*
X62056Y-28179D01*
X62170Y-28408D02*
X61770Y-28275D01*
X62170Y-28141D01*
X61770Y-28065D02*
X62170Y-27932D01*
X61770Y-27798D01*
X62170Y-27436D02*
X61979Y-27570D01*
X62170Y-27665D02*
X61770Y-27665D01*
X61770Y-27512D01*
X61789Y-27474D01*
X61808Y-27455D01*
X61846Y-27436D01*
X61903Y-27436D01*
X61941Y-27455D01*
X61960Y-27474D01*
X61979Y-27512D01*
X61979Y-27665D01*
X62018Y-27265D02*
X62018Y-26960D01*
X62170Y-26770D02*
X61770Y-26770D01*
X62151Y-26599D02*
X62170Y-26542D01*
X62170Y-26446D01*
X62151Y-26408D01*
X62132Y-26389D01*
X62094Y-26370D01*
X62056Y-26370D01*
X62018Y-26389D01*
X61998Y-26408D01*
X61979Y-26446D01*
X61960Y-26523D01*
X61941Y-26561D01*
X61922Y-26580D01*
X61884Y-26599D01*
X61846Y-26599D01*
X61808Y-26580D01*
X61789Y-26561D01*
X61770Y-26523D01*
X61770Y-26427D01*
X61789Y-26370D01*
X62170Y-26199D02*
X61770Y-26199D01*
X61770Y-26046D01*
X61789Y-26008D01*
X61808Y-25989D01*
X61846Y-25970D01*
X61903Y-25970D01*
X61941Y-25989D01*
X61960Y-26008D01*
X61979Y-26046D01*
X61979Y-26199D01*
X62018Y-25799D02*
X62018Y-25494D01*
X61770Y-25132D02*
X61770Y-25209D01*
X61789Y-25247D01*
X61808Y-25266D01*
X61865Y-25304D01*
X61941Y-25323D01*
X62094Y-25323D01*
X62132Y-25304D01*
X62151Y-25285D01*
X62170Y-25247D01*
X62170Y-25170D01*
X62151Y-25132D01*
X62132Y-25113D01*
X62094Y-25094D01*
X61998Y-25094D01*
X61960Y-25113D01*
X61941Y-25132D01*
X61922Y-25170D01*
X61922Y-25247D01*
X61941Y-25285D01*
X61960Y-25304D01*
X61998Y-25323D01*
G54D15*
X41118Y-36093D02*
X41232Y-36093D01*
X41290Y-36121D01*
X41347Y-36179D01*
X41375Y-36293D01*
X41375Y-36493D01*
X41347Y-36607D01*
X41290Y-36664D01*
X41232Y-36693D01*
X41118Y-36693D01*
X41061Y-36664D01*
X41004Y-36607D01*
X40975Y-36493D01*
X40975Y-36293D01*
X41004Y-36179D01*
X41061Y-36121D01*
X41118Y-36093D01*
X41604Y-36664D02*
X41690Y-36693D01*
X41833Y-36693D01*
X41890Y-36664D01*
X41919Y-36636D01*
X41947Y-36579D01*
X41947Y-36521D01*
X41919Y-36464D01*
X41890Y-36436D01*
X41833Y-36407D01*
X41719Y-36379D01*
X41661Y-36350D01*
X41633Y-36321D01*
X41604Y-36264D01*
X41604Y-36207D01*
X41633Y-36150D01*
X41661Y-36121D01*
X41719Y-36093D01*
X41861Y-36093D01*
X41947Y-36121D01*
X42547Y-36636D02*
X42518Y-36664D01*
X42432Y-36693D01*
X42375Y-36693D01*
X42290Y-36664D01*
X42232Y-36607D01*
X42204Y-36550D01*
X42175Y-36436D01*
X42175Y-36350D01*
X42204Y-36236D01*
X42232Y-36179D01*
X42290Y-36121D01*
X42375Y-36093D01*
X42432Y-36093D01*
X42518Y-36121D01*
X42547Y-36150D01*
X42804Y-36693D02*
X42804Y-36093D01*
X43376Y-36693D02*
X43090Y-36693D01*
X43090Y-36093D01*
X43862Y-36693D02*
X43576Y-36693D01*
X43576Y-36093D01*
X44033Y-36521D02*
X44319Y-36521D01*
X43976Y-36693D02*
X44176Y-36093D01*
X44376Y-36693D01*
X44490Y-36093D02*
X44833Y-36093D01*
X44662Y-36693D02*
X44662Y-36093D01*
X45147Y-36093D02*
X45261Y-36093D01*
X45319Y-36121D01*
X45376Y-36179D01*
X45404Y-36293D01*
X45404Y-36493D01*
X45376Y-36607D01*
X45319Y-36664D01*
X45261Y-36693D01*
X45147Y-36693D01*
X45090Y-36664D01*
X45033Y-36607D01*
X45004Y-36493D01*
X45004Y-36293D01*
X45033Y-36179D01*
X45090Y-36121D01*
X45147Y-36093D01*
X46005Y-36693D02*
X45805Y-36407D01*
X45662Y-36693D02*
X45662Y-36093D01*
X45890Y-36093D01*
X45948Y-36121D01*
X45976Y-36150D01*
X46005Y-36207D01*
X46005Y-36293D01*
X45976Y-36350D01*
X45948Y-36379D01*
X45890Y-36407D01*
X45662Y-36407D01*
G54D16*
X55812Y-35221D02*
X55693Y-35304D01*
X55812Y-35363D02*
X55562Y-35363D01*
X55562Y-35268D01*
X55574Y-35244D01*
X55586Y-35233D01*
X55610Y-35221D01*
X55646Y-35221D01*
X55669Y-35233D01*
X55681Y-35244D01*
X55693Y-35268D01*
X55693Y-35363D01*
X55562Y-35137D02*
X55562Y-34983D01*
X55657Y-35066D01*
X55657Y-35030D01*
X55669Y-35006D01*
X55681Y-34994D01*
X55705Y-34983D01*
X55765Y-34983D01*
X55788Y-34994D01*
X55800Y-35006D01*
X55812Y-35030D01*
X55812Y-35102D01*
X55800Y-35125D01*
X55788Y-35137D01*
X55902Y-33461D02*
X55602Y-33461D01*
X55602Y-33389D01*
X55617Y-33346D01*
X55645Y-33318D01*
X55674Y-33303D01*
X55731Y-33289D01*
X55774Y-33289D01*
X55831Y-33303D01*
X55860Y-33318D01*
X55888Y-33346D01*
X55902Y-33389D01*
X55902Y-33461D01*
X55602Y-33189D02*
X55602Y-33003D01*
X55717Y-33103D01*
X55717Y-33061D01*
X55731Y-33032D01*
X55745Y-33018D01*
X55774Y-33003D01*
X55845Y-33003D01*
X55874Y-33018D01*
X55888Y-33032D01*
X55902Y-33061D01*
X55902Y-33146D01*
X55888Y-33175D01*
X55874Y-33189D01*
X56902Y-33432D02*
X56902Y-33575D01*
X56602Y-33575D01*
X56745Y-33332D02*
X56745Y-33232D01*
X56902Y-33189D02*
X56902Y-33332D01*
X56602Y-33332D01*
X56602Y-33189D01*
X56902Y-33061D02*
X56602Y-33061D01*
X56602Y-32989D01*
X56617Y-32946D01*
X56645Y-32918D01*
X56674Y-32903D01*
X56731Y-32889D01*
X56774Y-32889D01*
X56831Y-32903D01*
X56860Y-32918D01*
X56888Y-32946D01*
X56902Y-32989D01*
X56902Y-33061D01*
G54D22*
X38018Y-22233D02*
X38018Y-21533D01*
X38190Y-21533D01*
X38232Y-21567D01*
X38254Y-21600D01*
X38275Y-21667D01*
X38275Y-21767D01*
X38254Y-21833D01*
X38232Y-21867D01*
X38190Y-21900D01*
X38018Y-21900D01*
X38704Y-22233D02*
X38447Y-22233D01*
X38575Y-22233D02*
X38575Y-21533D01*
X38532Y-21633D01*
X38490Y-21700D01*
X38447Y-21733D01*
G54D15*
X49550Y-24033D02*
X50017Y-24033D01*
X49550Y-24733D01*
X50017Y-24733D01*
X50284Y-24733D02*
X50284Y-24033D01*
X50850Y-24367D02*
X50617Y-24367D01*
X50617Y-24733D02*
X50617Y-24033D01*
X50950Y-24033D01*
X51217Y-24467D02*
X51750Y-24467D01*
X52384Y-24267D02*
X52384Y-24733D01*
X52217Y-24000D02*
X52050Y-24500D01*
X52484Y-24500D01*
X52884Y-24033D02*
X52951Y-24033D01*
X53017Y-24067D01*
X53051Y-24100D01*
X53084Y-24167D01*
X53117Y-24300D01*
X53117Y-24467D01*
X53084Y-24600D01*
X53051Y-24667D01*
X53017Y-24700D01*
X52951Y-24733D01*
X52884Y-24733D01*
X52817Y-24700D01*
X52784Y-24667D01*
X52751Y-24600D01*
X52717Y-24467D01*
X52717Y-24300D01*
X52751Y-24167D01*
X52784Y-24100D01*
X52817Y-24067D01*
X52884Y-24033D01*
G54D16*
X27447Y-25119D02*
X27147Y-25119D01*
X27147Y-25047D01*
X27162Y-25004D01*
X27190Y-24976D01*
X27219Y-24961D01*
X27276Y-24947D01*
X27319Y-24947D01*
X27376Y-24961D01*
X27405Y-24976D01*
X27433Y-25004D01*
X27447Y-25047D01*
X27447Y-25119D01*
X27176Y-24833D02*
X27162Y-24819D01*
X27147Y-24790D01*
X27147Y-24719D01*
X27162Y-24690D01*
X27176Y-24676D01*
X27205Y-24661D01*
X27233Y-24661D01*
X27276Y-24676D01*
X27447Y-24847D01*
X27447Y-24661D01*
X28447Y-25090D02*
X28447Y-25233D01*
X28147Y-25233D01*
X28290Y-24990D02*
X28290Y-24890D01*
X28447Y-24847D02*
X28447Y-24990D01*
X28147Y-24990D01*
X28147Y-24847D01*
X28447Y-24719D02*
X28147Y-24719D01*
X28147Y-24647D01*
X28162Y-24604D01*
X28190Y-24576D01*
X28219Y-24561D01*
X28276Y-24547D01*
X28319Y-24547D01*
X28376Y-24561D01*
X28405Y-24576D01*
X28433Y-24604D01*
X28447Y-24647D01*
X28447Y-24719D01*
X27357Y-26709D02*
X27238Y-26792D01*
X27357Y-26851D02*
X27107Y-26851D01*
X27107Y-26756D01*
X27119Y-26732D01*
X27131Y-26721D01*
X27155Y-26709D01*
X27191Y-26709D01*
X27214Y-26721D01*
X27226Y-26732D01*
X27238Y-26756D01*
X27238Y-26851D01*
X27131Y-26613D02*
X27119Y-26601D01*
X27107Y-26578D01*
X27107Y-26518D01*
X27119Y-26494D01*
X27131Y-26482D01*
X27155Y-26471D01*
X27179Y-26471D01*
X27214Y-26482D01*
X27357Y-26625D01*
X27357Y-26471D01*
X34641Y-33490D02*
X34341Y-33490D01*
X34341Y-33418D01*
X34356Y-33375D01*
X34384Y-33347D01*
X34413Y-33332D01*
X34470Y-33318D01*
X34513Y-33318D01*
X34570Y-33332D01*
X34599Y-33347D01*
X34627Y-33375D01*
X34641Y-33418D01*
X34641Y-33490D01*
X34641Y-33032D02*
X34641Y-33204D01*
X34641Y-33118D02*
X34341Y-33118D01*
X34384Y-33147D01*
X34413Y-33175D01*
X34427Y-33204D01*
X35641Y-33461D02*
X35641Y-33604D01*
X35341Y-33604D01*
X35484Y-33361D02*
X35484Y-33261D01*
X35641Y-33218D02*
X35641Y-33361D01*
X35341Y-33361D01*
X35341Y-33218D01*
X35641Y-33090D02*
X35341Y-33090D01*
X35341Y-33018D01*
X35356Y-32975D01*
X35384Y-32947D01*
X35413Y-32932D01*
X35470Y-32918D01*
X35513Y-32918D01*
X35570Y-32932D01*
X35599Y-32947D01*
X35627Y-32975D01*
X35641Y-33018D01*
X35641Y-33090D01*
M02*
