M48
INCH,TZ
T1C0.040
T2C0.045
T3C0.082
T4C0.082
%
G90
G05
T1
X4.848Y-3.472
X4.948Y-3.472
X6.013Y-2.573
X6.013Y-2.673
X6.013Y-2.773
X6.113Y-2.573
X6.113Y-2.673
X6.113Y-2.773
T2
X3.635Y-2.045
X3.635Y-2.645
X3.735Y-2.045
X3.735Y-2.645
X3.835Y-2.045
X3.835Y-2.645
X3.935Y-2.045
X3.935Y-2.645
X4.035Y-2.045
X4.035Y-2.645
X4.135Y-2.045
X4.135Y-2.645
X4.235Y-2.045
X4.235Y-2.645
X4.335Y-2.045
X4.335Y-2.645
X4.435Y-2.045
X4.435Y-2.645
X4.535Y-2.045
X4.535Y-2.645
X4.635Y-2.045
X4.635Y-2.645
X4.735Y-2.045
X4.735Y-2.645
X4.835Y-2.045
X4.835Y-2.645
X4.935Y-2.045
X4.935Y-2.645
X5.035Y-2.045
X5.035Y-2.645
X5.135Y-2.045
X5.135Y-2.645
X5.235Y-2.045
X5.235Y-2.645
X5.335Y-2.045
X5.335Y-2.645
X5.435Y-2.045
X5.435Y-2.645
X5.535Y-2.045
X5.535Y-2.645
T3
X2.815Y-3.472
T4
X2.815Y-3.287
T0
M30
