G04 (created by PCBNEW-RS274X (2012-01-18 BZR 3371)-testing) date Fri 30 Mar 2012 10:13:31 PM EDT*
G01*
G70*
G90*
%MOIN*%
G04 Gerber Fmt 3.4, Leading zero omitted, Abs format*
%FSLAX34Y34*%
G04 APERTURE LIST*
%ADD10C,0.006000*%
%ADD11R,0.080000X0.080000*%
%ADD12C,0.080000*%
%ADD13R,0.075000X0.075000*%
%ADD14C,0.075000*%
G04 APERTURE END LIST*
G54D10*
G54D11*
X39260Y-25690D03*
G54D12*
X39260Y-24690D03*
X40260Y-25690D03*
X40260Y-24690D03*
X41260Y-25690D03*
X41260Y-24690D03*
G54D11*
X40327Y-36772D03*
G54D12*
X41327Y-36772D03*
G54D13*
X26563Y-33472D03*
G54D14*
X27563Y-33472D03*
X28563Y-33472D03*
X29563Y-33472D03*
X30563Y-33472D03*
X31563Y-33472D03*
X32563Y-33472D03*
X33563Y-33472D03*
X34563Y-33472D03*
X35563Y-33472D03*
X36563Y-33472D03*
X37563Y-33472D03*
X38563Y-33472D03*
X39563Y-33472D03*
X40563Y-33472D03*
X41563Y-33472D03*
X42563Y-33472D03*
X43563Y-33472D03*
X44563Y-33472D03*
X45563Y-33472D03*
X45563Y-27472D03*
X44563Y-27472D03*
X43563Y-27472D03*
X42563Y-27472D03*
X41563Y-27472D03*
X40563Y-27472D03*
X39563Y-27472D03*
X38563Y-27472D03*
X37563Y-27472D03*
X36563Y-27472D03*
X35563Y-27472D03*
X34563Y-27472D03*
X33563Y-27472D03*
X32563Y-27472D03*
X31563Y-27472D03*
X30563Y-27472D03*
X29563Y-27472D03*
X28563Y-27472D03*
X27563Y-27472D03*
X26563Y-27472D03*
M02*
