G04 (created by PCBNEW-RS274X (2012-01-18 BZR 3371)-testing) date Fri 30 Mar 2012 10:13:31 PM EDT*
G01*
G70*
G90*
%MOIN*%
G04 Gerber Fmt 3.4, Leading zero omitted, Abs format*
%FSLAX34Y34*%
G04 APERTURE LIST*
%ADD10C,0.006000*%
%ADD11C,0.015000*%
G04 APERTURE END LIST*
G54D10*
G54D11*
X46276Y-30000D02*
X46257Y-30183D01*
X46204Y-30360D01*
X46117Y-30523D01*
X46001Y-30666D01*
X45858Y-30784D01*
X45696Y-30872D01*
X45520Y-30926D01*
X45336Y-30945D01*
X45153Y-30929D01*
X44976Y-30877D01*
X44813Y-30791D01*
X44669Y-30675D01*
X44550Y-30534D01*
X44461Y-30372D01*
X44405Y-30196D01*
X44385Y-30013D01*
X44400Y-29830D01*
X44451Y-29652D01*
X44535Y-29488D01*
X44650Y-29343D01*
X44791Y-29224D01*
X44952Y-29134D01*
X45127Y-29077D01*
X45311Y-29055D01*
X45494Y-29069D01*
X45672Y-29119D01*
X45836Y-29202D01*
X45982Y-29315D01*
X46103Y-29455D01*
X46194Y-29616D01*
X46252Y-29791D01*
X46275Y-29974D01*
X46276Y-30000D01*
X27753Y-30000D02*
X27736Y-30163D01*
X27689Y-30321D01*
X27612Y-30466D01*
X27508Y-30594D01*
X27381Y-30698D01*
X27236Y-30777D01*
X27079Y-30825D01*
X26915Y-30842D01*
X26753Y-30828D01*
X26595Y-30781D01*
X26449Y-30705D01*
X26321Y-30602D01*
X26215Y-30476D01*
X26136Y-30332D01*
X26086Y-30175D01*
X26068Y-30011D01*
X26081Y-29848D01*
X26127Y-29690D01*
X26202Y-29544D01*
X26304Y-29415D01*
X26429Y-29308D01*
X26573Y-29228D01*
X26729Y-29177D01*
X26893Y-29158D01*
X27056Y-29170D01*
X27214Y-29215D01*
X27361Y-29289D01*
X27491Y-29390D01*
X27598Y-29515D01*
X27680Y-29658D01*
X27732Y-29814D01*
X27752Y-29977D01*
X27753Y-30000D01*
M02*
