G04 (created by PCBNEW-RS274X (2012-01-18 BZR 3371)-testing) date Fri 30 Mar 2012 10:13:31 PM EDT*
G01*
G70*
G90*
%MOIN*%
G04 Gerber Fmt 3.4, Leading zero omitted, Abs format*
%FSLAX34Y34*%
G04 APERTURE LIST*
%ADD10C,0.006000*%
%ADD11R,0.060000X0.060000*%
%ADD12C,0.060000*%
%ADD13R,0.055000X0.055000*%
%ADD14C,0.055000*%
%ADD15C,0.008000*%
%ADD16C,0.010000*%
G04 APERTURE END LIST*
G54D10*
G54D11*
X39260Y-25690D03*
G54D12*
X39260Y-24690D03*
X40260Y-25690D03*
X40260Y-24690D03*
X41260Y-25690D03*
X41260Y-24690D03*
G54D11*
X40327Y-36772D03*
G54D12*
X41327Y-36772D03*
G54D13*
X26563Y-33472D03*
G54D14*
X27563Y-33472D03*
X28563Y-33472D03*
X29563Y-33472D03*
X30563Y-33472D03*
X31563Y-33472D03*
X32563Y-33472D03*
X33563Y-33472D03*
X34563Y-33472D03*
X35563Y-33472D03*
X36563Y-33472D03*
X37563Y-33472D03*
X38563Y-33472D03*
X39563Y-33472D03*
X40563Y-33472D03*
X41563Y-33472D03*
X42563Y-33472D03*
X43563Y-33472D03*
X44563Y-33472D03*
X45563Y-33472D03*
X45563Y-27472D03*
X44563Y-27472D03*
X43563Y-27472D03*
X42563Y-27472D03*
X41563Y-27472D03*
X40563Y-27472D03*
X39563Y-27472D03*
X38563Y-27472D03*
X37563Y-27472D03*
X36563Y-27472D03*
X35563Y-27472D03*
X34563Y-27472D03*
X33563Y-27472D03*
X32563Y-27472D03*
X31563Y-27472D03*
X30563Y-27472D03*
X29563Y-27472D03*
X28563Y-27472D03*
X27563Y-27472D03*
X26563Y-27472D03*
G54D15*
X38345Y-25690D02*
X39260Y-25690D01*
X36563Y-27472D02*
X38345Y-25690D01*
X39704Y-26131D02*
X39704Y-25246D01*
X39694Y-26141D02*
X39704Y-26131D01*
X38894Y-26141D02*
X39694Y-26141D01*
X37563Y-27472D02*
X38894Y-26141D01*
X39704Y-25246D02*
X40260Y-24690D01*
X26563Y-33472D02*
X26981Y-33472D01*
X26981Y-33868D02*
X26981Y-33472D01*
X27003Y-33890D02*
X26981Y-33868D01*
X34563Y-33890D02*
X27003Y-33890D01*
X34563Y-33472D02*
X34563Y-33890D01*
X34563Y-33890D02*
X41063Y-33890D01*
X41063Y-36508D02*
X41063Y-33890D01*
X41327Y-36772D02*
X41063Y-36508D01*
X41063Y-25887D02*
X41260Y-25690D01*
X41063Y-33890D02*
X41063Y-25887D01*
X37144Y-33053D02*
X33563Y-33053D01*
X37563Y-33472D02*
X37144Y-33053D01*
X33563Y-28472D02*
X33563Y-33053D01*
X32563Y-27472D02*
X33563Y-28472D01*
X33563Y-33053D02*
X33563Y-33472D01*
X34563Y-27472D02*
X37345Y-24690D01*
X37345Y-24690D02*
X39260Y-24690D01*
G54D10*
G36*
X46450Y-37850D02*
X25550Y-37850D01*
X25550Y-24250D01*
X38924Y-24250D01*
X38795Y-24379D01*
X38786Y-24400D01*
X37345Y-24400D01*
X37234Y-24422D01*
X37140Y-24485D01*
X34675Y-26949D01*
X34668Y-26947D01*
X34459Y-26947D01*
X34266Y-27027D01*
X34118Y-27174D01*
X34062Y-27307D01*
X34008Y-27175D01*
X33861Y-27027D01*
X33668Y-26947D01*
X33459Y-26947D01*
X33266Y-27027D01*
X33118Y-27174D01*
X33065Y-27301D01*
X33023Y-27200D01*
X32931Y-27175D01*
X32860Y-27246D01*
X32860Y-27104D01*
X32835Y-27012D01*
X32639Y-26942D01*
X32431Y-26954D01*
X32291Y-27012D01*
X32266Y-27104D01*
X32563Y-27401D01*
X32860Y-27104D01*
X32860Y-27246D01*
X32634Y-27472D01*
X32931Y-27769D01*
X33023Y-27744D01*
X33062Y-27634D01*
X33118Y-27769D01*
X33265Y-27917D01*
X33458Y-27997D01*
X33667Y-27997D01*
X33860Y-27917D01*
X34008Y-27770D01*
X34063Y-27636D01*
X34118Y-27769D01*
X34265Y-27917D01*
X34458Y-27997D01*
X34667Y-27997D01*
X34860Y-27917D01*
X35008Y-27770D01*
X35063Y-27636D01*
X35118Y-27769D01*
X35265Y-27917D01*
X35458Y-27997D01*
X35667Y-27997D01*
X35860Y-27917D01*
X36008Y-27770D01*
X36063Y-27636D01*
X36118Y-27769D01*
X36265Y-27917D01*
X36458Y-27997D01*
X36667Y-27997D01*
X36860Y-27917D01*
X37008Y-27770D01*
X37063Y-27636D01*
X37118Y-27769D01*
X37265Y-27917D01*
X37458Y-27997D01*
X37667Y-27997D01*
X37860Y-27917D01*
X38008Y-27770D01*
X38063Y-27636D01*
X38118Y-27769D01*
X38265Y-27917D01*
X38458Y-27997D01*
X38667Y-27997D01*
X38860Y-27917D01*
X39008Y-27770D01*
X39063Y-27636D01*
X39118Y-27769D01*
X39265Y-27917D01*
X39458Y-27997D01*
X39667Y-27997D01*
X39860Y-27917D01*
X40008Y-27770D01*
X40063Y-27636D01*
X40118Y-27769D01*
X40265Y-27917D01*
X40458Y-27997D01*
X40667Y-27997D01*
X40773Y-27953D01*
X40773Y-32990D01*
X40668Y-32947D01*
X40459Y-32947D01*
X40266Y-33027D01*
X40118Y-33174D01*
X40062Y-33307D01*
X40008Y-33175D01*
X39861Y-33027D01*
X39668Y-32947D01*
X39459Y-32947D01*
X39266Y-33027D01*
X39118Y-33174D01*
X39062Y-33307D01*
X39008Y-33175D01*
X38861Y-33027D01*
X38668Y-32947D01*
X38459Y-32947D01*
X38266Y-33027D01*
X38118Y-33174D01*
X38065Y-33301D01*
X38023Y-33200D01*
X37931Y-33175D01*
X37860Y-33246D01*
X37860Y-33104D01*
X37835Y-33012D01*
X37639Y-32942D01*
X37431Y-32954D01*
X37291Y-33012D01*
X37266Y-33104D01*
X37563Y-33401D01*
X37860Y-33104D01*
X37860Y-33246D01*
X37669Y-33437D01*
X37634Y-33472D01*
X37563Y-33543D01*
X37492Y-33472D01*
X37457Y-33437D01*
X37195Y-33175D01*
X37103Y-33200D01*
X37063Y-33309D01*
X37008Y-33175D01*
X36861Y-33027D01*
X36668Y-32947D01*
X36459Y-32947D01*
X36266Y-33027D01*
X36118Y-33174D01*
X36062Y-33307D01*
X36008Y-33175D01*
X35861Y-33027D01*
X35668Y-32947D01*
X35459Y-32947D01*
X35266Y-33027D01*
X35118Y-33174D01*
X35062Y-33307D01*
X35008Y-33175D01*
X34861Y-33027D01*
X34668Y-32947D01*
X34459Y-32947D01*
X34266Y-33027D01*
X34118Y-33174D01*
X34065Y-33301D01*
X34023Y-33200D01*
X33931Y-33175D01*
X33860Y-33246D01*
X33860Y-33104D01*
X33835Y-33012D01*
X33639Y-32942D01*
X33431Y-32954D01*
X33291Y-33012D01*
X33266Y-33104D01*
X33563Y-33401D01*
X33860Y-33104D01*
X33860Y-33246D01*
X33669Y-33437D01*
X33634Y-33472D01*
X33563Y-33543D01*
X33492Y-33472D01*
X33457Y-33437D01*
X33195Y-33175D01*
X33103Y-33200D01*
X33063Y-33309D01*
X33008Y-33175D01*
X32861Y-33027D01*
X32860Y-33026D01*
X32860Y-27840D01*
X32563Y-27543D01*
X32492Y-27614D01*
X32492Y-27472D01*
X32195Y-27175D01*
X32103Y-27200D01*
X32063Y-27309D01*
X32008Y-27175D01*
X31861Y-27027D01*
X31668Y-26947D01*
X31459Y-26947D01*
X31266Y-27027D01*
X31118Y-27174D01*
X31062Y-27307D01*
X31008Y-27175D01*
X30861Y-27027D01*
X30668Y-26947D01*
X30459Y-26947D01*
X30266Y-27027D01*
X30118Y-27174D01*
X30062Y-27307D01*
X30008Y-27175D01*
X29861Y-27027D01*
X29668Y-26947D01*
X29459Y-26947D01*
X29266Y-27027D01*
X29118Y-27174D01*
X29062Y-27307D01*
X29008Y-27175D01*
X28861Y-27027D01*
X28668Y-26947D01*
X28459Y-26947D01*
X28266Y-27027D01*
X28118Y-27174D01*
X28062Y-27307D01*
X28008Y-27175D01*
X27861Y-27027D01*
X27668Y-26947D01*
X27459Y-26947D01*
X27266Y-27027D01*
X27118Y-27174D01*
X27062Y-27307D01*
X27008Y-27175D01*
X26861Y-27027D01*
X26668Y-26947D01*
X26459Y-26947D01*
X26266Y-27027D01*
X26118Y-27174D01*
X26038Y-27367D01*
X26038Y-27576D01*
X26118Y-27769D01*
X26265Y-27917D01*
X26458Y-27997D01*
X26667Y-27997D01*
X26860Y-27917D01*
X27008Y-27770D01*
X27063Y-27636D01*
X27118Y-27769D01*
X27265Y-27917D01*
X27458Y-27997D01*
X27667Y-27997D01*
X27860Y-27917D01*
X28008Y-27770D01*
X28063Y-27636D01*
X28118Y-27769D01*
X28265Y-27917D01*
X28458Y-27997D01*
X28667Y-27997D01*
X28860Y-27917D01*
X29008Y-27770D01*
X29063Y-27636D01*
X29118Y-27769D01*
X29265Y-27917D01*
X29458Y-27997D01*
X29667Y-27997D01*
X29860Y-27917D01*
X30008Y-27770D01*
X30063Y-27636D01*
X30118Y-27769D01*
X30265Y-27917D01*
X30458Y-27997D01*
X30667Y-27997D01*
X30860Y-27917D01*
X31008Y-27770D01*
X31063Y-27636D01*
X31118Y-27769D01*
X31265Y-27917D01*
X31458Y-27997D01*
X31667Y-27997D01*
X31860Y-27917D01*
X32008Y-27770D01*
X32060Y-27642D01*
X32103Y-27744D01*
X32195Y-27769D01*
X32492Y-27472D01*
X32492Y-27614D01*
X32266Y-27840D01*
X32291Y-27932D01*
X32487Y-28002D01*
X32695Y-27990D01*
X32835Y-27932D01*
X32860Y-27840D01*
X32860Y-33026D01*
X32668Y-32947D01*
X32459Y-32947D01*
X32266Y-33027D01*
X32118Y-33174D01*
X32062Y-33307D01*
X32008Y-33175D01*
X31861Y-33027D01*
X31668Y-32947D01*
X31459Y-32947D01*
X31266Y-33027D01*
X31118Y-33174D01*
X31062Y-33307D01*
X31008Y-33175D01*
X30861Y-33027D01*
X30668Y-32947D01*
X30459Y-32947D01*
X30266Y-33027D01*
X30118Y-33174D01*
X30062Y-33307D01*
X30008Y-33175D01*
X29861Y-33027D01*
X29668Y-32947D01*
X29459Y-32947D01*
X29266Y-33027D01*
X29118Y-33174D01*
X29062Y-33307D01*
X29008Y-33175D01*
X28861Y-33027D01*
X28668Y-32947D01*
X28459Y-32947D01*
X28266Y-33027D01*
X28118Y-33174D01*
X28062Y-33307D01*
X28008Y-33175D01*
X27861Y-33027D01*
X27668Y-32947D01*
X27459Y-32947D01*
X27266Y-33027D01*
X27118Y-33174D01*
X27102Y-33211D01*
X27092Y-33204D01*
X27087Y-33203D01*
X27087Y-33148D01*
X27049Y-33056D01*
X26979Y-32986D01*
X26888Y-32948D01*
X26789Y-32948D01*
X26239Y-32948D01*
X26147Y-32986D01*
X26077Y-33056D01*
X26039Y-33147D01*
X26039Y-33246D01*
X26039Y-33796D01*
X26077Y-33888D01*
X26147Y-33958D01*
X26238Y-33996D01*
X26337Y-33996D01*
X26724Y-33996D01*
X26776Y-34073D01*
X26798Y-34095D01*
X26892Y-34158D01*
X27003Y-34180D01*
X34563Y-34180D01*
X40773Y-34180D01*
X40773Y-36266D01*
X40768Y-36261D01*
X40677Y-36223D01*
X40578Y-36223D01*
X39978Y-36223D01*
X39886Y-36261D01*
X39816Y-36331D01*
X39778Y-36422D01*
X39778Y-36521D01*
X39778Y-37121D01*
X39816Y-37213D01*
X39886Y-37283D01*
X39977Y-37321D01*
X40076Y-37321D01*
X40676Y-37321D01*
X40768Y-37283D01*
X40838Y-37213D01*
X40876Y-37122D01*
X40876Y-37097D01*
X41016Y-37237D01*
X41218Y-37321D01*
X41436Y-37321D01*
X41638Y-37237D01*
X41792Y-37083D01*
X41876Y-36881D01*
X41876Y-36663D01*
X41792Y-36461D01*
X41638Y-36307D01*
X41436Y-36223D01*
X41353Y-36223D01*
X41353Y-33953D01*
X41458Y-33997D01*
X41667Y-33997D01*
X41860Y-33917D01*
X42008Y-33770D01*
X42063Y-33636D01*
X42118Y-33769D01*
X42265Y-33917D01*
X42458Y-33997D01*
X42667Y-33997D01*
X42860Y-33917D01*
X43008Y-33770D01*
X43063Y-33636D01*
X43118Y-33769D01*
X43265Y-33917D01*
X43458Y-33997D01*
X43667Y-33997D01*
X43860Y-33917D01*
X44008Y-33770D01*
X44063Y-33636D01*
X44118Y-33769D01*
X44265Y-33917D01*
X44458Y-33997D01*
X44667Y-33997D01*
X44860Y-33917D01*
X45008Y-33770D01*
X45063Y-33636D01*
X45118Y-33769D01*
X45265Y-33917D01*
X45458Y-33997D01*
X45667Y-33997D01*
X45860Y-33917D01*
X46008Y-33770D01*
X46088Y-33577D01*
X46088Y-33368D01*
X46008Y-33175D01*
X45861Y-33027D01*
X45668Y-32947D01*
X45459Y-32947D01*
X45266Y-33027D01*
X45118Y-33174D01*
X45062Y-33307D01*
X45008Y-33175D01*
X44861Y-33027D01*
X44668Y-32947D01*
X44459Y-32947D01*
X44266Y-33027D01*
X44118Y-33174D01*
X44062Y-33307D01*
X44008Y-33175D01*
X43861Y-33027D01*
X43668Y-32947D01*
X43459Y-32947D01*
X43266Y-33027D01*
X43118Y-33174D01*
X43062Y-33307D01*
X43008Y-33175D01*
X42861Y-33027D01*
X42668Y-32947D01*
X42459Y-32947D01*
X42266Y-33027D01*
X42118Y-33174D01*
X42062Y-33307D01*
X42008Y-33175D01*
X41861Y-33027D01*
X41668Y-32947D01*
X41459Y-32947D01*
X41353Y-32990D01*
X41353Y-27953D01*
X41458Y-27997D01*
X41667Y-27997D01*
X41860Y-27917D01*
X42008Y-27770D01*
X42063Y-27636D01*
X42118Y-27769D01*
X42265Y-27917D01*
X42458Y-27997D01*
X42667Y-27997D01*
X42860Y-27917D01*
X43008Y-27770D01*
X43063Y-27636D01*
X43118Y-27769D01*
X43265Y-27917D01*
X43458Y-27997D01*
X43667Y-27997D01*
X43860Y-27917D01*
X44008Y-27770D01*
X44063Y-27636D01*
X44118Y-27769D01*
X44265Y-27917D01*
X44458Y-27997D01*
X44667Y-27997D01*
X44860Y-27917D01*
X45008Y-27770D01*
X45063Y-27636D01*
X45118Y-27769D01*
X45265Y-27917D01*
X45458Y-27997D01*
X45667Y-27997D01*
X45860Y-27917D01*
X46008Y-27770D01*
X46088Y-27577D01*
X46088Y-27368D01*
X46008Y-27175D01*
X45861Y-27027D01*
X45668Y-26947D01*
X45459Y-26947D01*
X45266Y-27027D01*
X45118Y-27174D01*
X45062Y-27307D01*
X45008Y-27175D01*
X44861Y-27027D01*
X44668Y-26947D01*
X44459Y-26947D01*
X44266Y-27027D01*
X44118Y-27174D01*
X44062Y-27307D01*
X44008Y-27175D01*
X43861Y-27027D01*
X43668Y-26947D01*
X43459Y-26947D01*
X43266Y-27027D01*
X43118Y-27174D01*
X43062Y-27307D01*
X43008Y-27175D01*
X42861Y-27027D01*
X42668Y-26947D01*
X42459Y-26947D01*
X42266Y-27027D01*
X42118Y-27174D01*
X42062Y-27307D01*
X42008Y-27175D01*
X41861Y-27027D01*
X41813Y-27007D01*
X41813Y-24771D01*
X41802Y-24553D01*
X41740Y-24404D01*
X41645Y-24375D01*
X41331Y-24690D01*
X41645Y-25005D01*
X41740Y-24976D01*
X41813Y-24771D01*
X41813Y-27007D01*
X41668Y-26947D01*
X41459Y-26947D01*
X41353Y-26990D01*
X41353Y-26239D01*
X41369Y-26239D01*
X41571Y-26155D01*
X41725Y-26001D01*
X41809Y-25799D01*
X41809Y-25581D01*
X41725Y-25379D01*
X41571Y-25225D01*
X41492Y-25192D01*
X41546Y-25170D01*
X41575Y-25075D01*
X41260Y-24761D01*
X40945Y-25075D01*
X40974Y-25170D01*
X41031Y-25190D01*
X40949Y-25225D01*
X40795Y-25379D01*
X40760Y-25463D01*
X40725Y-25379D01*
X40571Y-25225D01*
X40486Y-25190D01*
X40571Y-25155D01*
X40725Y-25001D01*
X40757Y-24922D01*
X40780Y-24976D01*
X40875Y-25005D01*
X41189Y-24690D01*
X40875Y-24375D01*
X40780Y-24404D01*
X40759Y-24461D01*
X40725Y-24379D01*
X40596Y-24250D01*
X40961Y-24250D01*
X40945Y-24305D01*
X41260Y-24619D01*
X41575Y-24305D01*
X41558Y-24250D01*
X46450Y-24250D01*
X46450Y-37850D01*
X46450Y-37850D01*
G37*
G54D16*
X46450Y-37850D02*
X25550Y-37850D01*
X25550Y-24250D01*
X38924Y-24250D01*
X38795Y-24379D01*
X38786Y-24400D01*
X37345Y-24400D01*
X37234Y-24422D01*
X37140Y-24485D01*
X34675Y-26949D01*
X34668Y-26947D01*
X34459Y-26947D01*
X34266Y-27027D01*
X34118Y-27174D01*
X34062Y-27307D01*
X34008Y-27175D01*
X33861Y-27027D01*
X33668Y-26947D01*
X33459Y-26947D01*
X33266Y-27027D01*
X33118Y-27174D01*
X33065Y-27301D01*
X33023Y-27200D01*
X32931Y-27175D01*
X32860Y-27246D01*
X32860Y-27104D01*
X32835Y-27012D01*
X32639Y-26942D01*
X32431Y-26954D01*
X32291Y-27012D01*
X32266Y-27104D01*
X32563Y-27401D01*
X32860Y-27104D01*
X32860Y-27246D01*
X32634Y-27472D01*
X32931Y-27769D01*
X33023Y-27744D01*
X33062Y-27634D01*
X33118Y-27769D01*
X33265Y-27917D01*
X33458Y-27997D01*
X33667Y-27997D01*
X33860Y-27917D01*
X34008Y-27770D01*
X34063Y-27636D01*
X34118Y-27769D01*
X34265Y-27917D01*
X34458Y-27997D01*
X34667Y-27997D01*
X34860Y-27917D01*
X35008Y-27770D01*
X35063Y-27636D01*
X35118Y-27769D01*
X35265Y-27917D01*
X35458Y-27997D01*
X35667Y-27997D01*
X35860Y-27917D01*
X36008Y-27770D01*
X36063Y-27636D01*
X36118Y-27769D01*
X36265Y-27917D01*
X36458Y-27997D01*
X36667Y-27997D01*
X36860Y-27917D01*
X37008Y-27770D01*
X37063Y-27636D01*
X37118Y-27769D01*
X37265Y-27917D01*
X37458Y-27997D01*
X37667Y-27997D01*
X37860Y-27917D01*
X38008Y-27770D01*
X38063Y-27636D01*
X38118Y-27769D01*
X38265Y-27917D01*
X38458Y-27997D01*
X38667Y-27997D01*
X38860Y-27917D01*
X39008Y-27770D01*
X39063Y-27636D01*
X39118Y-27769D01*
X39265Y-27917D01*
X39458Y-27997D01*
X39667Y-27997D01*
X39860Y-27917D01*
X40008Y-27770D01*
X40063Y-27636D01*
X40118Y-27769D01*
X40265Y-27917D01*
X40458Y-27997D01*
X40667Y-27997D01*
X40773Y-27953D01*
X40773Y-32990D01*
X40668Y-32947D01*
X40459Y-32947D01*
X40266Y-33027D01*
X40118Y-33174D01*
X40062Y-33307D01*
X40008Y-33175D01*
X39861Y-33027D01*
X39668Y-32947D01*
X39459Y-32947D01*
X39266Y-33027D01*
X39118Y-33174D01*
X39062Y-33307D01*
X39008Y-33175D01*
X38861Y-33027D01*
X38668Y-32947D01*
X38459Y-32947D01*
X38266Y-33027D01*
X38118Y-33174D01*
X38065Y-33301D01*
X38023Y-33200D01*
X37931Y-33175D01*
X37860Y-33246D01*
X37860Y-33104D01*
X37835Y-33012D01*
X37639Y-32942D01*
X37431Y-32954D01*
X37291Y-33012D01*
X37266Y-33104D01*
X37563Y-33401D01*
X37860Y-33104D01*
X37860Y-33246D01*
X37669Y-33437D01*
X37634Y-33472D01*
X37563Y-33543D01*
X37492Y-33472D01*
X37457Y-33437D01*
X37195Y-33175D01*
X37103Y-33200D01*
X37063Y-33309D01*
X37008Y-33175D01*
X36861Y-33027D01*
X36668Y-32947D01*
X36459Y-32947D01*
X36266Y-33027D01*
X36118Y-33174D01*
X36062Y-33307D01*
X36008Y-33175D01*
X35861Y-33027D01*
X35668Y-32947D01*
X35459Y-32947D01*
X35266Y-33027D01*
X35118Y-33174D01*
X35062Y-33307D01*
X35008Y-33175D01*
X34861Y-33027D01*
X34668Y-32947D01*
X34459Y-32947D01*
X34266Y-33027D01*
X34118Y-33174D01*
X34065Y-33301D01*
X34023Y-33200D01*
X33931Y-33175D01*
X33860Y-33246D01*
X33860Y-33104D01*
X33835Y-33012D01*
X33639Y-32942D01*
X33431Y-32954D01*
X33291Y-33012D01*
X33266Y-33104D01*
X33563Y-33401D01*
X33860Y-33104D01*
X33860Y-33246D01*
X33669Y-33437D01*
X33634Y-33472D01*
X33563Y-33543D01*
X33492Y-33472D01*
X33457Y-33437D01*
X33195Y-33175D01*
X33103Y-33200D01*
X33063Y-33309D01*
X33008Y-33175D01*
X32861Y-33027D01*
X32860Y-33026D01*
X32860Y-27840D01*
X32563Y-27543D01*
X32492Y-27614D01*
X32492Y-27472D01*
X32195Y-27175D01*
X32103Y-27200D01*
X32063Y-27309D01*
X32008Y-27175D01*
X31861Y-27027D01*
X31668Y-26947D01*
X31459Y-26947D01*
X31266Y-27027D01*
X31118Y-27174D01*
X31062Y-27307D01*
X31008Y-27175D01*
X30861Y-27027D01*
X30668Y-26947D01*
X30459Y-26947D01*
X30266Y-27027D01*
X30118Y-27174D01*
X30062Y-27307D01*
X30008Y-27175D01*
X29861Y-27027D01*
X29668Y-26947D01*
X29459Y-26947D01*
X29266Y-27027D01*
X29118Y-27174D01*
X29062Y-27307D01*
X29008Y-27175D01*
X28861Y-27027D01*
X28668Y-26947D01*
X28459Y-26947D01*
X28266Y-27027D01*
X28118Y-27174D01*
X28062Y-27307D01*
X28008Y-27175D01*
X27861Y-27027D01*
X27668Y-26947D01*
X27459Y-26947D01*
X27266Y-27027D01*
X27118Y-27174D01*
X27062Y-27307D01*
X27008Y-27175D01*
X26861Y-27027D01*
X26668Y-26947D01*
X26459Y-26947D01*
X26266Y-27027D01*
X26118Y-27174D01*
X26038Y-27367D01*
X26038Y-27576D01*
X26118Y-27769D01*
X26265Y-27917D01*
X26458Y-27997D01*
X26667Y-27997D01*
X26860Y-27917D01*
X27008Y-27770D01*
X27063Y-27636D01*
X27118Y-27769D01*
X27265Y-27917D01*
X27458Y-27997D01*
X27667Y-27997D01*
X27860Y-27917D01*
X28008Y-27770D01*
X28063Y-27636D01*
X28118Y-27769D01*
X28265Y-27917D01*
X28458Y-27997D01*
X28667Y-27997D01*
X28860Y-27917D01*
X29008Y-27770D01*
X29063Y-27636D01*
X29118Y-27769D01*
X29265Y-27917D01*
X29458Y-27997D01*
X29667Y-27997D01*
X29860Y-27917D01*
X30008Y-27770D01*
X30063Y-27636D01*
X30118Y-27769D01*
X30265Y-27917D01*
X30458Y-27997D01*
X30667Y-27997D01*
X30860Y-27917D01*
X31008Y-27770D01*
X31063Y-27636D01*
X31118Y-27769D01*
X31265Y-27917D01*
X31458Y-27997D01*
X31667Y-27997D01*
X31860Y-27917D01*
X32008Y-27770D01*
X32060Y-27642D01*
X32103Y-27744D01*
X32195Y-27769D01*
X32492Y-27472D01*
X32492Y-27614D01*
X32266Y-27840D01*
X32291Y-27932D01*
X32487Y-28002D01*
X32695Y-27990D01*
X32835Y-27932D01*
X32860Y-27840D01*
X32860Y-33026D01*
X32668Y-32947D01*
X32459Y-32947D01*
X32266Y-33027D01*
X32118Y-33174D01*
X32062Y-33307D01*
X32008Y-33175D01*
X31861Y-33027D01*
X31668Y-32947D01*
X31459Y-32947D01*
X31266Y-33027D01*
X31118Y-33174D01*
X31062Y-33307D01*
X31008Y-33175D01*
X30861Y-33027D01*
X30668Y-32947D01*
X30459Y-32947D01*
X30266Y-33027D01*
X30118Y-33174D01*
X30062Y-33307D01*
X30008Y-33175D01*
X29861Y-33027D01*
X29668Y-32947D01*
X29459Y-32947D01*
X29266Y-33027D01*
X29118Y-33174D01*
X29062Y-33307D01*
X29008Y-33175D01*
X28861Y-33027D01*
X28668Y-32947D01*
X28459Y-32947D01*
X28266Y-33027D01*
X28118Y-33174D01*
X28062Y-33307D01*
X28008Y-33175D01*
X27861Y-33027D01*
X27668Y-32947D01*
X27459Y-32947D01*
X27266Y-33027D01*
X27118Y-33174D01*
X27102Y-33211D01*
X27092Y-33204D01*
X27087Y-33203D01*
X27087Y-33148D01*
X27049Y-33056D01*
X26979Y-32986D01*
X26888Y-32948D01*
X26789Y-32948D01*
X26239Y-32948D01*
X26147Y-32986D01*
X26077Y-33056D01*
X26039Y-33147D01*
X26039Y-33246D01*
X26039Y-33796D01*
X26077Y-33888D01*
X26147Y-33958D01*
X26238Y-33996D01*
X26337Y-33996D01*
X26724Y-33996D01*
X26776Y-34073D01*
X26798Y-34095D01*
X26892Y-34158D01*
X27003Y-34180D01*
X34563Y-34180D01*
X40773Y-34180D01*
X40773Y-36266D01*
X40768Y-36261D01*
X40677Y-36223D01*
X40578Y-36223D01*
X39978Y-36223D01*
X39886Y-36261D01*
X39816Y-36331D01*
X39778Y-36422D01*
X39778Y-36521D01*
X39778Y-37121D01*
X39816Y-37213D01*
X39886Y-37283D01*
X39977Y-37321D01*
X40076Y-37321D01*
X40676Y-37321D01*
X40768Y-37283D01*
X40838Y-37213D01*
X40876Y-37122D01*
X40876Y-37097D01*
X41016Y-37237D01*
X41218Y-37321D01*
X41436Y-37321D01*
X41638Y-37237D01*
X41792Y-37083D01*
X41876Y-36881D01*
X41876Y-36663D01*
X41792Y-36461D01*
X41638Y-36307D01*
X41436Y-36223D01*
X41353Y-36223D01*
X41353Y-33953D01*
X41458Y-33997D01*
X41667Y-33997D01*
X41860Y-33917D01*
X42008Y-33770D01*
X42063Y-33636D01*
X42118Y-33769D01*
X42265Y-33917D01*
X42458Y-33997D01*
X42667Y-33997D01*
X42860Y-33917D01*
X43008Y-33770D01*
X43063Y-33636D01*
X43118Y-33769D01*
X43265Y-33917D01*
X43458Y-33997D01*
X43667Y-33997D01*
X43860Y-33917D01*
X44008Y-33770D01*
X44063Y-33636D01*
X44118Y-33769D01*
X44265Y-33917D01*
X44458Y-33997D01*
X44667Y-33997D01*
X44860Y-33917D01*
X45008Y-33770D01*
X45063Y-33636D01*
X45118Y-33769D01*
X45265Y-33917D01*
X45458Y-33997D01*
X45667Y-33997D01*
X45860Y-33917D01*
X46008Y-33770D01*
X46088Y-33577D01*
X46088Y-33368D01*
X46008Y-33175D01*
X45861Y-33027D01*
X45668Y-32947D01*
X45459Y-32947D01*
X45266Y-33027D01*
X45118Y-33174D01*
X45062Y-33307D01*
X45008Y-33175D01*
X44861Y-33027D01*
X44668Y-32947D01*
X44459Y-32947D01*
X44266Y-33027D01*
X44118Y-33174D01*
X44062Y-33307D01*
X44008Y-33175D01*
X43861Y-33027D01*
X43668Y-32947D01*
X43459Y-32947D01*
X43266Y-33027D01*
X43118Y-33174D01*
X43062Y-33307D01*
X43008Y-33175D01*
X42861Y-33027D01*
X42668Y-32947D01*
X42459Y-32947D01*
X42266Y-33027D01*
X42118Y-33174D01*
X42062Y-33307D01*
X42008Y-33175D01*
X41861Y-33027D01*
X41668Y-32947D01*
X41459Y-32947D01*
X41353Y-32990D01*
X41353Y-27953D01*
X41458Y-27997D01*
X41667Y-27997D01*
X41860Y-27917D01*
X42008Y-27770D01*
X42063Y-27636D01*
X42118Y-27769D01*
X42265Y-27917D01*
X42458Y-27997D01*
X42667Y-27997D01*
X42860Y-27917D01*
X43008Y-27770D01*
X43063Y-27636D01*
X43118Y-27769D01*
X43265Y-27917D01*
X43458Y-27997D01*
X43667Y-27997D01*
X43860Y-27917D01*
X44008Y-27770D01*
X44063Y-27636D01*
X44118Y-27769D01*
X44265Y-27917D01*
X44458Y-27997D01*
X44667Y-27997D01*
X44860Y-27917D01*
X45008Y-27770D01*
X45063Y-27636D01*
X45118Y-27769D01*
X45265Y-27917D01*
X45458Y-27997D01*
X45667Y-27997D01*
X45860Y-27917D01*
X46008Y-27770D01*
X46088Y-27577D01*
X46088Y-27368D01*
X46008Y-27175D01*
X45861Y-27027D01*
X45668Y-26947D01*
X45459Y-26947D01*
X45266Y-27027D01*
X45118Y-27174D01*
X45062Y-27307D01*
X45008Y-27175D01*
X44861Y-27027D01*
X44668Y-26947D01*
X44459Y-26947D01*
X44266Y-27027D01*
X44118Y-27174D01*
X44062Y-27307D01*
X44008Y-27175D01*
X43861Y-27027D01*
X43668Y-26947D01*
X43459Y-26947D01*
X43266Y-27027D01*
X43118Y-27174D01*
X43062Y-27307D01*
X43008Y-27175D01*
X42861Y-27027D01*
X42668Y-26947D01*
X42459Y-26947D01*
X42266Y-27027D01*
X42118Y-27174D01*
X42062Y-27307D01*
X42008Y-27175D01*
X41861Y-27027D01*
X41813Y-27007D01*
X41813Y-24771D01*
X41802Y-24553D01*
X41740Y-24404D01*
X41645Y-24375D01*
X41331Y-24690D01*
X41645Y-25005D01*
X41740Y-24976D01*
X41813Y-24771D01*
X41813Y-27007D01*
X41668Y-26947D01*
X41459Y-26947D01*
X41353Y-26990D01*
X41353Y-26239D01*
X41369Y-26239D01*
X41571Y-26155D01*
X41725Y-26001D01*
X41809Y-25799D01*
X41809Y-25581D01*
X41725Y-25379D01*
X41571Y-25225D01*
X41492Y-25192D01*
X41546Y-25170D01*
X41575Y-25075D01*
X41260Y-24761D01*
X40945Y-25075D01*
X40974Y-25170D01*
X41031Y-25190D01*
X40949Y-25225D01*
X40795Y-25379D01*
X40760Y-25463D01*
X40725Y-25379D01*
X40571Y-25225D01*
X40486Y-25190D01*
X40571Y-25155D01*
X40725Y-25001D01*
X40757Y-24922D01*
X40780Y-24976D01*
X40875Y-25005D01*
X41189Y-24690D01*
X40875Y-24375D01*
X40780Y-24404D01*
X40759Y-24461D01*
X40725Y-24379D01*
X40596Y-24250D01*
X40961Y-24250D01*
X40945Y-24305D01*
X41260Y-24619D01*
X41575Y-24305D01*
X41558Y-24250D01*
X46450Y-24250D01*
X46450Y-37850D01*
M02*
